<svg xmlns="http://www.w3.org/2000/svg" xmlns:xlink="http://www.w3.org/1999/xlink" width="1080" zoomAndPan="magnify" viewBox="0 0 810 809.999993" height="1080" preserveAspectRatio="xMidYMid meet" version="1.0"><defs><clipPath id="f028d35899"><path d="M 54.078125 73 L 754 73 L 754 528 L 54.078125 528 Z M 54.078125 73 " clip-rule="nonzero"/></clipPath></defs><g clip-path="url(#f028d35899)"><path fill="#76984b" d="M 685.980469 194.945312 L 273.46875 194.945312 C 272.753906 194.945312 272.039062 194.980469 271.328125 195.050781 C 270.617188 195.121094 269.910156 195.226562 269.207031 195.363281 C 268.503906 195.503906 267.8125 195.679688 267.125 195.886719 C 266.441406 196.09375 265.769531 196.335938 265.105469 196.609375 C 264.445312 196.882812 263.800781 197.1875 263.167969 197.523438 C 262.535156 197.863281 261.921875 198.230469 261.328125 198.628906 C 260.734375 199.027344 260.160156 199.453125 259.605469 199.90625 C 259.050781 200.359375 258.523438 200.839844 258.015625 201.34375 C 257.511719 201.851562 257.03125 202.382812 256.578125 202.933594 C 256.121094 203.488281 255.695312 204.0625 255.300781 204.65625 C 254.902344 205.253906 254.535156 205.867188 254.195312 206.496094 C 253.859375 207.128906 253.554688 207.773438 253.28125 208.4375 C 253.003906 209.097656 252.765625 209.769531 252.558594 210.453125 C 252.347656 211.140625 252.175781 211.832031 252.035156 212.535156 C 251.894531 213.238281 251.792969 213.945312 251.722656 214.65625 C 251.652344 215.371094 251.617188 216.082031 251.617188 216.800781 C 251.617188 217.515625 251.652344 218.230469 251.722656 218.941406 C 251.792969 219.652344 251.894531 220.359375 252.035156 221.0625 C 252.175781 221.765625 252.347656 222.457031 252.558594 223.144531 C 252.765625 223.828125 253.003906 224.5 253.28125 225.164062 C 253.554688 225.824219 253.859375 226.46875 254.195312 227.101562 C 254.535156 227.730469 254.902344 228.34375 255.300781 228.941406 C 255.695312 229.535156 256.121094 230.109375 256.578125 230.664062 C 257.03125 231.214844 257.511719 231.746094 258.015625 232.253906 C 258.523438 232.757812 259.050781 233.238281 259.605469 233.691406 C 260.160156 234.148438 260.734375 234.574219 261.328125 234.96875 C 261.921875 235.367188 262.535156 235.734375 263.167969 236.074219 C 263.800781 236.410156 264.445312 236.714844 265.105469 236.988281 C 265.769531 237.261719 266.441406 237.503906 267.125 237.710938 C 267.8125 237.921875 268.503906 238.09375 269.207031 238.234375 C 269.910156 238.371094 270.617188 238.476562 271.328125 238.546875 C 272.039062 238.617188 272.753906 238.652344 273.46875 238.652344 L 685.980469 238.652344 C 686.484375 238.652344 686.988281 238.667969 687.488281 238.699219 C 687.992188 238.730469 688.492188 238.777344 688.992188 238.84375 C 689.492188 238.90625 689.988281 238.984375 690.484375 239.082031 C 690.976562 239.175781 691.46875 239.285156 691.957031 239.414062 C 692.445312 239.539062 692.925781 239.679688 693.40625 239.839844 C 693.882812 239.996094 694.355469 240.167969 694.824219 240.355469 C 695.292969 240.542969 695.753906 240.742188 696.207031 240.960938 C 696.660156 241.175781 697.109375 241.40625 697.546875 241.652344 C 697.988281 241.898438 698.421875 242.15625 698.84375 242.429688 C 699.265625 242.703125 699.679688 242.988281 700.085938 243.285156 C 700.492188 243.585938 700.886719 243.898438 701.273438 244.222656 C 701.660156 244.546875 702.03125 244.882812 702.398438 245.230469 C 702.761719 245.578125 703.113281 245.9375 703.453125 246.304688 C 703.796875 246.675781 704.125 247.058594 704.441406 247.449219 C 704.757812 247.839844 705.0625 248.242188 705.355469 248.652344 C 705.644531 249.0625 705.921875 249.484375 706.1875 249.910156 C 706.453125 250.339844 706.703125 250.777344 706.941406 251.21875 C 707.175781 251.664062 707.398438 252.117188 707.609375 252.574219 C 707.816406 253.03125 708.007812 253.496094 708.1875 253.96875 C 708.367188 254.441406 708.53125 254.914062 708.679688 255.398438 C 708.824219 255.878906 708.957031 256.363281 709.078125 256.851562 C 709.195312 257.34375 709.296875 257.835938 709.382812 258.332031 C 709.46875 258.828125 709.539062 259.328125 709.589844 259.828125 C 709.644531 260.328125 709.683594 260.828125 709.707031 261.332031 C 709.726562 261.835938 709.734375 262.339844 709.722656 262.84375 C 709.714844 263.347656 709.6875 263.847656 709.648438 264.351562 C 709.605469 264.851562 709.546875 265.351562 709.472656 265.851562 C 709.398438 266.347656 709.3125 266.84375 709.207031 267.335938 C 709.101562 267.828125 708.980469 268.316406 708.84375 268.800781 C 708.707031 269.289062 708.554688 269.765625 708.390625 270.242188 C 708.222656 270.71875 708.039062 271.1875 707.84375 271.648438 C 707.648438 272.113281 707.433594 272.570312 707.210938 273.019531 C 682.234375 323.148438 646.566406 434.96875 628.757812 470.558594 C 628.269531 471.539062 627.710938 472.480469 627.089844 473.386719 C 626.46875 474.289062 625.789062 475.144531 625.050781 475.953125 C 624.308594 476.765625 623.515625 477.519531 622.671875 478.21875 C 621.828125 478.917969 620.941406 479.554688 620.007812 480.132812 C 619.074219 480.707031 618.105469 481.214844 617.101562 481.660156 C 616.097656 482.101562 615.070312 482.472656 614.015625 482.769531 C 612.960938 483.070312 611.890625 483.292969 610.804688 483.445312 C 609.71875 483.597656 608.625 483.671875 607.527344 483.671875 L 303.839844 483.671875 C 302.65625 483.671875 301.480469 483.585938 300.308594 483.410156 C 299.136719 483.238281 297.988281 482.976562 296.855469 482.628906 C 295.722656 482.28125 294.625 481.855469 293.554688 481.34375 C 292.488281 480.832031 291.464844 480.242188 290.484375 479.578125 C 289.503906 478.914062 288.578125 478.179688 287.707031 477.378906 C 286.839844 476.574219 286.03125 475.714844 285.292969 474.789062 C 284.550781 473.867188 283.882812 472.894531 283.285156 471.871094 C 282.691406 470.847656 282.175781 469.785156 281.738281 468.6875 C 281.738281 468.4375 213.425781 161.976562 213.425781 161.976562 C 212.738281 158.863281 211.917969 155.789062 210.96875 152.746094 C 210.019531 149.703125 208.945312 146.707031 207.742188 143.753906 C 206.539062 140.804688 205.214844 137.90625 203.765625 135.070312 C 202.320312 132.230469 200.753906 129.457031 199.074219 126.75 C 197.390625 124.042969 195.597656 121.410156 193.691406 118.855469 C 191.789062 116.300781 189.777344 113.832031 187.664062 111.445312 C 185.550781 109.0625 183.339844 106.769531 181.035156 104.570312 C 178.726562 102.375 176.328125 100.277344 173.84375 98.28125 C 171.359375 96.285156 168.796875 94.398438 166.152344 92.621094 C 163.507812 90.839844 160.792969 89.179688 158.007812 87.628906 C 155.222656 86.082031 152.375 84.652344 149.46875 83.34375 C 146.5625 82.035156 143.605469 80.851562 140.601562 79.792969 C 137.59375 78.738281 134.550781 77.808594 131.464844 77.007812 C 128.378906 76.207031 125.265625 75.539062 122.125 75 C 118.984375 74.464844 115.824219 74.058594 112.648438 73.789062 C 109.472656 73.519531 106.292969 73.386719 103.105469 73.382812 L 75.957031 73.382812 C 75.230469 73.351562 74.503906 73.355469 73.78125 73.398438 C 73.054688 73.4375 72.332031 73.519531 71.617188 73.636719 C 70.898438 73.75 70.191406 73.90625 69.488281 74.097656 C 68.789062 74.289062 68.097656 74.515625 67.421875 74.777344 C 66.742188 75.039062 66.082031 75.335938 65.433594 75.667969 C 64.789062 76 64.160156 76.363281 63.550781 76.761719 C 62.941406 77.15625 62.355469 77.585938 61.792969 78.042969 C 61.226562 78.5 60.6875 78.988281 60.175781 79.5 C 59.664062 80.015625 59.175781 80.554688 58.71875 81.117188 C 58.261719 81.683594 57.835938 82.269531 57.4375 82.878906 C 57.042969 83.488281 56.679688 84.117188 56.347656 84.765625 C 56.019531 85.410156 55.722656 86.074219 55.460938 86.75 C 55.199219 87.429688 54.972656 88.117188 54.78125 88.820312 C 54.59375 89.519531 54.4375 90.230469 54.324219 90.949219 C 54.207031 91.664062 54.128906 92.386719 54.085938 93.113281 C 54.046875 93.835938 54.042969 94.5625 54.078125 95.289062 C 54.078125 96.003906 54.117188 96.71875 54.1875 97.429688 C 54.257812 98.140625 54.363281 98.847656 54.507812 99.550781 C 54.648438 100.25 54.820312 100.941406 55.03125 101.628906 C 55.238281 102.3125 55.480469 102.984375 55.753906 103.644531 C 56.027344 104.304688 56.335938 104.949219 56.671875 105.582031 C 57.011719 106.210938 57.378906 106.824219 57.777344 107.417969 C 58.175781 108.011719 58.601562 108.585938 59.054688 109.140625 C 59.507812 109.691406 59.988281 110.222656 60.492188 110.726562 C 61 111.234375 61.527344 111.714844 62.082031 112.167969 C 62.632812 112.621094 63.207031 113.046875 63.800781 113.445312 C 64.398438 113.84375 65.007812 114.210938 65.640625 114.546875 C 66.269531 114.886719 66.914062 115.191406 67.578125 115.464844 C 68.238281 115.742188 68.910156 115.984375 69.59375 116.191406 C 70.277344 116.398438 70.96875 116.574219 71.671875 116.714844 C 72.375 116.855469 73.078125 116.960938 73.792969 117.035156 C 74.503906 117.105469 75.214844 117.140625 75.933594 117.144531 L 103.105469 117.144531 C 105.058594 117.144531 107.007812 117.222656 108.953125 117.390625 C 110.898438 117.554688 112.832031 117.796875 114.757812 118.125 C 116.683594 118.453125 118.589844 118.863281 120.480469 119.351562 C 122.371094 119.839844 124.238281 120.40625 126.078125 121.054688 C 127.921875 121.699219 129.734375 122.425781 131.511719 123.222656 C 133.292969 124.023438 135.039062 124.898438 136.746094 125.84375 C 138.453125 126.789062 140.117188 127.808594 141.738281 128.894531 C 143.359375 129.984375 144.933594 131.136719 146.457031 132.359375 C 147.980469 133.578125 149.449219 134.863281 150.863281 136.207031 C 152.28125 137.550781 153.636719 138.953125 154.933594 140.414062 C 156.230469 141.871094 157.464844 143.382812 158.632812 144.945312 C 159.800781 146.511719 160.902344 148.121094 161.9375 149.777344 C 162.96875 151.433594 163.929688 153.132812 164.820312 154.867188 C 165.710938 156.605469 166.523438 158.378906 167.265625 160.1875 C 168.003906 161.992188 168.667969 163.828125 169.25 165.691406 C 169.835938 167.550781 170.339844 169.4375 170.765625 171.34375 L 239.277344 479.125 C 239.453125 479.824219 239.652344 480.574219 239.875 481.273438 C 240.433594 482.9375 241.050781 484.582031 241.734375 486.195312 C 242.417969 487.8125 243.164062 489.402344 243.972656 490.960938 C 244.777344 492.519531 245.644531 494.042969 246.570312 495.535156 C 247.5 497.027344 248.480469 498.480469 249.519531 499.894531 C 250.5625 501.308594 251.65625 502.679688 252.800781 504.007812 C 253.949219 505.335938 255.144531 506.617188 256.394531 507.855469 C 257.640625 509.089844 258.933594 510.273438 260.273438 511.410156 C 261.613281 512.542969 262.996094 513.625 264.417969 514.648438 C 265.84375 515.675781 267.304688 516.644531 268.804688 517.558594 C 270.304688 518.46875 271.835938 519.324219 273.402344 520.113281 C 274.96875 520.90625 276.5625 521.636719 278.1875 522.304688 C 279.8125 522.972656 281.457031 523.578125 283.128906 524.117188 C 284.796875 524.65625 286.488281 525.128906 288.195312 525.539062 C 289.902344 525.945312 291.625 526.285156 293.355469 526.558594 C 295.089844 526.832031 296.832031 527.035156 298.582031 527.175781 C 300.332031 527.3125 302.085938 527.378906 303.839844 527.378906 L 607.527344 527.378906 C 610.644531 527.378906 613.746094 527.164062 616.832031 526.734375 C 619.917969 526.304688 622.960938 525.664062 625.960938 524.8125 C 628.957031 523.960938 631.882812 522.90625 634.730469 521.648438 C 637.582031 520.390625 640.335938 518.941406 642.984375 517.304688 C 645.636719 515.664062 648.160156 513.851562 650.558594 511.863281 C 652.960938 509.875 655.210938 507.730469 657.3125 505.429688 C 659.414062 503.128906 661.347656 500.691406 663.109375 498.125 C 664.875 495.554688 666.453125 492.878906 667.847656 490.089844 C 685.628906 454.5 721.222656 342.730469 746.296875 292.550781 C 746.9375 291.273438 747.535156 289.976562 748.09375 288.660156 C 748.648438 287.34375 749.164062 286.007812 749.636719 284.660156 C 750.109375 283.308594 750.539062 281.945312 750.925781 280.570312 C 751.308594 279.191406 751.652344 277.804688 751.949219 276.40625 C 752.246094 275.007812 752.5 273.601562 752.707031 272.1875 C 752.914062 270.773438 753.078125 269.351562 753.195312 267.925781 C 753.3125 266.503906 753.386719 265.074219 753.410156 263.644531 C 753.4375 262.214844 753.421875 260.789062 753.355469 259.359375 C 753.292969 257.929688 753.183594 256.503906 753.027344 255.082031 C 752.871094 253.664062 752.671875 252.246094 752.429688 250.839844 C 752.183594 249.429688 751.894531 248.03125 751.5625 246.640625 C 751.226562 245.25 750.847656 243.871094 750.429688 242.503906 C 750.007812 241.140625 749.542969 239.789062 749.035156 238.449219 C 748.527344 237.113281 747.976562 235.792969 747.386719 234.492188 C 746.796875 233.191406 746.164062 231.910156 745.492188 230.648438 C 744.816406 229.386719 744.105469 228.148438 743.355469 226.929688 C 742.601562 225.714844 741.8125 224.523438 740.984375 223.355469 C 740.15625 222.191406 739.292969 221.050781 738.394531 219.941406 C 737.496094 218.828125 736.558594 217.75 735.589844 216.695312 C 734.625 215.644531 733.621094 214.625 732.589844 213.636719 C 731.554688 212.648438 730.492188 211.695312 729.398438 210.773438 C 728.304688 209.855469 727.179688 208.96875 726.03125 208.121094 C 724.878906 207.269531 723.703125 206.460938 722.5 205.683594 C 721.300781 204.910156 720.074219 204.175781 718.824219 203.480469 C 717.574219 202.785156 716.304688 202.128906 715.015625 201.511719 C 713.726562 200.898438 712.417969 200.324219 711.089844 199.789062 C 709.761719 199.257812 708.417969 198.769531 707.0625 198.320312 C 705.703125 197.875 704.332031 197.472656 702.949219 197.113281 C 701.5625 196.753906 700.171875 196.4375 698.765625 196.167969 C 697.363281 195.894531 695.949219 195.667969 694.53125 195.488281 C 693.113281 195.308594 691.691406 195.171875 690.265625 195.082031 C 688.839844 194.988281 687.410156 194.945312 685.980469 194.945312 Z M 685.980469 194.945312 " fill-opacity="1" fill-rule="evenodd"/></g><path fill="#76984b" d="M 327.59375 553.003906 C 326.132812 553.007812 324.671875 553.042969 323.210938 553.113281 C 321.753906 553.183594 320.296875 553.292969 318.839844 553.4375 C 317.386719 553.578125 315.9375 553.757812 314.492188 553.972656 C 313.046875 554.1875 311.605469 554.4375 310.171875 554.722656 C 308.738281 555.007812 307.3125 555.328125 305.898438 555.683594 C 304.480469 556.039062 303.070312 556.425781 301.671875 556.851562 C 300.273438 557.273438 298.886719 557.734375 297.511719 558.226562 C 296.136719 558.71875 294.773438 559.246094 293.421875 559.804688 C 292.070312 560.363281 290.734375 560.953125 289.414062 561.578125 C 288.09375 562.203125 286.789062 562.863281 285.5 563.550781 C 284.210938 564.238281 282.941406 564.960938 281.6875 565.710938 C 280.433594 566.460938 279.199219 567.242188 277.984375 568.054688 C 276.769531 568.867188 275.574219 569.707031 274.402344 570.578125 C 273.226562 571.449219 272.074219 572.347656 270.945312 573.277344 C 269.816406 574.203125 268.710938 575.15625 267.628906 576.140625 C 266.542969 577.121094 265.488281 578.128906 264.453125 579.160156 C 263.417969 580.195312 262.414062 581.253906 261.429688 582.335938 C 260.449219 583.417969 259.496094 584.523438 258.570312 585.65625 C 257.640625 586.785156 256.742188 587.9375 255.871094 589.109375 C 255 590.285156 254.160156 591.476562 253.347656 592.695312 C 252.535156 593.910156 251.753906 595.144531 251.003906 596.398438 C 250.253906 597.648438 249.53125 598.921875 248.84375 600.210938 C 248.15625 601.5 247.5 602.804688 246.875 604.125 C 246.25 605.445312 245.65625 606.78125 245.097656 608.132812 C 244.539062 609.480469 244.011719 610.84375 243.519531 612.222656 C 243.027344 613.597656 242.570312 614.984375 242.144531 616.382812 C 241.722656 617.78125 241.332031 619.191406 240.976562 620.605469 C 240.621094 622.023438 240.300781 623.449219 240.019531 624.882812 C 239.734375 626.316406 239.484375 627.757812 239.269531 629.203125 C 239.054688 630.648438 238.875 632.097656 238.734375 633.550781 C 238.589844 635.007812 238.480469 636.464844 238.410156 637.921875 C 238.339844 639.382812 238.304688 640.84375 238.304688 642.304688 C 238.304688 643.765625 238.339844 645.226562 238.410156 646.6875 C 238.484375 648.144531 238.589844 649.601562 238.734375 651.058594 C 238.878906 652.511719 239.054688 653.960938 239.269531 655.40625 C 239.484375 656.851562 239.734375 658.292969 240.019531 659.726562 C 240.304688 661.160156 240.625 662.582031 240.980469 664 C 241.335938 665.417969 241.726562 666.828125 242.152344 668.226562 C 242.574219 669.625 243.035156 671.011719 243.527344 672.386719 C 244.019531 673.761719 244.542969 675.125 245.105469 676.476562 C 245.664062 677.824219 246.253906 679.160156 246.878906 680.484375 C 247.503906 681.804688 248.164062 683.109375 248.851562 684.398438 C 249.539062 685.6875 250.261719 686.957031 251.011719 688.210938 C 251.765625 689.464844 252.546875 690.699219 253.359375 691.914062 C 254.167969 693.128906 255.011719 694.324219 255.882812 695.496094 C 256.753906 696.667969 257.652344 697.820312 258.578125 698.949219 C 259.507812 700.082031 260.460938 701.1875 261.441406 702.269531 C 262.421875 703.351562 263.429688 704.410156 264.464844 705.441406 C 265.5 706.476562 266.554688 707.484375 267.640625 708.464844 C 268.722656 709.445312 269.828125 710.398438 270.957031 711.328125 C 272.089844 712.253906 273.242188 713.152344 274.414062 714.023438 C 275.589844 714.894531 276.78125 715.734375 277.996094 716.546875 C 279.214844 717.359375 280.449219 718.140625 281.703125 718.890625 C 282.953125 719.640625 284.226562 720.363281 285.515625 721.050781 C 286.804688 721.738281 288.109375 722.394531 289.429688 723.019531 C 290.75 723.644531 292.085938 724.238281 293.4375 724.796875 C 294.789062 725.355469 296.152344 725.878906 297.527344 726.371094 C 298.902344 726.863281 300.289062 727.324219 301.6875 727.746094 C 303.085938 728.171875 304.496094 728.558594 305.914062 728.914062 C 307.332031 729.269531 308.757812 729.589844 310.1875 729.875 C 311.621094 730.160156 313.0625 730.410156 314.507812 730.621094 C 315.953125 730.835938 317.402344 731.015625 318.859375 731.160156 C 320.3125 731.300781 321.769531 731.410156 323.230469 731.480469 C 324.6875 731.550781 326.148438 731.585938 327.609375 731.585938 C 329.070312 731.585938 330.53125 731.550781 331.992188 731.480469 C 333.453125 731.40625 334.910156 731.296875 336.363281 731.15625 C 337.816406 731.011719 339.265625 730.832031 340.710938 730.617188 C 342.160156 730.402344 343.597656 730.152344 345.03125 729.867188 C 346.464844 729.582031 347.890625 729.261719 349.308594 728.90625 C 350.722656 728.550781 352.132812 728.160156 353.53125 727.738281 C 354.929688 727.3125 356.316406 726.855469 357.691406 726.359375 C 359.066406 725.867188 360.429688 725.34375 361.78125 724.78125 C 363.132812 724.222656 364.464844 723.632812 365.789062 723.007812 C 367.109375 722.378906 368.414062 721.722656 369.703125 721.035156 C 370.992188 720.34375 372.261719 719.625 373.515625 718.875 C 374.769531 718.121094 376.003906 717.339844 377.21875 716.527344 C 378.433594 715.714844 379.625 714.875 380.800781 714.003906 C 381.972656 713.132812 383.125 712.234375 384.253906 711.304688 C 385.382812 710.378906 386.492188 709.425781 387.574219 708.441406 C 388.65625 707.460938 389.714844 706.453125 390.746094 705.417969 C 391.78125 704.386719 392.785156 703.328125 393.769531 702.246094 C 394.75 701.160156 395.703125 700.054688 396.628906 698.925781 C 397.558594 697.796875 398.457031 696.644531 399.324219 695.46875 C 400.195312 694.296875 401.035156 693.101562 401.847656 691.886719 C 402.660156 690.671875 403.441406 689.4375 404.191406 688.183594 C 404.941406 686.929688 405.664062 685.65625 406.351562 684.367188 C 407.039062 683.078125 407.695312 681.773438 408.320312 680.453125 C 408.945312 679.132812 409.539062 677.796875 410.097656 676.445312 C 410.65625 675.09375 411.179688 673.730469 411.671875 672.355469 C 412.164062 670.980469 412.621094 669.59375 413.046875 668.195312 C 413.46875 666.796875 413.859375 665.386719 414.214844 663.96875 C 414.570312 662.550781 414.886719 661.125 415.171875 659.691406 C 415.457031 658.257812 415.707031 656.820312 415.921875 655.375 C 416.136719 653.929688 416.3125 652.476562 416.457031 651.023438 C 416.601562 649.570312 416.707031 648.113281 416.777344 646.652344 C 416.847656 645.191406 416.886719 643.734375 416.882812 642.269531 C 416.882812 640.8125 416.847656 639.351562 416.773438 637.890625 C 416.699219 636.433594 416.59375 634.976562 416.449219 633.523438 C 416.304688 632.070312 416.125 630.621094 415.90625 629.175781 C 415.691406 627.730469 415.441406 626.292969 415.15625 624.859375 C 414.871094 623.425781 414.550781 622 414.195312 620.585938 C 413.835938 619.167969 413.449219 617.761719 413.023438 616.363281 C 412.597656 614.964844 412.140625 613.578125 411.644531 612.203125 C 411.152344 610.828125 410.625 609.464844 410.066406 608.117188 C 409.507812 606.765625 408.914062 605.433594 408.289062 604.113281 C 407.664062 602.792969 407.007812 601.488281 406.316406 600.199219 C 405.628906 598.910156 404.910156 597.640625 404.15625 596.390625 C 403.40625 595.136719 402.625 593.902344 401.8125 592.6875 C 401 591.472656 400.160156 590.28125 399.289062 589.105469 C 398.417969 587.933594 397.519531 586.78125 396.59375 585.652344 C 395.664062 584.523438 394.710938 583.417969 393.730469 582.335938 C 392.75 581.253906 391.742188 580.195312 390.707031 579.164062 C 389.675781 578.132812 388.617188 577.125 387.535156 576.144531 C 386.453125 575.164062 385.347656 574.210938 384.21875 573.28125 C 383.089844 572.355469 381.9375 571.457031 380.761719 570.585938 C 379.589844 569.714844 378.394531 568.875 377.179688 568.0625 C 375.96875 567.253906 374.734375 566.472656 373.480469 565.71875 C 372.226562 564.96875 370.957031 564.25 369.667969 563.558594 C 368.378906 562.871094 367.074219 562.214844 365.753906 561.589844 C 364.433594 560.964844 363.101562 560.371094 361.75 559.8125 C 360.402344 559.253906 359.039062 558.726562 357.664062 558.234375 C 356.289062 557.742188 354.902344 557.285156 353.503906 556.859375 C 352.105469 556.4375 350.699219 556.046875 349.28125 555.691406 C 347.863281 555.335938 346.441406 555.015625 345.007812 554.730469 C 343.574219 554.445312 342.136719 554.195312 340.691406 553.976562 C 339.246094 553.761719 337.796875 553.585938 336.34375 553.441406 C 334.890625 553.296875 333.433594 553.1875 331.972656 553.117188 C 330.515625 553.042969 329.054688 553.007812 327.59375 553.003906 Z M 327.59375 687.878906 C 326.101562 687.878906 324.613281 687.804688 323.125 687.660156 C 321.640625 687.511719 320.167969 687.292969 318.703125 687.003906 C 317.238281 686.710938 315.792969 686.347656 314.363281 685.914062 C 312.933594 685.484375 311.53125 684.980469 310.152344 684.410156 C 308.773438 683.839844 307.425781 683.199219 306.109375 682.496094 C 304.792969 681.792969 303.515625 681.027344 302.273438 680.199219 C 301.03125 679.367188 299.832031 678.480469 298.679688 677.535156 C 297.527344 676.585938 296.421875 675.585938 295.367188 674.53125 C 294.308594 673.476562 293.308594 672.371094 292.363281 671.214844 C 291.414062 670.0625 290.527344 668.867188 289.695312 667.625 C 288.867188 666.382812 288.101562 665.105469 287.398438 663.789062 C 286.691406 662.472656 286.054688 661.125 285.484375 659.746094 C 284.914062 658.367188 284.410156 656.960938 283.976562 655.535156 C 283.542969 654.105469 283.179688 652.660156 282.890625 651.195312 C 282.597656 649.730469 282.378906 648.257812 282.230469 646.773438 C 282.085938 645.285156 282.011719 643.796875 282.011719 642.304688 C 282.011719 640.8125 282.085938 639.324219 282.230469 637.835938 C 282.375 636.351562 282.59375 634.875 282.886719 633.414062 C 283.175781 631.949219 283.539062 630.503906 283.972656 629.074219 C 284.40625 627.644531 284.90625 626.242188 285.476562 624.863281 C 286.046875 623.484375 286.6875 622.136719 287.390625 620.820312 C 288.09375 619.503906 288.859375 618.222656 289.6875 616.980469 C 290.515625 615.742188 291.40625 614.542969 292.351562 613.390625 C 293.296875 612.234375 294.296875 611.128906 295.355469 610.074219 C 296.410156 609.019531 297.511719 608.015625 298.667969 607.070312 C 299.820312 606.121094 301.019531 605.234375 302.257812 604.402344 C 303.5 603.574219 304.777344 602.808594 306.09375 602.101562 C 307.410156 601.398438 308.757812 600.761719 310.136719 600.191406 C 311.515625 599.617188 312.917969 599.117188 314.347656 598.679688 C 315.777344 598.246094 317.222656 597.886719 318.6875 597.59375 C 320.148438 597.300781 321.625 597.082031 323.109375 596.9375 C 324.59375 596.789062 326.085938 596.714844 327.578125 596.714844 C 329.070312 596.714844 330.558594 596.785156 332.042969 596.933594 C 333.53125 597.078125 335.003906 597.296875 336.46875 597.585938 C 337.933594 597.878906 339.378906 598.238281 340.808594 598.671875 C 342.238281 599.105469 343.640625 599.605469 345.019531 600.175781 C 346.398438 600.746094 347.746094 601.382812 349.0625 602.085938 C 350.378906 602.789062 351.660156 603.554688 352.902344 604.386719 C 354.144531 605.214844 355.339844 606.101562 356.496094 607.046875 C 357.648438 607.996094 358.753906 608.996094 359.808594 610.050781 C 360.867188 611.105469 361.867188 612.210938 362.816406 613.363281 C 363.761719 614.515625 364.652344 615.714844 365.480469 616.953125 C 366.3125 618.195312 367.078125 619.472656 367.78125 620.789062 C 368.488281 622.105469 369.125 623.453125 369.699219 624.832031 C 370.269531 626.210938 370.773438 627.613281 371.207031 629.042969 C 371.640625 630.46875 372.003906 631.917969 372.296875 633.378906 C 372.585938 634.84375 372.808594 636.320312 372.953125 637.804688 C 373.101562 639.289062 373.175781 640.777344 373.175781 642.269531 C 373.175781 643.765625 373.101562 645.253906 372.953125 646.738281 C 372.808594 648.226562 372.585938 649.699219 372.296875 651.164062 C 372.003906 652.628906 371.640625 654.074219 371.207031 655.503906 C 370.773438 656.929688 370.269531 658.335938 369.699219 659.714844 C 369.128906 661.09375 368.492188 662.441406 367.785156 663.757812 C 367.082031 665.074219 366.316406 666.355469 365.488281 667.59375 C 364.65625 668.835938 363.769531 670.035156 362.824219 671.1875 C 361.875 672.34375 360.875 673.449219 359.820312 674.503906 C 358.765625 675.558594 357.660156 676.5625 356.503906 677.507812 C 355.351562 678.457031 354.15625 679.347656 352.914062 680.175781 C 351.671875 681.003906 350.394531 681.773438 349.078125 682.476562 C 347.761719 683.183594 346.414062 683.820312 345.035156 684.394531 C 343.65625 684.964844 342.253906 685.46875 340.824219 685.902344 C 339.394531 686.335938 337.949219 686.699219 336.484375 686.992188 C 335.023438 687.285156 333.546875 687.507812 332.0625 687.652344 C 330.574219 687.800781 329.085938 687.875 327.59375 687.878906 Z M 327.59375 687.878906 " fill-opacity="1" fill-rule="evenodd"/><path fill="#76984b" d="M 576.457031 553.003906 C 574.996094 553.007812 573.535156 553.042969 572.078125 553.113281 C 570.617188 553.183594 569.160156 553.292969 567.707031 553.4375 C 566.25 553.578125 564.800781 553.757812 563.355469 553.972656 C 561.910156 554.1875 560.472656 554.4375 559.039062 554.722656 C 557.605469 555.007812 556.179688 555.328125 554.761719 555.683594 C 553.34375 556.039062 551.9375 556.425781 550.539062 556.851562 C 549.140625 557.273438 547.75 557.734375 546.375 558.226562 C 545 558.71875 543.636719 559.246094 542.285156 559.804688 C 540.9375 560.363281 539.601562 560.953125 538.28125 561.578125 C 536.957031 562.203125 535.652344 562.863281 534.363281 563.550781 C 533.074219 564.238281 531.804688 564.960938 530.550781 565.710938 C 529.296875 566.460938 528.0625 567.242188 526.847656 568.054688 C 525.632812 568.867188 524.4375 569.707031 523.265625 570.578125 C 522.089844 571.449219 520.941406 572.347656 519.808594 573.277344 C 518.679688 574.203125 517.574219 575.15625 516.492188 576.140625 C 515.410156 577.121094 514.351562 578.128906 513.316406 579.160156 C 512.285156 580.195312 511.277344 581.253906 510.296875 582.335938 C 509.3125 583.417969 508.359375 584.523438 507.433594 585.65625 C 506.503906 586.785156 505.605469 587.9375 504.738281 589.109375 C 503.867188 590.285156 503.023438 591.476562 502.214844 592.695312 C 501.402344 593.910156 500.621094 595.144531 499.867188 596.398438 C 499.117188 597.648438 498.398438 598.921875 497.707031 600.210938 C 497.019531 601.5 496.363281 602.804688 495.738281 604.125 C 495.113281 605.445312 494.519531 606.78125 493.960938 608.132812 C 493.402344 609.480469 492.878906 610.84375 492.386719 612.222656 C 491.894531 613.597656 491.433594 614.984375 491.011719 616.382812 C 490.585938 617.78125 490.195312 619.191406 489.84375 620.605469 C 489.488281 622.023438 489.167969 623.449219 488.882812 624.882812 C 488.597656 626.316406 488.347656 627.757812 488.132812 629.203125 C 487.917969 630.648438 487.738281 632.097656 487.597656 633.550781 C 487.453125 635.007812 487.347656 636.464844 487.273438 637.921875 C 487.203125 639.382812 487.167969 640.84375 487.167969 642.304688 C 487.167969 643.765625 487.203125 645.226562 487.277344 646.6875 C 487.347656 648.144531 487.457031 649.601562 487.597656 651.058594 C 487.742188 652.511719 487.921875 653.960938 488.136719 655.40625 C 488.351562 656.851562 488.601562 658.292969 488.886719 659.726562 C 489.171875 661.160156 489.492188 662.582031 489.847656 664 C 490.203125 665.417969 490.589844 666.828125 491.015625 668.226562 C 491.441406 669.625 491.898438 671.011719 492.390625 672.386719 C 492.882812 673.761719 493.410156 675.125 493.96875 676.476562 C 494.527344 677.824219 495.121094 679.160156 495.746094 680.484375 C 496.371094 681.804688 497.027344 683.109375 497.714844 684.398438 C 498.40625 685.6875 499.125 686.957031 499.878906 688.210938 C 500.628906 689.464844 501.410156 690.699219 502.222656 691.914062 C 503.035156 693.128906 503.875 694.324219 504.746094 695.496094 C 505.617188 696.667969 506.515625 697.820312 507.445312 698.949219 C 508.371094 700.082031 509.324219 701.1875 510.304688 702.269531 C 511.289062 703.351562 512.296875 704.410156 513.328125 705.441406 C 514.363281 706.476562 515.421875 707.484375 516.503906 708.464844 C 517.585938 709.445312 518.691406 710.398438 519.824219 711.328125 C 520.953125 712.253906 522.105469 713.152344 523.277344 714.023438 C 524.453125 714.894531 525.648438 715.734375 526.863281 716.546875 C 528.078125 717.359375 529.3125 718.140625 530.566406 718.890625 C 531.820312 719.640625 533.089844 720.363281 534.378906 721.050781 C 535.667969 721.738281 536.972656 722.394531 538.292969 723.019531 C 539.617188 723.644531 540.953125 724.238281 542.300781 724.796875 C 543.652344 725.355469 545.015625 725.878906 546.390625 726.371094 C 547.765625 726.863281 549.15625 727.324219 550.554688 727.746094 C 551.953125 728.171875 553.359375 728.558594 554.777344 728.914062 C 556.195312 729.269531 557.621094 729.589844 559.054688 729.875 C 560.488281 730.160156 561.925781 730.410156 563.371094 730.621094 C 564.816406 730.835938 566.269531 731.015625 567.722656 731.160156 C 569.175781 731.300781 570.632812 731.410156 572.09375 731.480469 C 573.554688 731.550781 575.011719 731.585938 576.476562 731.585938 C 577.9375 731.585938 579.398438 731.550781 580.855469 731.480469 C 582.316406 731.40625 583.773438 731.296875 585.226562 731.15625 C 586.683594 731.011719 588.132812 730.832031 589.578125 730.617188 C 591.023438 730.402344 592.460938 730.152344 593.894531 729.867188 C 595.328125 729.582031 596.753906 729.261719 598.171875 728.90625 C 599.589844 728.550781 600.996094 728.160156 602.394531 727.738281 C 603.792969 727.3125 605.179688 726.855469 606.558594 726.359375 C 607.933594 725.867188 609.296875 725.34375 610.644531 724.78125 C 611.996094 724.222656 613.332031 723.632812 614.652344 723.007812 C 615.972656 722.378906 617.277344 721.722656 618.566406 721.035156 C 619.855469 720.34375 621.125 719.625 622.378906 718.875 C 623.632812 718.121094 624.867188 717.339844 626.082031 716.527344 C 627.296875 715.714844 628.492188 714.875 629.664062 714.003906 C 630.839844 713.132812 631.988281 712.234375 633.121094 711.304688 C 634.25 710.378906 635.355469 709.425781 636.4375 708.441406 C 637.519531 707.460938 638.578125 706.453125 639.609375 705.417969 C 640.644531 704.386719 641.652344 703.328125 642.632812 702.246094 C 643.613281 701.160156 644.566406 700.054688 645.496094 698.925781 C 646.421875 697.796875 647.320312 696.644531 648.191406 695.46875 C 649.058594 694.296875 649.902344 693.101562 650.710938 691.886719 C 651.523438 690.671875 652.304688 689.4375 653.058594 688.183594 C 653.808594 686.929688 654.527344 685.65625 655.214844 684.367188 C 655.90625 683.078125 656.5625 681.773438 657.1875 680.453125 C 657.808594 679.132812 658.402344 677.796875 658.960938 676.445312 C 659.519531 675.09375 660.046875 673.730469 660.539062 672.355469 C 661.027344 670.980469 661.488281 669.59375 661.910156 668.195312 C 662.335938 666.796875 662.722656 665.386719 663.078125 663.96875 C 663.433594 662.550781 663.753906 661.125 664.039062 659.691406 C 664.324219 658.257812 664.570312 656.820312 664.785156 655.375 C 665 653.929688 665.179688 652.476562 665.320312 651.023438 C 665.464844 649.570312 665.570312 648.113281 665.640625 646.652344 C 665.714844 645.191406 665.75 643.734375 665.75 642.269531 C 665.75 640.808594 665.710938 639.351562 665.640625 637.890625 C 665.566406 636.433594 665.457031 634.976562 665.316406 633.523438 C 665.171875 632.066406 664.992188 630.617188 664.777344 629.171875 C 664.5625 627.730469 664.308594 626.289062 664.023438 624.855469 C 663.738281 623.425781 663.417969 622 663.0625 620.582031 C 662.707031 619.164062 662.316406 617.757812 661.894531 616.359375 C 661.46875 614.960938 661.007812 613.574219 660.515625 612.199219 C 660.023438 610.824219 659.496094 609.460938 658.9375 608.113281 C 658.378906 606.761719 657.785156 605.429688 657.160156 604.109375 C 656.535156 602.789062 655.878906 601.484375 655.191406 600.195312 C 654.5 598.90625 653.78125 597.636719 653.03125 596.382812 C 652.277344 595.128906 651.496094 593.898438 650.683594 592.683594 C 649.871094 591.46875 649.03125 590.273438 648.160156 589.101562 C 647.289062 587.925781 646.390625 586.777344 645.464844 585.648438 C 644.539062 584.519531 643.582031 583.410156 642.601562 582.328125 C 641.621094 581.246094 640.613281 580.191406 639.582031 579.15625 C 638.546875 578.125 637.488281 577.117188 636.40625 576.136719 C 635.324219 575.15625 634.21875 574.203125 633.089844 573.273438 C 631.960938 572.347656 630.808594 571.449219 629.632812 570.578125 C 628.460938 569.707031 627.265625 568.867188 626.050781 568.054688 C 624.835938 567.246094 623.601562 566.464844 622.351562 565.710938 C 621.097656 564.960938 619.828125 564.242188 618.539062 563.554688 C 617.25 562.863281 615.945312 562.207031 614.625 561.582031 C 613.304688 560.957031 611.96875 560.367188 610.617188 559.808594 C 609.269531 559.246094 607.90625 558.722656 606.53125 558.230469 C 605.15625 557.738281 603.769531 557.277344 602.371094 556.855469 C 600.972656 556.429688 599.566406 556.039062 598.148438 555.6875 C 596.730469 555.332031 595.304688 555.011719 593.875 554.726562 C 592.441406 554.441406 591 554.191406 589.554688 553.976562 C 588.113281 553.761719 586.660156 553.582031 585.207031 553.4375 C 583.753906 553.292969 582.296875 553.1875 580.839844 553.113281 C 579.378906 553.042969 577.917969 553.007812 576.457031 553.003906 Z M 576.457031 687.878906 C 574.964844 687.878906 573.476562 687.804688 571.992188 687.660156 C 570.503906 687.511719 569.03125 687.292969 567.566406 687.003906 C 566.101562 686.710938 564.65625 686.347656 563.226562 685.914062 C 561.800781 685.484375 560.394531 684.980469 559.015625 684.410156 C 557.636719 683.839844 556.289062 683.199219 554.972656 682.496094 C 553.65625 681.792969 552.378906 681.027344 551.136719 680.199219 C 549.894531 679.367188 548.699219 678.480469 547.542969 677.535156 C 546.390625 676.585938 545.285156 675.585938 544.230469 674.53125 C 543.175781 673.476562 542.171875 672.371094 541.226562 671.21875 C 540.277344 670.0625 539.390625 668.867188 538.5625 667.625 C 537.730469 666.382812 536.964844 665.105469 536.261719 663.789062 C 535.558594 662.472656 534.921875 661.125 534.347656 659.746094 C 533.777344 658.367188 533.273438 656.964844 532.839844 655.535156 C 532.40625 654.105469 532.046875 652.660156 531.753906 651.195312 C 531.460938 649.730469 531.242188 648.257812 531.097656 646.773438 C 530.949219 645.285156 530.875 643.796875 530.875 642.304688 C 530.875 640.8125 530.949219 639.324219 531.09375 637.835938 C 531.242188 636.351562 531.460938 634.878906 531.75 633.414062 C 532.042969 631.949219 532.402344 630.503906 532.835938 629.074219 C 533.269531 627.644531 533.769531 626.242188 534.34375 624.863281 C 534.914062 623.484375 535.550781 622.136719 536.253906 620.820312 C 536.957031 619.503906 537.722656 618.222656 538.550781 616.980469 C 539.382812 615.742188 540.269531 614.542969 541.214844 613.390625 C 542.164062 612.234375 543.164062 611.128906 544.21875 610.074219 C 545.273438 609.019531 546.378906 608.015625 547.53125 607.070312 C 548.683594 606.121094 549.882812 605.234375 551.125 604.402344 C 552.363281 603.574219 553.644531 602.808594 554.957031 602.101562 C 556.273438 601.398438 557.621094 600.761719 559 600.191406 C 560.378906 599.617188 561.785156 599.117188 563.210938 598.679688 C 564.640625 598.246094 566.085938 597.886719 567.550781 597.59375 C 569.015625 597.300781 570.488281 597.082031 571.976562 596.9375 C 573.460938 596.789062 574.949219 596.714844 576.441406 596.714844 C 577.933594 596.714844 579.421875 596.785156 580.910156 596.933594 C 582.394531 597.078125 583.871094 597.296875 585.332031 597.585938 C 586.796875 597.878906 588.242188 598.238281 589.671875 598.671875 C 591.101562 599.105469 592.503906 599.605469 593.882812 600.175781 C 595.265625 600.746094 596.613281 601.382812 597.929688 602.085938 C 599.246094 602.789062 600.523438 603.558594 601.765625 604.386719 C 603.007812 605.214844 604.207031 606.101562 605.359375 607.046875 C 606.515625 607.996094 607.617188 608.996094 608.675781 610.050781 C 609.730469 611.105469 610.734375 612.210938 611.679688 613.363281 C 612.628906 614.515625 613.515625 615.714844 614.347656 616.953125 C 615.175781 618.195312 615.941406 619.472656 616.648438 620.789062 C 617.351562 622.105469 617.988281 623.453125 618.5625 624.832031 C 619.132812 626.210938 619.636719 627.613281 620.070312 629.042969 C 620.503906 630.46875 620.867188 631.917969 621.160156 633.378906 C 621.453125 634.84375 621.671875 636.320312 621.820312 637.804688 C 621.964844 639.289062 622.039062 640.777344 622.039062 642.269531 C 622.039062 643.765625 621.964844 645.253906 621.820312 646.738281 C 621.671875 648.226562 621.453125 649.699219 621.160156 651.164062 C 620.867188 652.628906 620.507812 654.074219 620.070312 655.503906 C 619.636719 656.929688 619.136719 658.335938 618.5625 659.714844 C 617.992188 661.09375 617.355469 662.441406 616.652344 663.757812 C 615.949219 665.074219 615.179688 666.355469 614.351562 667.59375 C 613.523438 668.835938 612.632812 670.035156 611.6875 671.1875 C 610.742188 672.34375 609.738281 673.449219 608.683594 674.503906 C 607.628906 675.558594 606.523438 676.5625 605.371094 677.507812 C 604.214844 678.457031 603.019531 679.347656 601.777344 680.175781 C 600.539062 681.003906 599.257812 681.773438 597.941406 682.476562 C 596.625 683.183594 595.277344 683.820312 593.898438 684.394531 C 592.519531 684.964844 591.117188 685.46875 589.6875 685.902344 C 588.261719 686.335938 586.816406 686.699219 585.351562 686.992188 C 583.886719 687.285156 582.410156 687.507812 580.925781 687.652344 C 579.441406 687.800781 577.953125 687.875 576.457031 687.878906 Z M 576.457031 687.878906 " fill-opacity="1" fill-rule="evenodd"/></svg>