<svg xmlns="http://www.w3.org/2000/svg" xmlns:xlink="http://www.w3.org/1999/xlink" width="40" zoomAndPan="magnify" viewBox="0 0 30 30.000001" height="40" preserveAspectRatio="xMidYMid meet" version="1.0"><defs><clipPath id="92b6a55023"><path d="M 3.714844 3.230469 L 26.214844 3.230469 L 26.214844 25.730469 L 3.714844 25.730469 Z M 3.714844 3.230469 " clip-rule="nonzero"/></clipPath></defs><g clip-path="url(#92b6a55023)"><path fill="#76984b" d="M 21.71875 10.277344 L 21.410156 10.585938 L 18.929688 8.105469 L 19.238281 7.796875 C 19.546875 7.488281 20.046875 7.488281 20.351562 7.796875 L 21.71875 9.164062 C 22.027344 9.46875 22.027344 9.96875 21.71875 10.277344 Z M 12.246094 19.75 L 9.765625 17.269531 L 18.679688 8.355469 L 21.160156 10.835938 Z M 8.132812 21.382812 L 9.421875 17.613281 L 11.902344 20.09375 Z M 15 3.230469 C 8.765625 3.230469 3.714844 8.285156 3.714844 14.515625 C 3.714844 20.75 8.765625 25.800781 15 25.800781 C 21.230469 25.800781 26.285156 20.75 26.285156 14.515625 C 26.285156 8.285156 21.230469 3.230469 15 3.230469 " fill-opacity="1" fill-rule="nonzero"/></g></svg>