<svg xmlns="http://www.w3.org/2000/svg" xmlns:xlink="http://www.w3.org/1999/xlink" width="40" zoomAndPan="magnify" viewBox="0 0 30 30.000001" height="40" preserveAspectRatio="xMidYMid meet" version="1.0"><defs><clipPath id="217cfd2aed"><path d="M 9.679688 7.429688 L 13.308594 7.429688 L 13.308594 11.058594 L 9.679688 11.058594 Z M 9.679688 7.429688 " clip-rule="nonzero"/></clipPath><clipPath id="dc28abbda3"><path d="M 8.953125 9.308594 C 8.953125 10.746094 10.121094 11.910156 11.558594 11.910156 C 12.996094 11.910156 14.164062 10.746094 14.164062 9.308594 C 14.164062 7.871094 12.996094 6.703125 11.558594 6.703125 C 10.121094 6.703125 8.953125 7.871094 8.953125 9.308594 Z M 8.953125 9.308594 " clip-rule="nonzero"/></clipPath><clipPath id="105dc12c0e"><path d="M 11.558594 7.574219 C 12.515625 7.574219 13.292969 8.351562 13.292969 9.308594 C 13.292969 10.265625 12.515625 11.039062 11.558594 11.039062 C 10.601562 11.039062 9.824219 10.265625 9.824219 9.308594 C 9.824219 8.351562 10.601562 7.574219 11.558594 7.574219 Z M 11.558594 7.574219 " clip-rule="nonzero"/></clipPath><clipPath id="500d1bf974"><path d="M 8.953125 6.703125 L 14.035156 6.703125 L 14.035156 11.785156 L 8.953125 11.785156 Z M 8.953125 6.703125 " clip-rule="nonzero"/></clipPath><clipPath id="019b2da28a"><path d="M 8.953125 9.308594 C 8.953125 10.746094 10.121094 11.910156 11.558594 11.910156 C 12.996094 11.910156 14.164062 10.746094 14.164062 9.308594 C 14.164062 7.871094 12.996094 6.703125 11.558594 6.703125 C 10.121094 6.703125 8.953125 7.871094 8.953125 9.308594 Z M 8.953125 9.308594 " clip-rule="nonzero"/></clipPath><clipPath id="abe24a060b"><path d="M 8.953125 9.304688 C 8.953125 10.742188 10.121094 11.910156 11.558594 11.910156 C 12.996094 11.910156 14.160156 10.742188 14.160156 9.304688 C 14.160156 7.867188 12.996094 6.703125 11.558594 6.703125 C 10.121094 6.703125 8.953125 7.867188 8.953125 9.304688 Z M 8.953125 9.304688 " clip-rule="nonzero"/></clipPath><clipPath id="85fae15393"><path d="M 18 12.636719 L 21.492188 12.636719 L 21.492188 16.265625 L 18 16.265625 Z M 18 12.636719 " clip-rule="nonzero"/></clipPath><clipPath id="9f3edb7cea"><path d="M 17.140625 14.515625 C 17.140625 15.953125 18.304688 17.121094 19.742188 17.121094 C 21.179688 17.121094 22.347656 15.953125 22.347656 14.515625 C 22.347656 13.078125 21.179688 11.910156 19.742188 11.910156 C 18.304688 11.910156 17.140625 13.078125 17.140625 14.515625 Z M 17.140625 14.515625 " clip-rule="nonzero"/></clipPath><clipPath id="923b1e2ad4"><path d="M 19.742188 12.78125 C 20.699219 12.78125 21.476562 13.558594 21.476562 14.515625 C 21.476562 15.472656 20.699219 16.25 19.742188 16.25 C 18.785156 16.25 18.011719 15.472656 18.011719 14.515625 C 18.011719 13.558594 18.785156 12.78125 19.742188 12.78125 Z M 19.742188 12.78125 " clip-rule="nonzero"/></clipPath><clipPath id="cb5bc6d9c3"><path d="M 17.140625 11.910156 L 22.21875 11.910156 L 22.21875 16.992188 L 17.140625 16.992188 Z M 17.140625 11.910156 " clip-rule="nonzero"/></clipPath><clipPath id="97f784c54b"><path d="M 17.140625 14.515625 C 17.140625 15.953125 18.304688 17.121094 19.742188 17.121094 C 21.179688 17.121094 22.347656 15.953125 22.347656 14.515625 C 22.347656 13.078125 21.179688 11.910156 19.742188 11.910156 C 18.304688 11.910156 17.140625 13.078125 17.140625 14.515625 Z M 17.140625 14.515625 " clip-rule="nonzero"/></clipPath><clipPath id="52384a31ed"><path d="M 17.140625 14.515625 C 17.140625 15.953125 18.304688 17.117188 19.742188 17.117188 C 21.179688 17.117188 22.34375 15.953125 22.34375 14.515625 C 22.34375 13.078125 21.179688 11.910156 19.742188 11.910156 C 18.304688 11.910156 17.140625 13.078125 17.140625 14.515625 Z M 17.140625 14.515625 " clip-rule="nonzero"/></clipPath><clipPath id="5ad8c82d71"><path d="M 9.679688 17.847656 L 13.308594 17.847656 L 13.308594 21.476562 L 9.679688 21.476562 Z M 9.679688 17.847656 " clip-rule="nonzero"/></clipPath><clipPath id="2e5f6a411c"><path d="M 8.953125 19.722656 C 8.953125 21.164062 10.121094 22.328125 11.558594 22.328125 C 12.996094 22.328125 14.164062 21.164062 14.164062 19.722656 C 14.164062 18.285156 12.996094 17.121094 11.558594 17.121094 C 10.121094 17.121094 8.953125 18.285156 8.953125 19.722656 Z M 8.953125 19.722656 " clip-rule="nonzero"/></clipPath><clipPath id="4e35cb4ddd"><path d="M 11.558594 17.992188 C 12.515625 17.992188 13.292969 18.765625 13.292969 19.722656 C 13.292969 20.683594 12.515625 21.457031 11.558594 21.457031 C 10.601562 21.457031 9.824219 20.683594 9.824219 19.722656 C 9.824219 18.765625 10.601562 17.992188 11.558594 17.992188 Z M 11.558594 17.992188 " clip-rule="nonzero"/></clipPath><clipPath id="491b479c50"><path d="M 8.953125 17.121094 L 14.035156 17.121094 L 14.035156 22.199219 L 8.953125 22.199219 Z M 8.953125 17.121094 " clip-rule="nonzero"/></clipPath><clipPath id="e013c49602"><path d="M 8.953125 19.722656 C 8.953125 21.164062 10.121094 22.328125 11.558594 22.328125 C 12.996094 22.328125 14.164062 21.164062 14.164062 19.722656 C 14.164062 18.285156 12.996094 17.121094 11.558594 17.121094 C 10.121094 17.121094 8.953125 18.285156 8.953125 19.722656 Z M 8.953125 19.722656 " clip-rule="nonzero"/></clipPath><clipPath id="4c3079bbbf"><path d="M 8.953125 19.722656 C 8.953125 21.160156 10.121094 22.324219 11.558594 22.324219 C 12.996094 22.324219 14.160156 21.160156 14.160156 19.722656 C 14.160156 18.285156 12.996094 17.121094 11.558594 17.121094 C 10.121094 17.121094 8.953125 18.285156 8.953125 19.722656 Z M 8.953125 19.722656 " clip-rule="nonzero"/></clipPath></defs><path stroke-linecap="butt" transform="matrix(0.725806, 0, 0, 0.725806, 13.976932, 8.944887)" fill="none" stroke-linejoin="miter" d="M -0.000509263 0.501107 L 16.403658 0.501107 " stroke="#000000" stroke-width="1" stroke-opacity="1" stroke-miterlimit="4"/><g clip-path="url(#217cfd2aed)"><g clip-path="url(#dc28abbda3)"><g clip-path="url(#105dc12c0e)"><path fill="#212121" d="M 11.476562 6.6875 C 12.179688 6.6875 12.8125 6.96875 13.273438 7.429688 C 13.734375 7.890625 14.015625 8.523438 14.015625 9.226562 C 14.015625 9.925781 13.734375 10.5625 13.273438 11.023438 C 12.8125 11.480469 12.179688 11.765625 11.476562 11.765625 C 10.777344 11.765625 10.140625 11.480469 9.679688 11.023438 C 9.222656 10.5625 8.9375 9.925781 8.9375 9.226562 C 8.9375 8.523438 9.222656 7.890625 9.679688 7.429688 C 10.140625 6.96875 10.777344 6.6875 11.476562 6.6875 Z M 13.074219 7.628906 C 12.664062 7.222656 12.101562 6.96875 11.476562 6.96875 C 10.851562 6.96875 10.289062 7.222656 9.878906 7.628906 C 9.472656 8.039062 9.21875 8.601562 9.21875 9.226562 C 9.21875 9.847656 9.472656 10.414062 9.878906 10.824219 C 10.289062 11.230469 10.851562 11.484375 11.476562 11.484375 C 12.101562 11.484375 12.664062 11.230469 13.074219 10.824219 C 13.480469 10.414062 13.734375 9.847656 13.734375 9.226562 C 13.734375 8.601562 13.480469 8.039062 13.074219 7.628906 " fill-opacity="1" fill-rule="nonzero"/></g></g></g><g clip-path="url(#500d1bf974)"><g clip-path="url(#019b2da28a)"><g clip-path="url(#abe24a060b)"><path stroke-linecap="butt" transform="matrix(0.725806, 0, 0, 0.725806, 8.954603, 6.70362)" fill="none" stroke-linejoin="miter" d="M -0.00203644 3.583693 C -0.00203644 5.564249 1.607165 7.17345 3.587721 7.17345 C 5.568276 7.17345 7.172096 5.564249 7.172096 3.583693 C 7.172096 1.603138 5.568276 -0.000681603 3.587721 -0.000681603 C 1.607165 -0.000681603 -0.00203644 1.603138 -0.00203644 3.583693 Z M -0.00203644 3.583693 " stroke="#000000" stroke-width="2" stroke-opacity="1" stroke-miterlimit="4"/></g></g></g><path stroke-linecap="butt" transform="matrix(0.725806, 0, 0, 0.725806, 4.118287, 8.944887)" fill="none" stroke-linejoin="miter" d="M -0.00151504 0.501107 L 6.661332 0.501107 " stroke="#000000" stroke-width="1" stroke-opacity="1" stroke-miterlimit="4"/><path stroke-linecap="butt" transform="matrix(0.725806, 0.00000000000000053, -0.00000000000000053, 0.725806, 22.34748, 14.153228)" fill="none" stroke-linejoin="miter" d="M 0.000242578 0.499303 L 4.870902 0.499303 " stroke="#000000" stroke-width="1" stroke-opacity="1" stroke-miterlimit="4"/><g clip-path="url(#85fae15393)"><g clip-path="url(#9f3edb7cea)"><g clip-path="url(#923b1e2ad4)"><path fill="#212121" d="M 19.660156 11.894531 C 20.363281 11.894531 20.996094 12.179688 21.457031 12.636719 C 21.917969 13.097656 22.203125 13.734375 22.203125 14.433594 C 22.203125 15.136719 21.917969 15.769531 21.457031 16.230469 C 20.996094 16.691406 20.363281 16.972656 19.660156 16.972656 C 18.960938 16.972656 18.324219 16.691406 17.867188 16.230469 C 17.40625 15.769531 17.121094 15.136719 17.121094 14.433594 C 17.121094 13.734375 17.40625 13.097656 17.867188 12.636719 C 18.324219 12.179688 18.960938 11.894531 19.660156 11.894531 Z M 21.257812 12.835938 C 20.847656 12.429688 20.285156 12.175781 19.660156 12.175781 C 19.039062 12.175781 18.472656 12.429688 18.066406 12.835938 C 17.65625 13.246094 17.402344 13.8125 17.402344 14.433594 C 17.402344 15.058594 17.65625 15.621094 18.066406 16.03125 C 18.472656 16.441406 19.039062 16.691406 19.660156 16.691406 C 20.285156 16.691406 20.847656 16.441406 21.257812 16.03125 C 21.667969 15.621094 21.917969 15.058594 21.917969 14.433594 C 21.917969 13.8125 21.667969 13.246094 21.257812 12.835938 " fill-opacity="1" fill-rule="nonzero"/></g></g></g><g clip-path="url(#cb5bc6d9c3)"><g clip-path="url(#97f784c54b)"><g clip-path="url(#52384a31ed)"><path stroke-linecap="butt" transform="matrix(0.725806, 0, 0, 0.725806, 17.13914, 11.91196)" fill="none" stroke-linejoin="miter" d="M 0.00204561 3.587272 C 0.00204561 5.567827 1.605865 7.171647 3.586421 7.171647 C 5.566976 7.171647 7.170796 5.567827 7.170796 3.587272 C 7.170796 1.606716 5.566976 -0.00248528 3.586421 -0.00248528 C 1.605865 -0.00248528 0.00204561 1.606716 0.00204561 3.587272 Z M 0.00204561 3.587272 " stroke="#000000" stroke-width="2" stroke-opacity="1" stroke-miterlimit="4"/></g></g></g><path stroke-linecap="butt" transform="matrix(0.725806, -0.00000000000000018, 0.00000000000000018, 0.725806, 4.118287, 14.153228)" fill="none" stroke-linejoin="miter" d="M -0.00151504 0.499303 L 17.941888 0.499303 " stroke="#000000" stroke-width="1" stroke-opacity="1" stroke-miterlimit="4"/><path stroke-linecap="butt" transform="matrix(0.725806, 0, 0, 0.725806, 13.976932, 19.361568)" fill="none" stroke-linejoin="miter" d="M -0.000509263 0.4975 L 16.403658 0.4975 " stroke="#000000" stroke-width="1" stroke-opacity="1" stroke-miterlimit="4"/><g clip-path="url(#5ad8c82d71)"><g clip-path="url(#2e5f6a411c)"><g clip-path="url(#4e35cb4ddd)"><path fill="#212121" d="M 11.476562 17.101562 C 12.179688 17.101562 12.8125 17.386719 13.273438 17.847656 C 13.734375 18.304688 14.015625 18.941406 14.015625 19.644531 C 14.015625 20.34375 13.734375 20.980469 13.273438 21.4375 C 12.8125 21.898438 12.179688 22.183594 11.476562 22.183594 C 10.777344 22.183594 10.140625 21.898438 9.679688 21.4375 C 9.222656 20.980469 8.9375 20.34375 8.9375 19.644531 C 8.9375 18.941406 9.222656 18.304688 9.679688 17.847656 C 10.140625 17.386719 10.777344 17.101562 11.476562 17.101562 Z M 13.074219 18.046875 C 12.664062 17.636719 12.101562 17.382812 11.476562 17.382812 C 10.851562 17.382812 10.289062 17.636719 9.878906 18.046875 C 9.472656 18.453125 9.21875 19.019531 9.21875 19.644531 C 9.21875 20.265625 9.472656 20.832031 9.878906 21.238281 C 10.289062 21.648438 10.851562 21.902344 11.476562 21.902344 C 12.101562 21.902344 12.664062 21.648438 13.074219 21.238281 C 13.480469 20.832031 13.734375 20.265625 13.734375 19.644531 C 13.734375 19.019531 13.480469 18.453125 13.074219 18.046875 " fill-opacity="1" fill-rule="nonzero"/></g></g></g><g clip-path="url(#491b479c50)"><g clip-path="url(#e013c49602)"><g clip-path="url(#4c3079bbbf)"><path stroke-linecap="butt" transform="matrix(0.725806, 0, 0, 0.725806, 8.954603, 17.120302)" fill="none" stroke-linejoin="miter" d="M -0.00203644 3.585466 C -0.00203644 5.566022 1.607165 7.169841 3.587721 7.169841 C 5.568276 7.169841 7.172096 5.566022 7.172096 3.585466 C 7.172096 1.604911 5.568276 0.00109139 3.587721 0.00109139 C 1.607165 0.00109139 -0.00203644 1.604911 -0.00203644 3.585466 Z M -0.00203644 3.585466 " stroke="#000000" stroke-width="2" stroke-opacity="1" stroke-miterlimit="4"/></g></g></g><path stroke-linecap="butt" transform="matrix(0.725806, -0.00000000000000081, 0.00000000000000081, 0.725806, 4.118287, 19.361568)" fill="none" stroke-linejoin="miter" d="M -0.00151504 0.4975 L 6.661332 0.4975 " stroke="#000000" stroke-width="1" stroke-opacity="1" stroke-miterlimit="4"/></svg>