<svg xmlns="http://www.w3.org/2000/svg" xmlns:xlink="http://www.w3.org/1999/xlink" width="40" zoomAndPan="magnify" viewBox="0 0 30 30.000001" height="40" preserveAspectRatio="xMidYMid meet" version="1.0"><defs><clipPath id="79a6b94485"><path d="M 9.589844 2.203125 L 20.40625 2.203125 L 20.40625 26.816406 L 9.589844 26.816406 Z M 9.589844 2.203125 " clip-rule="nonzero"/></clipPath></defs><g clip-path="url(#79a6b94485)"><path fill="#ffffff" d="M 20.039062 25.351562 L 9.960938 25.351562 L 9.960938 24.625 L 20.039062 24.625 Z M 20.039062 26.445312 L 9.960938 26.445312 L 9.960938 25.71875 L 20.039062 25.71875 Z M 9.960938 3.730469 L 12.9375 3.730469 L 12.9375 3.976562 L 12.117188 3.976562 C 12.015625 3.976562 11.929688 4.058594 11.929688 4.160156 C 11.929688 4.261719 12.015625 4.347656 12.117188 4.347656 L 12.9375 4.347656 L 12.9375 5.011719 L 12.117188 5.011719 C 12.015625 5.011719 11.929688 5.09375 11.929688 5.195312 C 11.929688 5.296875 12.015625 5.382812 12.117188 5.382812 L 12.9375 5.382812 L 12.9375 6.046875 L 12.117188 6.046875 C 12.015625 6.046875 11.929688 6.128906 11.929688 6.230469 C 11.929688 6.332031 12.015625 6.417969 12.117188 6.417969 L 12.9375 6.417969 L 12.9375 7.082031 L 12.117188 7.082031 C 12.015625 7.082031 11.929688 7.164062 11.929688 7.265625 C 11.929688 7.367188 12.015625 7.449219 12.117188 7.449219 L 12.9375 7.449219 L 12.9375 8.117188 L 10.875 8.117188 C 10.773438 8.117188 10.691406 8.199219 10.691406 8.300781 C 10.691406 8.402344 10.773438 8.488281 10.875 8.488281 L 12.9375 8.488281 L 12.9375 9.152344 L 12.117188 9.152344 C 12.015625 9.152344 11.929688 9.234375 11.929688 9.335938 C 11.929688 9.4375 12.015625 9.519531 12.117188 9.519531 L 12.9375 9.519531 L 12.9375 10.1875 L 12.117188 10.1875 C 12.015625 10.1875 11.929688 10.269531 11.929688 10.371094 C 11.929688 10.472656 12.015625 10.558594 12.117188 10.558594 L 12.9375 10.558594 L 12.9375 11.222656 L 12.117188 11.222656 C 12.015625 11.222656 11.929688 11.304688 11.929688 11.40625 C 11.929688 11.507812 12.015625 11.589844 12.117188 11.589844 L 12.9375 11.589844 L 12.9375 12.257812 L 12.117188 12.257812 C 12.015625 12.257812 11.929688 12.339844 11.929688 12.441406 C 11.929688 12.542969 12.015625 12.628906 12.117188 12.628906 L 12.9375 12.628906 L 12.9375 13.292969 L 10.875 13.292969 C 10.773438 13.292969 10.691406 13.375 10.691406 13.476562 C 10.691406 13.578125 10.773438 13.664062 10.875 13.664062 L 12.9375 13.664062 L 12.9375 14.328125 L 12.117188 14.328125 C 12.015625 14.328125 11.929688 14.410156 11.929688 14.511719 C 11.929688 14.613281 12.015625 14.699219 12.117188 14.699219 L 12.9375 14.699219 L 12.9375 15.363281 L 12.117188 15.363281 C 12.015625 15.363281 11.929688 15.445312 11.929688 15.546875 C 11.929688 15.648438 12.015625 15.734375 12.117188 15.734375 L 12.9375 15.734375 L 12.9375 16.398438 L 12.117188 16.398438 C 12.015625 16.398438 11.929688 16.480469 11.929688 16.582031 C 11.929688 16.683594 12.015625 16.769531 12.117188 16.769531 L 12.9375 16.769531 L 12.9375 17.433594 L 12.117188 17.433594 C 12.015625 17.433594 11.929688 17.515625 11.929688 17.617188 C 11.929688 17.722656 12.015625 17.804688 12.117188 17.804688 L 12.9375 17.804688 L 12.9375 18.46875 L 10.875 18.46875 C 10.773438 18.46875 10.691406 18.550781 10.691406 18.652344 C 10.691406 18.753906 10.773438 18.839844 10.875 18.839844 L 12.9375 18.839844 L 12.9375 19.503906 L 12.117188 19.503906 C 12.015625 19.503906 11.929688 19.585938 11.929688 19.6875 C 11.929688 19.789062 12.015625 19.875 12.117188 19.875 L 12.9375 19.875 L 12.9375 20.539062 L 12.117188 20.539062 C 12.015625 20.539062 11.929688 20.621094 11.929688 20.722656 C 11.929688 20.824219 12.015625 20.910156 12.117188 20.910156 L 12.9375 20.910156 L 12.9375 21.574219 L 12.117188 21.574219 C 12.015625 21.574219 11.929688 21.65625 11.929688 21.757812 C 11.929688 21.863281 12.015625 21.945312 12.117188 21.945312 L 12.9375 21.945312 L 12.9375 22.609375 L 12.117188 22.609375 C 12.015625 22.609375 11.929688 22.691406 11.929688 22.792969 C 11.929688 22.894531 12.015625 22.980469 12.117188 22.980469 L 12.9375 22.980469 L 12.9375 23.644531 L 10.875 23.644531 C 10.773438 23.644531 10.691406 23.726562 10.691406 23.828125 C 10.691406 23.929688 10.773438 24.015625 10.875 24.015625 L 12.9375 24.015625 L 12.9375 24.253906 L 9.960938 24.253906 Z M 9.960938 2.574219 L 15.859375 2.574219 L 15.859375 3.359375 L 9.960938 3.359375 Z M 20.222656 24.253906 L 13.304688 24.253906 L 13.304688 3.730469 L 16.042969 3.730469 C 16.144531 3.730469 16.230469 3.644531 16.230469 3.542969 L 16.230469 2.390625 C 16.230469 2.289062 16.144531 2.203125 16.042969 2.203125 L 9.773438 2.203125 C 9.671875 2.203125 9.589844 2.289062 9.589844 2.390625 L 9.589844 26.632812 C 9.589844 26.734375 9.671875 26.816406 9.773438 26.816406 L 20.222656 26.816406 C 20.324219 26.816406 20.40625 26.734375 20.40625 26.632812 L 20.40625 24.441406 C 20.40625 24.335938 20.324219 24.253906 20.222656 24.253906 " fill-opacity="1" fill-rule="nonzero"/></g><path fill="#ffffff" d="M 15.183594 5.15625 L 15.183594 22.824219 L 15.878906 21.730469 C 15.914062 21.679688 15.980469 21.664062 16.03125 21.699219 C 16.078125 21.730469 16.09375 21.796875 16.0625 21.847656 L 15.089844 23.375 C 15.070312 23.40625 15.035156 23.421875 15 23.421875 C 14.960938 23.421875 14.925781 23.40625 14.90625 23.375 L 13.933594 21.847656 C 13.925781 21.828125 13.917969 21.808594 13.917969 21.789062 C 13.917969 21.753906 13.9375 21.71875 13.96875 21.699219 C 14.019531 21.664062 14.085938 21.679688 14.117188 21.730469 L 14.8125 22.824219 L 14.8125 5.15625 L 14.117188 6.253906 C 14.085938 6.300781 14.019531 6.316406 13.96875 6.285156 C 13.9375 6.265625 13.917969 6.230469 13.917969 6.195312 C 13.917969 6.175781 13.925781 6.15625 13.933594 6.136719 L 14.90625 4.609375 C 14.925781 4.578125 14.960938 4.558594 15 4.558594 C 15.035156 4.558594 15.070312 4.578125 15.089844 4.609375 L 16.0625 6.136719 C 16.09375 6.1875 16.078125 6.253906 16.03125 6.285156 C 15.980469 6.316406 15.914062 6.300781 15.878906 6.253906 L 15.183594 5.15625 " fill-opacity="1" fill-rule="nonzero"/></svg>