<svg xmlns="http://www.w3.org/2000/svg" xmlns:xlink="http://www.w3.org/1999/xlink" width="40" zoomAndPan="magnify" viewBox="0 0 30 30.000001" height="40" preserveAspectRatio="xMidYMid meet" version="1.0"><defs><clipPath id="98d8f5e70c"><path d="M 3.386719 5 L 26.613281 5 L 26.613281 24.230469 L 3.386719 24.230469 Z M 3.386719 5 " clip-rule="nonzero"/></clipPath></defs><g clip-path="url(#98d8f5e70c)"><path fill="#bfbdbc" d="M 14.992188 24.390625 C 14.84375 24.386719 14.746094 24.304688 14.722656 24.285156 L 6.132812 15.695312 C 4.089844 13.84375 3.386719 11.023438 4.339844 8.683594 C 5.449219 5.953125 8.253906 5.242188 8.441406 5.195312 C 10.851562 4.632812 13.425781 5.683594 14.996094 7.820312 C 16.5625 5.683594 19.136719 4.632812 21.546875 5.195312 C 21.667969 5.226562 24.527344 5.921875 25.648438 8.683594 C 26.609375 11.042969 25.886719 13.859375 23.855469 15.695312 L 15.265625 24.285156 C 15.242188 24.304688 15.144531 24.390625 14.992188 24.390625 Z M 8.59375 5.851562 C 8.433594 5.886719 5.945312 6.515625 4.960938 8.933594 C 4.105469 11.035156 4.757812 13.554688 6.589844 15.199219 L 6.601562 15.214844 L 14.996094 23.605469 L 23.394531 15.207031 L 23.398438 15.199219 C 25.230469 13.554688 25.882812 11.035156 25.027344 8.933594 C 24.035156 6.492188 21.5 5.875 21.394531 5.851562 C 19.113281 5.316406 16.652344 6.417969 15.277344 8.59375 L 14.996094 9.039062 L 14.710938 8.59375 C 13.335938 6.40625 10.855469 5.320312 8.59375 5.851562 Z M 8.59375 5.851562 " fill-opacity="1" fill-rule="nonzero"/></g></svg>