<svg xmlns="http://www.w3.org/2000/svg" xmlns:xlink="http://www.w3.org/1999/xlink" width="40" zoomAndPan="magnify" viewBox="0 0 30 30.000001" height="40" preserveAspectRatio="xMidYMid meet" version="1.0"><defs><clipPath id="bbd5ecbe10"><path d="M 3.386719 3.628906 L 25.886719 3.628906 L 25.886719 26.128906 L 3.386719 26.128906 Z M 3.386719 3.628906 " clip-rule="nonzero"/></clipPath></defs><path fill="#ffffff" d="M 20.761719 8.640625 L 10.738281 8.640625 C 10.371094 8.640625 10.070312 8.941406 10.070312 9.308594 C 10.070312 9.679688 10.371094 9.976562 10.738281 9.976562 L 20.761719 9.976562 C 21.132812 9.976562 21.429688 9.679688 21.429688 9.308594 C 21.429688 8.941406 21.132812 8.640625 20.761719 8.640625 Z M 20.761719 8.640625 " fill-opacity="1" fill-rule="nonzero"/><path fill="#ffffff" d="M 8.042969 8.84375 C 7.910156 8.964844 7.839844 9.132812 7.839844 9.308594 C 7.839844 9.398438 7.863281 9.488281 7.898438 9.566406 C 7.929688 9.644531 7.976562 9.722656 8.042969 9.777344 C 8.164062 9.910156 8.332031 9.976562 8.511719 9.976562 C 8.691406 9.976562 8.855469 9.910156 8.988281 9.777344 C 9.042969 9.722656 9.089844 9.644531 9.132812 9.566406 C 9.15625 9.488281 9.179688 9.398438 9.179688 9.308594 C 9.179688 9.132812 9.113281 8.964844 8.988281 8.84375 C 8.734375 8.585938 8.277344 8.585938 8.042969 8.84375 Z M 8.042969 8.84375 " fill-opacity="1" fill-rule="nonzero"/><path fill="#ffffff" d="M 20.761719 14.210938 L 10.738281 14.210938 C 10.371094 14.210938 10.070312 14.511719 10.070312 14.878906 C 10.070312 15.246094 10.371094 15.546875 10.738281 15.546875 L 20.761719 15.546875 C 21.132812 15.546875 21.429688 15.246094 21.429688 14.878906 C 21.429688 14.511719 21.132812 14.210938 20.761719 14.210938 Z M 20.761719 14.210938 " fill-opacity="1" fill-rule="nonzero"/><path fill="#ffffff" d="M 8.042969 14.410156 C 7.910156 14.53125 7.839844 14.699219 7.839844 14.878906 C 7.839844 14.96875 7.863281 15.058594 7.898438 15.132812 C 7.929688 15.210938 7.976562 15.292969 8.042969 15.347656 C 8.164062 15.480469 8.332031 15.546875 8.511719 15.546875 C 8.691406 15.546875 8.855469 15.480469 8.988281 15.347656 C 9.042969 15.292969 9.089844 15.210938 9.132812 15.132812 C 9.15625 15.058594 9.179688 14.96875 9.179688 14.878906 C 9.179688 14.699219 9.113281 14.53125 8.988281 14.410156 C 8.734375 14.15625 8.277344 14.164062 8.042969 14.410156 Z M 8.042969 14.410156 " fill-opacity="1" fill-rule="nonzero"/><path fill="#ffffff" d="M 20.761719 19.78125 L 10.738281 19.78125 C 10.371094 19.78125 10.070312 20.078125 10.070312 20.449219 C 10.070312 20.816406 10.371094 21.117188 10.738281 21.117188 L 20.761719 21.117188 C 21.132812 21.117188 21.429688 20.816406 21.429688 20.449219 C 21.429688 20.078125 21.132812 19.78125 20.761719 19.78125 Z M 20.761719 19.78125 " fill-opacity="1" fill-rule="nonzero"/><path fill="#ffffff" d="M 8.042969 19.980469 C 7.910156 20.101562 7.839844 20.269531 7.839844 20.449219 C 7.839844 20.539062 7.863281 20.628906 7.898438 20.703125 C 7.929688 20.78125 7.976562 20.859375 8.042969 20.917969 C 8.164062 21.050781 8.332031 21.117188 8.511719 21.117188 C 8.691406 21.117188 8.855469 21.050781 8.988281 20.917969 C 9.042969 20.859375 9.089844 20.78125 9.132812 20.703125 C 9.15625 20.625 9.179688 20.539062 9.179688 20.449219 C 9.179688 20.269531 9.113281 20.101562 8.988281 19.980469 C 8.734375 19.722656 8.277344 19.722656 8.042969 19.980469 Z M 8.042969 19.980469 " fill-opacity="1" fill-rule="nonzero"/><g clip-path="url(#bbd5ecbe10)"><path fill="#ffffff" d="M 22.042969 3.628906 L 7.230469 3.628906 C 5.109375 3.628906 3.386719 5.351562 3.386719 7.472656 L 3.386719 22.285156 C 3.386719 24.40625 5.109375 26.128906 7.230469 26.128906 L 22.046875 26.128906 C 24.164062 26.128906 25.886719 24.40625 25.886719 22.285156 L 25.886719 7.472656 C 25.886719 5.351562 24.164062 3.628906 22.046875 3.628906 Z M 24.550781 22.285156 C 24.550781 23.667969 23.425781 24.792969 22.042969 24.792969 L 7.230469 24.792969 C 5.847656 24.792969 4.722656 23.667969 4.722656 22.285156 L 4.722656 7.472656 C 4.722656 6.089844 5.847656 4.964844 7.230469 4.964844 L 22.046875 4.964844 C 23.425781 4.964844 24.550781 6.089844 24.550781 7.472656 Z M 24.550781 22.285156 " fill-opacity="1" fill-rule="nonzero"/></g></svg>