<svg xmlns="http://www.w3.org/2000/svg" xmlns:xlink="http://www.w3.org/1999/xlink" width="40" zoomAndPan="magnify" viewBox="0 0 30 30.000001" height="40" preserveAspectRatio="xMidYMid meet" version="1.0"><defs><clipPath id="52eb25921c"><path d="M 5.558594 7 L 25 7 L 25 26.128906 L 5.558594 26.128906 Z M 5.558594 7 " clip-rule="nonzero"/></clipPath><clipPath id="1f4d97075a"><path d="M 10 2.902344 L 21 2.902344 L 21 12 L 10 12 Z M 10 2.902344 " clip-rule="nonzero"/></clipPath></defs><g clip-path="url(#52eb25921c)"><path fill="#ffffff" d="M 23.492188 26.128906 L 7.082031 26.128906 C 6.683594 26.128906 6.296875 25.960938 6.023438 25.671875 C 5.75 25.382812 5.605469 24.988281 5.628906 24.589844 L 6.492188 9.042969 C 6.535156 8.269531 7.171875 7.664062 7.945312 7.664062 L 22.628906 7.664062 C 23.402344 7.664062 24.039062 8.269531 24.082031 9.042969 L 24.949219 24.589844 C 24.96875 24.988281 24.824219 25.382812 24.550781 25.671875 C 24.277344 25.960938 23.890625 26.128906 23.492188 26.128906 Z M 7.945312 8.636719 C 7.6875 8.636719 7.476562 8.839844 7.460938 9.09375 L 6.597656 24.644531 C 6.589844 24.777344 6.636719 24.90625 6.730469 25.003906 C 6.824219 25.101562 6.949219 25.15625 7.082031 25.15625 L 23.492188 25.15625 C 23.628906 25.15625 23.753906 25.101562 23.84375 25.003906 C 23.9375 24.90625 23.984375 24.777344 23.976562 24.644531 L 23.113281 9.09375 C 23.101562 8.839844 22.886719 8.636719 22.628906 8.636719 Z M 7.945312 8.636719 " fill-opacity="1" fill-rule="nonzero"/></g><g clip-path="url(#1f4d97075a)"><path fill="#ffffff" d="M 19.660156 11.574219 C 19.390625 11.574219 19.175781 11.359375 19.175781 11.089844 L 19.175781 7.753906 C 19.175781 5.609375 17.429688 3.867188 15.289062 3.867188 C 13.144531 3.867188 11.402344 5.609375 11.402344 7.753906 L 11.402344 11.089844 C 11.402344 11.359375 11.183594 11.574219 10.914062 11.574219 C 10.644531 11.574219 10.429688 11.359375 10.429688 11.089844 L 10.429688 7.753906 C 10.429688 5.074219 12.609375 2.894531 15.289062 2.894531 C 17.96875 2.894531 20.148438 5.074219 20.148438 7.753906 L 20.148438 11.089844 C 20.148438 11.359375 19.929688 11.574219 19.660156 11.574219 Z M 19.660156 11.574219 " fill-opacity="1" fill-rule="nonzero"/></g></svg>