<svg xmlns="http://www.w3.org/2000/svg" xmlns:xlink="http://www.w3.org/1999/xlink" width="40" zoomAndPan="magnify" viewBox="0 0 30 30.000001" height="40" preserveAspectRatio="xMidYMid meet" version="1.0"><defs><clipPath id="9f2132dbe9"><path d="M 5 3 L 26.921875 3 L 26.921875 27.582031 L 5 27.582031 Z M 5 3 " clip-rule="nonzero"/></clipPath></defs><g clip-path="url(#9f2132dbe9)"><path fill="#000000" d="M 26.667969 26.125 L 21.496094 19.296875 C 21.761719 19.007812 22.003906 18.707031 22.230469 18.386719 C 22.457031 18.070312 22.664062 17.738281 22.847656 17.390625 C 23.03125 17.046875 23.191406 16.691406 23.332031 16.328125 C 23.46875 15.964844 23.585938 15.589844 23.675781 15.210938 C 23.765625 14.832031 23.835938 14.449219 23.875 14.058594 C 23.917969 13.671875 23.9375 13.28125 23.929688 12.890625 C 23.921875 12.5 23.890625 12.113281 23.835938 11.726562 C 23.78125 11.339844 23.699219 10.960938 23.59375 10.582031 C 23.488281 10.207031 23.359375 9.839844 23.210938 9.480469 C 23.058594 9.121094 22.882812 8.769531 22.6875 8.433594 C 22.492188 8.09375 22.277344 7.769531 22.039062 7.460938 C 21.800781 7.152344 21.546875 6.855469 21.269531 6.578125 C 20.996094 6.300781 20.707031 6.042969 20.398438 5.800781 C 20.089844 5.558594 19.769531 5.339844 19.433594 5.140625 C 19.097656 4.9375 18.75 4.761719 18.390625 4.605469 C 18.035156 4.449219 17.667969 4.316406 17.292969 4.207031 C 16.917969 4.097656 16.535156 4.011719 16.148438 3.949219 C 15.761719 3.886719 15.375 3.851562 14.984375 3.839844 C 14.59375 3.828125 14.203125 3.839844 13.816406 3.878906 C 13.425781 3.914062 13.039062 3.976562 12.660156 4.0625 C 12.277344 4.148438 11.902344 4.261719 11.535156 4.394531 C 11.167969 4.527344 10.8125 4.683594 10.464844 4.863281 C 10.117188 5.042969 9.78125 5.242188 9.460938 5.464844 C 9.140625 5.6875 8.832031 5.925781 8.542969 6.1875 C 8.25 6.449219 7.976562 6.726562 7.722656 7.023438 C 7.464844 7.316406 7.230469 7.625 7.011719 7.953125 C 6.796875 8.277344 6.601562 8.613281 6.429688 8.964844 C 6.253906 9.316406 6.105469 9.675781 5.976562 10.042969 C 5.847656 10.410156 5.746094 10.789062 5.664062 11.167969 C 5.585938 11.550781 5.53125 11.9375 5.5 12.328125 C 5.46875 12.714844 5.460938 13.105469 5.480469 13.496094 C 5.5 13.886719 5.542969 14.273438 5.609375 14.65625 C 5.679688 15.042969 5.769531 15.421875 5.886719 15.792969 C 6.003906 16.164062 6.140625 16.53125 6.304688 16.886719 C 6.46875 17.238281 6.652344 17.582031 6.855469 17.914062 C 7.0625 18.246094 7.289062 18.5625 7.535156 18.867188 C 7.78125 19.171875 8.046875 19.457031 8.332031 19.726562 C 8.613281 19.996094 8.910156 20.246094 9.226562 20.476562 C 9.542969 20.710938 9.871094 20.921875 10.210938 21.109375 C 10.550781 21.300781 10.90625 21.46875 11.265625 21.613281 C 11.628906 21.757812 12 21.878906 12.378906 21.976562 C 12.757812 22.074219 13.140625 22.148438 13.527344 22.199219 C 13.917969 22.25 14.304688 22.273438 14.695312 22.273438 C 15.085938 22.273438 15.476562 22.25 15.863281 22.199219 C 16.253906 22.152344 16.636719 22.078125 17.015625 21.980469 C 17.390625 21.882812 17.761719 21.761719 18.125 21.617188 C 18.488281 21.472656 18.839844 21.304688 19.183594 21.113281 C 19.523438 20.925781 19.851562 20.714844 20.167969 20.484375 L 25.25 27.199219 C 25.398438 27.394531 25.597656 27.507812 25.839844 27.542969 C 26.085938 27.578125 26.304688 27.519531 26.503906 27.371094 C 26.699219 27.222656 26.816406 27.027344 26.847656 26.785156 C 26.882812 26.539062 26.824219 26.320312 26.675781 26.121094 Z M 6.964844 13.054688 C 6.964844 12.546875 7.015625 12.042969 7.113281 11.546875 C 7.214844 11.046875 7.359375 10.566406 7.554688 10.097656 C 7.75 9.628906 7.988281 9.183594 8.269531 8.761719 C 8.550781 8.339844 8.871094 7.949219 9.230469 7.589844 C 9.589844 7.230469 9.980469 6.910156 10.402344 6.628906 C 10.828125 6.34375 11.273438 6.109375 11.742188 5.914062 C 12.210938 5.71875 12.695312 5.574219 13.195312 5.472656 C 13.691406 5.375 14.195312 5.324219 14.703125 5.324219 C 15.210938 5.324219 15.714844 5.375 16.210938 5.472656 C 16.710938 5.574219 17.195312 5.71875 17.664062 5.914062 C 18.132812 6.105469 18.578125 6.34375 19 6.628906 C 19.425781 6.910156 19.816406 7.230469 20.175781 7.589844 C 20.535156 7.945312 20.855469 8.335938 21.136719 8.757812 C 21.417969 9.179688 21.65625 9.625 21.851562 10.09375 C 22.046875 10.5625 22.191406 11.046875 22.292969 11.546875 C 22.390625 12.042969 22.441406 12.546875 22.441406 13.054688 C 22.441406 13.558594 22.390625 14.0625 22.292969 14.558594 C 22.191406 15.058594 22.046875 15.542969 21.851562 16.011719 C 21.65625 16.480469 21.417969 16.925781 21.136719 17.347656 C 20.855469 17.769531 20.53125 18.160156 20.175781 18.515625 C 19.816406 18.875 19.421875 19.195312 19 19.476562 C 18.578125 19.761719 18.132812 19.996094 17.664062 20.191406 C 17.195312 20.386719 16.710938 20.53125 16.210938 20.632812 C 15.714844 20.730469 15.210938 20.78125 14.703125 20.78125 C 14.195312 20.78125 13.691406 20.730469 13.191406 20.632812 C 12.695312 20.53125 12.210938 20.386719 11.742188 20.191406 C 11.273438 19.996094 10.828125 19.757812 10.40625 19.476562 C 9.980469 19.195312 9.589844 18.875 9.230469 18.515625 C 8.875 18.15625 8.550781 17.765625 8.269531 17.347656 C 7.988281 16.925781 7.75 16.480469 7.554688 16.011719 C 7.359375 15.542969 7.214844 15.058594 7.113281 14.5625 C 7.015625 14.0625 6.964844 13.5625 6.964844 13.054688 Z M 6.964844 13.054688 " fill-opacity="1" fill-rule="nonzero"/></g></svg>