<svg xmlns="http://www.w3.org/2000/svg" xmlns:xlink="http://www.w3.org/1999/xlink" width="40" zoomAndPan="magnify" viewBox="0 0 30 30.000001" height="40" preserveAspectRatio="xMidYMid meet" version="1.0"><defs><clipPath id="0f33110674"><path d="M 3.386719 2.902344 L 26.613281 2.902344 L 26.613281 26.128906 L 3.386719 26.128906 Z M 3.386719 2.902344 " clip-rule="nonzero"/></clipPath></defs><g clip-path="url(#0f33110674)"><path fill="#bfbdbc" d="M 25.765625 16.332031 C 26.222656 16.332031 26.59375 15.960938 26.59375 15.503906 L 26.59375 13.5 C 26.59375 13.046875 26.222656 12.671875 25.765625 12.671875 L 24.90625 12.671875 C 24.449219 12.671875 23.96875 12.316406 23.835938 11.878906 L 23.101562 10.097656 C 22.886719 9.695312 22.972656 9.105469 23.292969 8.78125 L 23.902344 8.171875 C 24.226562 7.851562 24.226562 7.324219 23.902344 7 L 22.488281 5.585938 C 22.164062 5.261719 21.636719 5.261719 21.316406 5.585938 L 20.707031 6.195312 C 20.382812 6.515625 19.792969 6.601562 19.390625 6.386719 L 17.609375 5.652344 C 17.171875 5.519531 16.816406 5.039062 16.816406 4.582031 L 16.816406 3.722656 C 16.816406 3.265625 16.445312 2.894531 15.988281 2.894531 L 13.984375 2.894531 C 13.527344 2.894531 13.15625 3.265625 13.15625 3.722656 L 13.15625 4.582031 C 13.15625 5.039062 12.800781 5.519531 12.363281 5.652344 L 10.582031 6.386719 C 10.179688 6.601562 9.589844 6.515625 9.265625 6.195312 L 8.65625 5.585938 C 8.335938 5.261719 7.808594 5.261719 7.484375 5.585938 L 6.070312 7 C 5.746094 7.324219 5.746094 7.851562 6.070312 8.171875 L 6.679688 8.78125 C 7 9.105469 7.085938 9.695312 6.871094 10.097656 L 6.136719 11.878906 C 6.003906 12.316406 5.523438 12.671875 5.066406 12.671875 L 4.207031 12.671875 C 3.75 12.671875 3.378906 13.042969 3.378906 13.5 L 3.378906 15.503906 C 3.378906 15.960938 3.75 16.332031 4.207031 16.332031 L 5.066406 16.332031 C 5.523438 16.332031 6.003906 16.6875 6.136719 17.125 L 6.871094 18.90625 C 7.089844 19.308594 7 19.898438 6.679688 20.222656 L 6.070312 20.832031 C 5.746094 21.152344 5.746094 21.679688 6.070312 22.003906 L 7.484375 23.417969 C 7.808594 23.742188 8.335938 23.742188 8.65625 23.417969 L 9.265625 22.808594 C 9.589844 22.488281 10.179688 22.402344 10.582031 22.617188 L 12.363281 23.351562 C 12.800781 23.484375 13.15625 23.96875 13.15625 24.421875 L 13.15625 25.28125 C 13.15625 25.738281 13.527344 26.113281 13.984375 26.113281 L 15.988281 26.113281 C 16.445312 26.113281 16.816406 25.738281 16.816406 25.28125 L 16.816406 24.421875 C 16.816406 23.96875 17.171875 23.484375 17.609375 23.351562 L 19.390625 22.617188 C 19.792969 22.402344 20.382812 22.488281 20.707031 22.808594 L 21.316406 23.417969 C 21.636719 23.742188 22.164062 23.742188 22.488281 23.417969 L 23.902344 22.003906 C 24.226562 21.679688 24.226562 21.152344 23.902344 20.832031 L 23.292969 20.222656 C 22.972656 19.898438 22.886719 19.308594 23.101562 18.90625 L 23.835938 17.125 C 23.96875 16.6875 24.449219 16.332031 24.90625 16.332031 Z M 14.984375 19.277344 C 12.347656 19.277344 10.210938 17.140625 10.210938 14.503906 C 10.210938 11.863281 12.347656 9.726562 14.984375 9.726562 C 17.625 9.726562 19.761719 11.863281 19.761719 14.503906 C 19.761719 17.140625 17.625 19.277344 14.984375 19.277344 Z M 14.984375 19.277344 " fill-opacity="1" fill-rule="nonzero"/></g></svg>