<svg xmlns="http://www.w3.org/2000/svg" xmlns:xlink="http://www.w3.org/1999/xlink" width="40" zoomAndPan="magnify" viewBox="0 0 30 30.000001" height="40" preserveAspectRatio="xMidYMid meet" version="1.0"><defs><clipPath id="9e2a8e1e53"><path d="M 14 2.902344 L 16 2.902344 L 16 8 L 14 8 Z M 14 2.902344 " clip-rule="nonzero"/></clipPath><clipPath id="256b1c08cb"><path d="M 14 21 L 16 21 L 16 26.128906 L 14 26.128906 Z M 14 21 " clip-rule="nonzero"/></clipPath><clipPath id="ab6ea555ff"><path d="M 22 14 L 26.613281 14 L 26.613281 15 L 22 15 Z M 22 14 " clip-rule="nonzero"/></clipPath><clipPath id="ca55daa6ca"><path d="M 3.386719 14 L 8 14 L 8 15 L 3.386719 15 Z M 3.386719 14 " clip-rule="nonzero"/></clipPath></defs><path fill="#ffffff" d="M 15 9.09375 C 17.988281 9.09375 20.421875 11.527344 20.421875 14.515625 C 20.421875 17.503906 17.988281 19.9375 15 19.9375 C 12.011719 19.9375 9.578125 17.503906 9.578125 14.515625 C 9.578125 11.527344 12.011719 9.09375 15 9.09375 Z M 15 20.453125 C 18.273438 20.453125 20.9375 17.789062 20.9375 14.515625 C 20.9375 11.242188 18.273438 8.578125 15 8.578125 C 11.726562 8.578125 9.0625 11.242188 9.0625 14.515625 C 9.0625 17.789062 11.726562 20.453125 15 20.453125 " fill-opacity="1" fill-rule="nonzero"/><g clip-path="url(#9e2a8e1e53)"><path fill="#ffffff" d="M 15 7.386719 C 15.140625 7.386719 15.257812 7.269531 15.257812 7.128906 L 15.257812 3.160156 C 15.257812 3.019531 15.140625 2.902344 15 2.902344 C 14.859375 2.902344 14.742188 3.019531 14.742188 3.160156 L 14.742188 7.128906 C 14.742188 7.269531 14.859375 7.386719 15 7.386719 " fill-opacity="1" fill-rule="nonzero"/></g><g clip-path="url(#256b1c08cb)"><path fill="#ffffff" d="M 15.257812 21.902344 C 15.257812 21.761719 15.140625 21.644531 15 21.644531 C 14.859375 21.644531 14.742188 21.761719 14.742188 21.902344 L 14.742188 25.871094 C 14.742188 26.011719 14.859375 26.128906 15 26.128906 C 15.140625 26.128906 15.257812 26.011719 15.257812 25.871094 L 15.257812 21.902344 " fill-opacity="1" fill-rule="nonzero"/></g><g clip-path="url(#ab6ea555ff)"><path fill="#ffffff" d="M 26.355469 14.257812 L 22.386719 14.257812 C 22.246094 14.257812 22.128906 14.375 22.128906 14.515625 C 22.128906 14.660156 22.246094 14.773438 22.386719 14.773438 L 26.355469 14.773438 C 26.496094 14.773438 26.613281 14.660156 26.613281 14.515625 C 26.613281 14.375 26.496094 14.257812 26.355469 14.257812 " fill-opacity="1" fill-rule="nonzero"/></g><g clip-path="url(#ca55daa6ca)"><path fill="#ffffff" d="M 3.644531 14.773438 L 7.613281 14.773438 C 7.753906 14.773438 7.871094 14.660156 7.871094 14.515625 C 7.871094 14.375 7.753906 14.257812 7.613281 14.257812 L 3.644531 14.257812 C 3.503906 14.257812 3.386719 14.375 3.386719 14.515625 C 3.386719 14.660156 3.503906 14.773438 3.644531 14.773438 " fill-opacity="1" fill-rule="nonzero"/></g><path fill="#ffffff" d="M 21.398438 11.082031 C 21.441406 11.082031 21.488281 11.070312 21.527344 11.046875 L 24.960938 9.0625 C 25.085938 8.992188 25.128906 8.832031 25.058594 8.710938 C 24.984375 8.585938 24.828125 8.542969 24.703125 8.613281 L 21.269531 10.597656 C 21.144531 10.667969 21.101562 10.828125 21.175781 10.953125 C 21.222656 11.035156 21.308594 11.082031 21.398438 11.082031 " fill-opacity="1" fill-rule="nonzero"/><path fill="#ffffff" d="M 5.167969 20.453125 C 5.210938 20.453125 5.253906 20.441406 5.296875 20.417969 L 8.730469 18.433594 C 8.855469 18.363281 8.898438 18.203125 8.824219 18.082031 C 8.753906 17.957031 8.597656 17.914062 8.472656 17.988281 L 5.039062 19.96875 C 4.914062 20.042969 4.871094 20.199219 4.941406 20.324219 C 4.992188 20.40625 5.078125 20.453125 5.167969 20.453125 " fill-opacity="1" fill-rule="nonzero"/><path fill="#ffffff" d="M 18.566406 8.339844 C 18.605469 8.367188 18.648438 8.375 18.695312 8.375 C 18.78125 8.375 18.871094 8.328125 18.917969 8.246094 L 20.902344 4.8125 C 20.972656 4.6875 20.929688 4.53125 20.804688 4.460938 C 20.683594 4.386719 20.523438 4.429688 20.453125 4.554688 L 18.46875 7.988281 C 18.398438 8.113281 18.441406 8.269531 18.566406 8.339844 " fill-opacity="1" fill-rule="nonzero"/><path fill="#ffffff" d="M 11.433594 20.691406 C 11.3125 20.617188 11.152344 20.660156 11.082031 20.785156 L 9.097656 24.222656 C 9.027344 24.34375 9.070312 24.503906 9.195312 24.574219 C 9.234375 24.597656 9.277344 24.609375 9.324219 24.609375 C 9.410156 24.609375 9.5 24.5625 9.546875 24.480469 L 11.53125 21.042969 C 11.601562 20.917969 11.558594 20.761719 11.433594 20.691406 " fill-opacity="1" fill-rule="nonzero"/><path fill="#ffffff" d="M 11.082031 8.246094 C 11.128906 8.328125 11.21875 8.375 11.304688 8.375 C 11.351562 8.375 11.394531 8.363281 11.433594 8.339844 C 11.558594 8.269531 11.601562 8.113281 11.53125 7.988281 L 9.546875 4.554688 C 9.476562 4.429688 9.316406 4.386719 9.195312 4.460938 C 9.070312 4.53125 9.027344 4.6875 9.097656 4.8125 L 11.082031 8.246094 " fill-opacity="1" fill-rule="nonzero"/><path fill="#ffffff" d="M 20.902344 24.222656 L 18.917969 20.785156 C 18.847656 20.660156 18.6875 20.617188 18.566406 20.691406 C 18.441406 20.761719 18.398438 20.917969 18.46875 21.042969 L 20.453125 24.480469 C 20.5 24.5625 20.589844 24.609375 20.675781 24.609375 C 20.722656 24.609375 20.765625 24.597656 20.804688 24.574219 C 20.929688 24.503906 20.972656 24.34375 20.902344 24.222656 " fill-opacity="1" fill-rule="nonzero"/><path fill="#ffffff" d="M 5.039062 9.0625 L 8.472656 11.046875 C 8.511719 11.070312 8.558594 11.082031 8.601562 11.082031 C 8.691406 11.082031 8.777344 11.035156 8.824219 10.949219 C 8.898438 10.828125 8.855469 10.667969 8.730469 10.597656 L 5.296875 8.613281 C 5.171875 8.542969 5.015625 8.585938 4.941406 8.710938 C 4.871094 8.832031 4.914062 8.992188 5.039062 9.0625 " fill-opacity="1" fill-rule="nonzero"/><path fill="#ffffff" d="M 21.269531 18.433594 L 24.703125 20.417969 C 24.746094 20.441406 24.789062 20.453125 24.832031 20.453125 C 24.921875 20.453125 25.007812 20.40625 25.058594 20.324219 C 25.128906 20.199219 25.085938 20.042969 24.960938 19.96875 L 21.527344 17.988281 C 21.402344 17.914062 21.246094 17.957031 21.175781 18.082031 C 21.101562 18.203125 21.144531 18.363281 21.269531 18.433594 " fill-opacity="1" fill-rule="nonzero"/></svg>