<svg xmlns="http://www.w3.org/2000/svg" xmlns:xlink="http://www.w3.org/1999/xlink" width="40" zoomAndPan="magnify" viewBox="0 0 30 30.000001" height="40" preserveAspectRatio="xMidYMid meet" version="1.0"><defs><clipPath id="530cad97c6"><path d="M 11.425781 1.960938 L 18.683594 1.960938 L 18.683594 25.910156 L 11.425781 25.910156 Z M 11.425781 1.960938 " clip-rule="nonzero"/></clipPath></defs><g clip-path="url(#530cad97c6)"><path fill="#ffffff" d="M 16.785156 19.453125 C 17.855469 20.070312 18.570312 21.226562 18.570312 22.546875 C 18.570312 24.515625 16.96875 26.117188 14.996094 26.117188 C 13.027344 26.117188 11.425781 24.515625 11.425781 22.546875 C 11.425781 21.226562 12.140625 20.070312 13.207031 19.453125 L 13.207031 3.75 C 13.207031 2.773438 14.011719 1.96875 14.992188 1.96875 C 15.972656 1.96875 16.773438 2.773438 16.773438 3.75 L 16.773438 7.011719 L 18 7.011719 L 18 7.46875 L 16.773438 7.46875 L 16.773438 10.355469 L 18 10.355469 L 18 10.8125 L 16.773438 10.8125 L 16.773438 13.699219 L 18 13.699219 L 18 14.15625 L 16.773438 14.15625 L 16.773438 17.042969 L 18 17.042969 L 18 17.5 L 16.773438 17.5 L 16.773438 19.472656 Z M 15.6875 20.117188 L 15.6875 12.742188 L 14.304688 12.742188 L 14.304688 20.117188 C 13.242188 20.417969 12.46875 21.390625 12.46875 22.546875 C 12.46875 23.941406 13.601562 25.074219 14.996094 25.074219 C 16.394531 25.074219 17.523438 23.941406 17.523438 22.546875 C 17.523438 21.390625 16.75 20.417969 15.6875 20.117188 Z M 16.140625 19.824219 L 16.140625 3.75 C 16.140625 3.125 15.625 2.605469 14.996094 2.605469 C 14.371094 2.605469 13.851562 3.125 13.851562 3.75 L 13.851562 19.824219 L 13.53125 20.011719 C 12.628906 20.535156 12.0625 21.5 12.0625 22.550781 C 12.0625 24.171875 13.378906 25.476562 14.992188 25.476562 C 16.609375 25.476562 17.917969 24.164062 17.917969 22.550781 C 17.917969 21.5 17.359375 20.539062 16.453125 20.011719 L 16.128906 19.824219 Z M 16.140625 19.824219 " fill-opacity="1" fill-rule="evenodd"/></g></svg>