<svg xmlns="http://www.w3.org/2000/svg" xmlns:xlink="http://www.w3.org/1999/xlink" width="40" zoomAndPan="magnify" viewBox="0 0 30 30.000001" height="40" preserveAspectRatio="xMidYMid meet" version="1.0"><defs><clipPath id="6577d21e83"><path d="M 21 4.390625 L 25.640625 4.390625 L 25.640625 9 L 21 9 Z M 21 4.390625 " clip-rule="nonzero"/></clipPath><clipPath id="e8bc2bbffb"><path d="M 4.589844 5 L 25 5 L 25 25.4375 L 4.589844 25.4375 Z M 4.589844 5 " clip-rule="nonzero"/></clipPath></defs><path fill="#bfbdbc" d="M 21.910156 9.839844 C 21.910156 10.085938 21.863281 10.320312 21.773438 10.542969 C 21.679688 10.769531 21.546875 10.96875 21.371094 11.140625 C 21.199219 11.316406 21 11.449219 20.773438 11.542969 C 20.550781 11.632812 20.316406 11.679688 20.070312 11.679688 C 19.828125 11.679688 19.589844 11.632812 19.367188 11.542969 C 19.140625 11.449219 18.941406 11.316406 18.769531 11.140625 C 18.597656 10.96875 18.464844 10.769531 18.371094 10.542969 C 18.277344 10.320312 18.230469 10.085938 18.230469 9.839844 C 18.230469 9.597656 18.277344 9.359375 18.371094 9.136719 C 18.464844 8.910156 18.597656 8.710938 18.769531 8.539062 C 18.941406 8.367188 19.140625 8.234375 19.367188 8.140625 C 19.589844 8.046875 19.828125 8 20.070312 8 C 20.316406 8 20.550781 8.046875 20.773438 8.140625 C 21 8.234375 21.199219 8.367188 21.371094 8.539062 C 21.546875 8.710938 21.679688 8.910156 21.773438 9.136719 C 21.863281 9.359375 21.910156 9.597656 21.910156 9.839844 Z M 21.910156 9.839844 " fill-opacity="1" fill-rule="nonzero"/><g clip-path="url(#6577d21e83)"><path fill="#bfbdbc" d="M 25.371094 6.101562 L 24.207031 6.101562 L 24.207031 4.9375 C 24.207031 4.640625 23.964844 4.398438 23.667969 4.398438 C 23.371094 4.398438 23.128906 4.640625 23.128906 4.9375 L 23.128906 6.101562 L 21.964844 6.101562 C 21.664062 6.101562 21.421875 6.34375 21.421875 6.640625 C 21.421875 6.941406 21.664062 7.183594 21.964844 7.183594 L 23.128906 7.183594 L 23.128906 8.347656 C 23.128906 8.644531 23.371094 8.886719 23.667969 8.886719 C 23.964844 8.886719 24.207031 8.644531 24.207031 8.347656 L 24.207031 7.183594 L 25.371094 7.183594 C 25.671875 7.183594 25.910156 6.941406 25.910156 6.640625 C 25.910156 6.34375 25.667969 6.101562 25.371094 6.101562 Z M 25.371094 6.101562 " fill-opacity="1" fill-rule="nonzero"/></g><g clip-path="url(#e8bc2bbffb)"><path fill="#bfbdbc" d="M 23.667969 10.082031 C 23.371094 10.082031 23.128906 10.320312 23.128906 10.621094 L 23.128906 20.699219 L 19.039062 15.46875 C 18.9375 15.339844 18.78125 15.261719 18.613281 15.261719 C 18.449219 15.261719 18.292969 15.339844 18.191406 15.46875 L 16.5625 17.554688 L 13.070312 12.554688 C 12.96875 12.410156 12.804688 12.320312 12.628906 12.320312 C 12.449219 12.320312 12.285156 12.40625 12.183594 12.554688 L 5.675781 21.875 L 5.675781 7.761719 C 5.675781 7.09375 6.21875 6.550781 6.886719 6.550781 L 19.847656 6.550781 C 20.148438 6.550781 20.390625 6.308594 20.390625 6.007812 C 20.390625 5.710938 20.148438 5.46875 19.847656 5.46875 L 6.886719 5.46875 C 5.625 5.46875 4.597656 6.5 4.597656 7.761719 L 4.597656 22.789062 C 4.597656 22.832031 4.597656 22.875 4.601562 22.921875 C 4.589844 22.988281 4.597656 23.0625 4.617188 23.132812 C 4.621094 23.144531 4.625 23.152344 4.628906 23.164062 C 4.648438 23.28125 4.675781 23.398438 4.714844 23.511719 C 4.726562 23.59375 4.753906 23.667969 4.800781 23.738281 C 5.160156 24.523438 5.949219 25.070312 6.867188 25.082031 C 6.871094 25.082031 6.875 25.082031 6.878906 25.082031 L 14.371094 25.082031 C 15.519531 25.113281 16.644531 25.125 17.644531 25.125 C 18.988281 25.125 20.113281 25.101562 20.789062 25.082031 L 21.914062 25.082031 C 23.179688 25.082031 24.207031 24.050781 24.207031 22.789062 L 24.207031 10.617188 C 24.207031 10.320312 23.964844 10.078125 23.667969 10.078125 Z M 23.667969 10.082031 " fill-opacity="1" fill-rule="nonzero"/></g></svg>