<svg xmlns="http://www.w3.org/2000/svg" xmlns:xlink="http://www.w3.org/1999/xlink" width="40" zoomAndPan="magnify" viewBox="0 0 30 30.000001" height="40" preserveAspectRatio="xMidYMid meet" version="1.0"><defs><clipPath id="f6b770a6f8"><path d="M 7 8 L 25.960938 8 L 25.960938 22.578125 L 7 22.578125 Z M 7 8 " clip-rule="nonzero"/></clipPath><clipPath id="148dbfb601"><path d="M 4.183594 16 L 6 16 L 6 17 L 4.183594 17 Z M 4.183594 16 " clip-rule="nonzero"/></clipPath><clipPath id="06cc88f00a"><path d="M 4.183594 15 L 6 15 L 6 16 L 4.183594 16 Z M 4.183594 15 " clip-rule="nonzero"/></clipPath><clipPath id="ac41b4668c"><path d="M 4.183594 17 L 6 17 L 6 18 L 4.183594 18 Z M 4.183594 17 " clip-rule="nonzero"/></clipPath><clipPath id="a1660a22df"><path d="M 4.183594 18 L 5 18 L 5 19 L 4.183594 19 Z M 4.183594 18 " clip-rule="nonzero"/></clipPath><clipPath id="281744899f"><path d="M 4.183594 18 L 6 18 L 6 20 L 4.183594 20 Z M 4.183594 18 " clip-rule="nonzero"/></clipPath></defs><g clip-path="url(#f6b770a6f8)"><path fill="#ffffff" d="M 23.292969 9.824219 C 22.855469 9.234375 20.78125 6.652344 16.777344 9.132812 C 12.773438 11.613281 14.390625 14.230469 14.140625 14.664062 C 13.890625 15.097656 13.953125 15.140625 13.953125 15.140625 L 15.195312 17.082031 L 14.46875 18.300781 L 9.734375 15.976562 C 9.734375 15.976562 9.414062 15.355469 9.277344 14.867188 C 9.222656 14.675781 9.390625 14.59375 9.328125 14.445312 C 9.257812 14.285156 9.09375 14.234375 9.042969 14.191406 C 8.828125 13.996094 7.878906 14.929688 7.496094 15.667969 C 7.371094 15.90625 7.082031 17.0625 7.265625 17.378906 C 7.546875 17.859375 8.003906 17.265625 8.003906 17.265625 L 9.273438 16.992188 L 18.097656 21.4375 C 18.097656 21.4375 18.15625 22.335938 19.015625 22.183594 C 19.867188 22.035156 20.921875 21.191406 22.050781 20.515625 C 23.707031 19.519531 25.226562 18.429688 25.449219 18.125 C 25.816406 17.621094 24.902344 16.941406 24.902344 16.941406 C 24.902344 16.941406 24.738281 16.859375 24.84375 15.207031 C 25.042969 12.101562 23.730469 10.417969 23.292969 9.824219 Z M 22.882812 13.804688 C 21.480469 11.675781 21.015625 10.511719 20.699219 10.613281 C 20.1875 10.71875 16.679688 13.1875 16.679688 13.1875 L 15.160156 13.316406 C 15.160156 13.316406 14.859375 13.289062 14.894531 12.90625 C 14.929688 12.523438 15.160156 10.910156 17.753906 9.671875 C 20.347656 8.433594 22.199219 9.632812 22.769531 10.492188 C 23.335938 11.351562 23.726562 12.644531 23.78125 13.230469 C 23.835938 13.820312 24.285156 15.933594 22.882812 13.804688 Z M 22.882812 13.804688 " fill-opacity="1" fill-rule="nonzero"/></g><g clip-path="url(#148dbfb601)"><path fill="#ffffff" d="M 5.03125 16.347656 C 4.996094 16.316406 4.492188 16.296875 4.40625 16.382812 C 4.320312 16.464844 4.363281 16.695312 4.535156 16.703125 C 4.703125 16.714844 5.066406 16.378906 5.03125 16.347656 Z M 4.445312 16.460938 C 4.445312 16.460938 4.40625 16.449219 4.460938 16.410156 C 4.515625 16.375 4.679688 16.382812 4.679688 16.382812 C 4.679688 16.382812 4.6875 16.382812 4.605469 16.425781 C 4.523438 16.464844 4.445312 16.460938 4.445312 16.460938 Z M 4.445312 16.460938 " fill-opacity="1" fill-rule="nonzero"/></g><g clip-path="url(#06cc88f00a)"><path fill="#ffffff" d="M 5.238281 15.695312 C 5.222656 15.648438 4.792969 15.386719 4.679688 15.417969 C 4.5625 15.449219 4.488281 15.667969 4.628906 15.761719 C 4.773438 15.851562 5.257812 15.738281 5.238281 15.695312 Z M 4.675781 15.507812 C 4.675781 15.507812 4.644531 15.472656 4.710938 15.46875 C 4.777344 15.464844 4.914062 15.550781 4.914062 15.550781 C 4.914062 15.550781 4.925781 15.558594 4.832031 15.550781 C 4.742188 15.546875 4.675781 15.507812 4.675781 15.507812 Z M 4.675781 15.507812 " fill-opacity="1" fill-rule="nonzero"/></g><path fill="#ffffff" d="M 6.28125 14.726562 C 6.265625 14.679688 5.835938 14.417969 5.71875 14.449219 C 5.605469 14.480469 5.53125 14.699219 5.671875 14.792969 C 5.8125 14.886719 6.296875 14.769531 6.28125 14.726562 Z M 5.71875 14.539062 C 5.71875 14.539062 5.6875 14.507812 5.753906 14.5 C 5.816406 14.496094 5.957031 14.585938 5.957031 14.585938 C 5.957031 14.585938 5.964844 14.589844 5.875 14.585938 C 5.78125 14.582031 5.71875 14.539062 5.71875 14.539062 Z M 5.71875 14.539062 " fill-opacity="1" fill-rule="nonzero"/><path fill="#ffffff" d="M 7.722656 14.578125 C 7.714844 14.527344 7.355469 14.175781 7.234375 14.179688 C 7.117188 14.1875 6.996094 14.382812 7.113281 14.503906 C 7.230469 14.628906 7.726562 14.625 7.722656 14.578125 Z M 7.214844 14.265625 C 7.214844 14.265625 7.191406 14.230469 7.257812 14.238281 C 7.320312 14.25 7.4375 14.367188 7.4375 14.367188 C 7.4375 14.367188 7.445312 14.371094 7.355469 14.347656 C 7.265625 14.324219 7.214844 14.265625 7.214844 14.265625 Z M 7.214844 14.265625 " fill-opacity="1" fill-rule="nonzero"/><path fill="#ffffff" d="M 6.386719 16.144531 C 6.363281 16.105469 5.886719 15.941406 5.78125 15.996094 C 5.675781 16.050781 5.648438 16.28125 5.808594 16.34375 C 5.964844 16.402344 6.414062 16.183594 6.386719 16.144531 Z M 5.796875 16.082031 C 5.796875 16.082031 5.757812 16.058594 5.824219 16.039062 C 5.882812 16.019531 6.039062 16.078125 6.039062 16.078125 C 6.039062 16.078125 6.050781 16.078125 5.960938 16.09375 C 5.871094 16.109375 5.796875 16.082031 5.796875 16.082031 Z M 5.796875 16.082031 " fill-opacity="1" fill-rule="nonzero"/><path fill="#ffffff" d="M 7.070312 15.492188 C 7.058594 15.449219 6.652344 15.152344 6.535156 15.171875 C 6.417969 15.195312 6.324219 15.410156 6.460938 15.511719 C 6.59375 15.613281 7.085938 15.539062 7.070312 15.492188 Z M 6.523438 15.261719 C 6.523438 15.261719 6.496094 15.226562 6.5625 15.226562 C 6.628906 15.226562 6.757812 15.324219 6.757812 15.324219 C 6.757812 15.324219 6.769531 15.332031 6.675781 15.320312 C 6.585938 15.308594 6.523438 15.261719 6.523438 15.261719 Z M 6.523438 15.261719 " fill-opacity="1" fill-rule="nonzero"/><g clip-path="url(#ac41b4668c)"><path fill="#ffffff" d="M 5.445312 17.160156 C 5.40625 17.136719 4.90625 17.203125 4.835938 17.300781 C 4.769531 17.398438 4.851562 17.617188 5.015625 17.597656 C 5.1875 17.578125 5.488281 17.183594 5.445312 17.160156 Z M 4.890625 17.371094 C 4.890625 17.371094 4.847656 17.367188 4.894531 17.320312 C 4.941406 17.277344 5.105469 17.257812 5.105469 17.257812 C 5.105469 17.257812 5.117188 17.253906 5.042969 17.308594 C 4.96875 17.363281 4.890625 17.371094 4.890625 17.371094 Z M 4.890625 17.371094 " fill-opacity="1" fill-rule="nonzero"/></g><g clip-path="url(#a1660a22df)"><path fill="#ffffff" d="M 4.867188 18.179688 C 4.828125 18.15625 4.328125 18.222656 4.257812 18.320312 C 4.191406 18.417969 4.269531 18.636719 4.4375 18.617188 C 4.605469 18.601562 4.910156 18.203125 4.867188 18.179688 Z M 4.3125 18.390625 C 4.3125 18.390625 4.269531 18.386719 4.316406 18.339844 C 4.363281 18.296875 4.527344 18.277344 4.527344 18.277344 C 4.527344 18.277344 4.535156 18.273438 4.464844 18.328125 C 4.390625 18.382812 4.3125 18.390625 4.3125 18.390625 Z M 4.3125 18.390625 " fill-opacity="1" fill-rule="nonzero"/></g><g clip-path="url(#281744899f)"><path fill="#ffffff" d="M 5.09375 18.976562 C 5.046875 18.960938 4.570312 19.113281 4.515625 19.222656 C 4.464844 19.328125 4.585938 19.53125 4.746094 19.480469 C 4.910156 19.433594 5.136719 18.992188 5.09375 18.976562 Z M 4.582031 19.28125 C 4.582031 19.28125 4.539062 19.285156 4.578125 19.230469 C 4.617188 19.179688 4.773438 19.128906 4.773438 19.128906 C 4.773438 19.128906 4.78125 19.125 4.71875 19.191406 C 4.65625 19.257812 4.582031 19.28125 4.582031 19.28125 Z M 4.582031 19.28125 " fill-opacity="1" fill-rule="nonzero"/></g><path fill="#ffffff" d="M 6.636719 17.125 C 6.59375 17.109375 6.109375 17.25 6.054688 17.355469 C 6 17.460938 6.113281 17.664062 6.277344 17.621094 C 6.441406 17.578125 6.679688 17.144531 6.636719 17.125 Z M 6.117188 17.417969 C 6.117188 17.417969 6.074219 17.417969 6.117188 17.367188 C 6.152344 17.316406 6.3125 17.273438 6.3125 17.273438 C 6.3125 17.273438 6.324219 17.269531 6.257812 17.332031 C 6.195312 17.398438 6.117188 17.417969 6.117188 17.417969 Z M 6.117188 17.417969 " fill-opacity="1" fill-rule="nonzero"/><path fill="#ffffff" d="M 6.890625 18.023438 C 6.839844 18.019531 6.410156 18.28125 6.386719 18.394531 C 6.359375 18.511719 6.523438 18.679688 6.667969 18.597656 C 6.816406 18.511719 6.9375 18.03125 6.890625 18.023438 Z M 6.464844 18.441406 C 6.464844 18.441406 6.421875 18.453125 6.449219 18.390625 C 6.472656 18.332031 6.613281 18.25 6.613281 18.25 C 6.613281 18.25 6.621094 18.242188 6.578125 18.320312 C 6.53125 18.402344 6.464844 18.441406 6.464844 18.441406 Z M 6.464844 18.441406 " fill-opacity="1" fill-rule="nonzero"/><path fill="#ffffff" d="M 7.261719 18.550781 C 7.21875 18.570312 6.988281 19.019531 7.027344 19.132812 C 7.070312 19.246094 7.296875 19.300781 7.375 19.15625 C 7.457031 19.007812 7.304688 18.53125 7.261719 18.550781 Z M 7.117188 19.128906 C 7.117188 19.128906 7.089844 19.160156 7.078125 19.09375 C 7.070312 19.03125 7.144531 18.886719 7.144531 18.886719 C 7.144531 18.886719 7.148438 18.875 7.152344 18.96875 C 7.15625 19.058594 7.117188 19.128906 7.117188 19.128906 Z M 7.117188 19.128906 " fill-opacity="1" fill-rule="nonzero"/><path fill="#ffffff" d="M 5.832031 18.023438 C 5.785156 18.019531 5.351562 18.28125 5.328125 18.394531 C 5.300781 18.511719 5.464844 18.679688 5.609375 18.597656 C 5.757812 18.511719 5.878906 18.03125 5.832031 18.023438 Z M 5.40625 18.441406 C 5.40625 18.441406 5.363281 18.453125 5.390625 18.390625 C 5.414062 18.332031 5.554688 18.25 5.554688 18.25 C 5.554688 18.25 5.5625 18.242188 5.519531 18.320312 C 5.472656 18.402344 5.40625 18.441406 5.40625 18.441406 Z M 5.40625 18.441406 " fill-opacity="1" fill-rule="nonzero"/><path fill="#ffffff" d="M 6.195312 19.007812 C 6.148438 19.019531 5.816406 19.398438 5.828125 19.515625 C 5.839844 19.632812 6.046875 19.746094 6.160156 19.621094 C 6.273438 19.496094 6.242188 19 6.195312 19.007812 Z M 5.917969 19.535156 C 5.917969 19.535156 5.878906 19.558594 5.886719 19.492188 C 5.890625 19.429688 6 19.304688 6 19.304688 C 6 19.304688 6.007812 19.296875 5.988281 19.386719 C 5.96875 19.476562 5.917969 19.535156 5.917969 19.535156 Z M 5.917969 19.535156 " fill-opacity="1" fill-rule="nonzero"/></svg>