<svg xmlns="http://www.w3.org/2000/svg" xmlns:xlink="http://www.w3.org/1999/xlink" width="340" zoomAndPan="magnify" viewBox="0 0 255 49.499998" height="66" preserveAspectRatio="xMidYMid meet" version="1.0"><defs><g/><clipPath id="44ccc313ab"><path d="M 8.105469 0.691406 L 43.746094 0.691406 L 43.746094 48.210938 L 8.105469 48.210938 Z M 8.105469 0.691406 " clip-rule="nonzero"/></clipPath></defs><g clip-path="url(#44ccc313ab)"><path fill="#76984b" d="M 26.421875 0.691406 C 24.800781 5.804688 17.3125 7.820312 14.792969 18.441406 C 14.167969 21.082031 13.953125 23.792969 14.996094 26.285156 C 15.015625 26.324219 15.496094 27.269531 15.457031 27.269531 C 15.160156 26.671875 13.949219 25.304688 13.949219 21.921875 C 13.835938 22.007812 13.113281 25.980469 15.921875 28.8125 C 15.589844 28.578125 14.359375 27.382812 13.785156 25.65625 C 13.75 25.546875 13.746094 25.359375 13.644531 25.296875 C 13.65625 25.960938 14.058594 27.492188 15.671875 29.082031 C 16.523438 29.925781 16.945312 30.070312 16.945312 30.070312 C 16.410156 29.917969 14.679688 28.882812 13.605469 26.949219 C 13.101562 26.039062 13.492188 27.160156 13.941406 27.863281 C 15.007812 29.519531 16.671875 30.574219 17.105469 30.699219 C 17.105469 30.773438 15.925781 30.433594 14.503906 29.488281 C 14.1875 29.277344 13.429688 28.707031 13.429688 28.707031 C 13.609375 29.242188 15.816406 30.648438 16.101562 30.753906 C 16.101562 31.0625 13.804688 29.328125 13.714844 29.296875 C 13.84375 29.671875 15.324219 30.683594 15.816406 30.980469 C 16.390625 31.324219 16.640625 31.417969 16.640625 31.417969 C 16.195312 31.289062 14.054688 30.339844 12.71875 28.203125 C 12.632812 28.070312 12.542969 27.796875 12.40625 27.71875 C 12.6875 28.933594 14.210938 30.261719 14.773438 30.753906 C 14.117188 30.386719 13.4375 29.710938 12.996094 29.136719 C 12.566406 28.578125 12.707031 29.214844 14.378906 30.753906 C 9.796875 27.898438 12.765625 19.511719 11.898438 22.390625 C 10.226562 27.933594 12.914062 32.019531 16.65625 33.113281 C 18.921875 33.777344 20.4375 33.386719 22.722656 35.292969 C 25.316406 37.453125 26.132812 40.089844 26.132812 43.691406 L 26.117188 43.691406 C 26.117188 42.914062 25.953125 42.128906 25.753906 41.375 C 24.671875 37.25 22.890625 36.011719 20.695312 34.910156 C 17.132812 33.128906 16.539062 34.304688 14.144531 32.476562 C 10.976562 30.0625 11.203125 25.332031 11.203125 25.332031 C 11.039062 26.015625 11.210938 27.796875 11.234375 27.972656 C 12.011719 33.953125 17.59375 35.101562 19.402344 35.980469 C 23.210938 37.820312 24.347656 41.324219 24.25 41.324219 C 23.914062 40.542969 21.96875 38.152344 20.15625 37.027344 C 19.859375 36.839844 18.773438 36.214844 18.417969 36.207031 C 18.515625 36.351562 18.867188 36.4375 19.027344 36.519531 C 21.527344 37.765625 23.113281 40.390625 23.351562 40.945312 C 23.351562 40.945312 23.253906 40.738281 22.511719 39.90625 C 21.265625 38.511719 19.785156 37.632812 19.296875 37.5 C 19.40625 37.691406 19.777344 37.839844 19.960938 37.96875 C 22.730469 39.875 23.839844 42.722656 23.765625 42.722656 C 22.8125 40.519531 18.144531 37.308594 20.464844 39.320312 C 22.863281 41.402344 24.441406 45.140625 24.609375 46.277344 C 24.609375 46.277344 24.386719 45.421875 23.460938 44.085938 C 20.867188 40.339844 19.105469 41.078125 13.839844 35.9375 C 12.847656 34.972656 12.738281 34.972656 11.917969 33.5 C 10.859375 31.601562 12.195312 35.679688 16.496094 39.414062 C 17.660156 40.425781 19.75 41.933594 17.484375 40.371094 C 14.167969 38.085938 11.089844 34.296875 10.5625 30.285156 C 10.109375 26.832031 10.742188 25.386719 11.132812 23.503906 C 10.972656 23.550781 10.835938 24.125 10.742188 24.453125 C 8.488281 32.398438 12.90625 37.203125 15.023438 40.300781 C 12.761719 38.035156 11.097656 35.277344 10.226562 31.792969 C 9.90625 30.511719 10.5 34.867188 12.699219 38.414062 C 13.78125 40.160156 14.246094 40.460938 14.613281 40.980469 C 10.746094 37.113281 9.566406 32.625 9.910156 27.613281 C 9.917969 27.539062 10.164062 25.074219 9.96875 26.070312 C 8.519531 33.328125 11.324219 37.410156 12.136719 39.296875 C 9.8125 36.613281 8.800781 30.96875 9.210938 27.71875 C 9.046875 27.84375 8.988281 31.394531 9.234375 33.265625 C 9.890625 38.277344 11.851562 40.988281 12.027344 41.324219 C 9.015625 37.875 8.476562 33.632812 8.582031 29.316406 C 8.652344 26.574219 4.867188 49.449219 25.847656 48.019531 C 29.785156 47.75 30.871094 47.207031 32.703125 46.625 C 36.863281 45.292969 38.789062 44.035156 40.78125 41.554688 C 44.40625 37.046875 44.613281 32.007812 42.738281 26.140625 C 41.695312 22.871094 40.503906 20.632812 41.082031 22.210938 C 40.941406 22.242188 41.140625 22.585938 41.066406 22.585938 C 41.011719 22.285156 39.609375 18.972656 39.179688 18.65625 C 39.125 18.933594 44.960938 29.832031 40.933594 37.625 C 40.925781 37.644531 40.46875 38.398438 40.453125 38.398438 C 42.425781 33.664062 42.859375 30.558594 40.480469 23.25 C 39.15625 19.191406 37.011719 15.675781 36.9375 15.675781 C 36.972656 16.011719 37.042969 15.882812 38.222656 18.460938 C 39.308594 20.824219 40.132812 23.207031 40.480469 25.746094 C 40.769531 27.882812 40.503906 25.25 39.511719 22.621094 C 37.234375 16.585938 34.246094 12.027344 36.214844 15.839844 C 39.707031 22.605469 39.472656 26.804688 39.394531 26.804688 C 39.375 26.304688 38.785156 23.019531 37.648438 19.609375 C 37.183594 18.214844 36.269531 16.207031 37.027344 18.28125 C 38.332031 21.855469 38.683594 26.121094 38.515625 26.121094 C 38.34375 22.050781 34.960938 13.433594 34.191406 13.039062 C 34.265625 13.289062 34.425781 13.527344 34.546875 13.757812 C 37.96875 20.390625 38.433594 31.101562 32.433594 37.105469 C 32.785156 36.539062 37.941406 30.738281 36.5625 20.9375 C 36.542969 20.804688 36.539062 20.636719 36.472656 20.523438 C 36.4375 20.8125 36.539062 21.144531 36.558594 21.4375 C 37.132812 29.804688 31.835938 32.105469 29.777344 37.609375 C 29.113281 39.378906 30.082031 36.601562 31.964844 34.089844 C 32.734375 33.0625 35.382812 29.953125 35.859375 27.882812 L 35.878906 27.882812 C 35.003906 32.117188 30.175781 36.410156 29.527344 39.152344 C 29.484375 39.152344 29.472656 37.578125 29.472656 37.535156 C 29.683594 32.703125 33.410156 29.21875 35.046875 24.917969 C 37.242188 19.144531 34.554688 13.9375 34.480469 13.9375 C 34.515625 14.304688 34.753906 14.710938 34.867188 15.066406 C 37.566406 23.523438 31.355469 29.277344 29.75 32.082031 C 28.441406 34.363281 28.019531 37.394531 28.019531 38.128906 C 27.941406 38.128906 27.929688 34.464844 29.460938 30.878906 C 31.410156 26.308594 34.507812 23.511719 33.390625 15.730469 C 32.753906 11.3125 31.636719 8.992188 31.375 8.910156 C 31.535156 9.507812 32.632812 12.125 32.414062 12.125 C 32.328125 11.488281 30.472656 6.808594 30.191406 6.6875 C 30.230469 7.660156 32.855469 12.546875 30.238281 17.957031 C 29.164062 20.179688 26.789062 21.71875 25.792969 22.710938 C 24.871094 23.632812 24.183594 24.898438 24.175781 25.40625 C 24.355469 25.304688 24.449219 24.902344 24.539062 24.722656 C 25.6875 22.429688 27.546875 21.710938 29.183594 20.074219 C 27.511719 22.519531 24.195312 22.5625 24.195312 29.441406 C 24.179688 29.441406 24 27.929688 24 27.917969 C 23.648438 22.777344 27.023438 21.085938 27.226562 20.488281 C 26.945312 20.597656 26.003906 21.597656 25.792969 21.832031 C 23.148438 24.746094 23.675781 26.964844 23.675781 28.5625 C 23.652344 28.5625 23.496094 27.113281 23.496094 27.089844 C 23.140625 19 30.941406 21.667969 30.925781 10.402344 C 30.925781 10.328125 30.945312 9.378906 30.816406 9.378906 C 30.816406 9.378906 30.882812 10.574219 30.8125 11.15625 C 30.015625 17.734375 26.417969 18.796875 24.363281 21.132812 C 23.234375 22.414062 22.472656 24.859375 22.472656 26.390625 C 22.445312 26.390625 22.328125 25.128906 22.328125 25.097656 C 22.113281 16.234375 30.355469 16.132812 27.6875 5.414062 C 26.882812 2.1875 27.550781 5.257812 27.242188 8.464844 C 26.667969 14.503906 21.988281 17.554688 21.664062 21.511719 C 21.558594 21.511719 21.921875 20.273438 21.945312 20.199219 C 22.738281 17.414062 24.585938 15.445312 25.527344 13.558594 C 25.992188 12.632812 26.011719 12.296875 25.78125 12.824219 C 24.414062 15.980469 21.304688 18.070312 21.304688 23.988281 C 21.269531 23.988281 21.25 22.335938 21.253906 22.300781 C 21.4375 14.789062 24.832031 14.109375 26.378906 9.46875 C 26.578125 8.867188 26.617188 8.605469 26.617188 8.605469 C 26.511719 11.082031 24.453125 13.703125 24.355469 13.953125 C 24.554688 13.855469 25.519531 12.386719 25.988281 11.296875 C 26.984375 8.980469 27.066406 4.96875 26.855469 3.1875 C 26.84375 3.113281 26.503906 0.828125 26.421875 0.691406 M 26.078125 2.648438 C 25.960938 5.417969 21.855469 9.519531 21.71875 10.867188 C 21.890625 10.726562 21.988281 10.4375 22.09375 10.238281 C 22.96875 8.578125 24.148438 7.480469 25.117188 5.808594 C 25.570312 5.03125 25.722656 4.660156 25.722656 4.660156 C 25.527344 6.085938 24.328125 7.660156 24.175781 7.980469 C 24.519531 7.804688 26.058594 5.097656 26.332031 3.0625 C 26.425781 3.0625 26.390625 6.558594 24.082031 10.023438 C 22.695312 12.101562 25.410156 8.910156 26.160156 5.539062 C 26.714844 3.035156 26.207031 6.535156 25.5 7.996094 C 25.070312 8.886719 24.644531 9.574219 24.644531 9.574219 C 24.921875 9.253906 26.09375 7.308594 26.296875 5.808594 C 26.390625 5.808594 26.089844 6.882812 26.0625 6.972656 C 25.332031 9.511719 23.09375 11.664062 22.148438 13.203125 C 21.984375 13.203125 23.359375 11.125 23.40625 11.046875 C 20.925781 13.546875 20.6875 17.578125 20.894531 15.410156 C 21.191406 12.316406 23.714844 10.730469 24.574219 8.894531 C 24.570312 8.894531 23.632812 10.0625 23.402344 10.328125 C 22.109375 11.820312 20.695312 13.566406 20.695312 15.660156 C 20.621094 15.660156 19.644531 12.8125 22.710938 8.300781 C 27.035156 1.949219 21.890625 9.324219 21.753906 9.324219 C 22.695312 7.0625 24.65625 5.375 25.734375 3.386719 C 25.859375 3.152344 25.933594 2.867188 26.078125 2.648438 M 28.414062 5.644531 C 28.515625 6.351562 28.722656 7.027344 28.769531 7.746094 C 29.222656 14.363281 25.664062 17.160156 24.542969 18.710938 C 22.6875 21.277344 22.078125 25.6875 22.789062 23.195312 C 23.757812 19.808594 27.34375 18.8125 29 15.75 C 29.507812 14.8125 30.277344 12.296875 30.277344 11.046875 C 30.277344 11.046875 29.847656 12.902344 29.566406 13.632812 C 29.015625 15.058594 28.628906 15.492188 28.429688 15.910156 C 28.429688 15.910156 29.847656 12.25 29.847656 9.792969 C 29.847656 9.574219 29.847656 7.988281 29.667969 7.851562 C 29.6875 9.972656 29.796875 11.183594 28.898438 13.648438 C 28.894531 13.648438 28.449219 14.726562 28.449219 14.726562 C 28.570312 14.207031 30.121094 10.636719 28.632812 6.183594 C 28.585938 6.039062 28.539062 5.734375 28.414062 5.644531 M 26.332031 5.734375 C 26.308594 5.757812 26.308594 5.757812 26.332031 5.734375 M 21.648438 7.726562 C 21.339844 8.308594 20.925781 8.824219 20.632812 9.414062 C 18.140625 14.398438 20.210938 16.957031 20.730469 18.207031 C 20.710938 18.207031 19.875 17.097656 19.621094 16.484375 C 19.347656 16.484375 20.386719 18.0625 20.425781 18.136719 C 20.097656 17.90625 19.449219 17.023438 19.046875 15.785156 C 18.96875 15.785156 19.003906 16.695312 19.933594 17.992188 C 20.175781 18.332031 20.722656 18.886719 20.15625 18.414062 C 17.925781 16.28125 20.558594 18.929688 20.855469 19.464844 C 17.5625 16.335938 21.40625 20.019531 20.945312 20.019531 C 20.300781 19.167969 18.808594 17.800781 19.976562 19.050781 C 20.320312 19.421875 20.75 19.835938 20.945312 20.308594 C 16.492188 15.648438 22.957031 22.8125 19.816406 19.484375 C 20.066406 19.890625 19.933594 19.683594 20.480469 20.46875 C 20.160156 20.242188 19.894531 19.816406 19.664062 19.5 C 16.992188 15.777344 20.351562 10.765625 19.179688 12.84375 C 16.359375 17.847656 19.722656 20.613281 19.925781 20.902344 C 19.214844 20.496094 17.949219 19.0625 17.714844 17.273438 C 17.621094 17.273438 17.84375 18.117188 17.863281 18.191406 C 18.371094 20.125 19.347656 20.570312 19.726562 21.097656 C 18.941406 20.769531 18.128906 19.84375 17.96875 19.5 C 17.835938 19.5 18.261719 20.042969 18.347656 20.148438 C 18.957031 20.878906 19.796875 21.386719 19.796875 21.386719 C 19.132812 21.332031 18.605469 20.867188 18.128906 20.453125 C 18.203125 20.671875 18.453125 20.847656 18.632812 20.984375 C 19.417969 21.574219 20.515625 21.726562 20.515625 21.726562 C 19.546875 21.722656 18.851562 21.285156 18.632812 21.207031 C 18.808594 21.417969 19.621094 21.816406 20.285156 21.871094 C 20.285156 22 19.15625 21.613281 18.957031 21.566406 C 19.082031 21.71875 19.34375 21.808594 19.53125 21.871094 C 19.53125 22.097656 18.097656 21.191406 18.023438 21.152344 C 18.582031 21.945312 19.683594 22.128906 20.550781 22.335938 C 20.550781 22.410156 19.621094 22.316406 18.972656 22.0625 C 18.707031 21.957031 18.453125 21.777344 18.183594 21.691406 C 18.617188 22.121094 19.273438 22.46875 19.851562 22.660156 C 19.851562 22.734375 18.511719 22.652344 17.25 21.007812 C 17.292969 21.683594 19.152344 22.800781 19.152344 22.804688 C 18.496094 22.625 18.0625 22.136719 17.574219 21.707031 C 17.675781 22.035156 18.738281 23.101562 19.761719 23.449219 C 19.761719 23.523438 18.734375 23.34375 17.449219 21.832031 C 17.503906 22.160156 18.3125 23.191406 19.367188 23.683594 C 19.367188 23.847656 18.53125 23.199219 18.34375 23.039062 C 16.855469 21.800781 16.621094 20.175781 16.621094 18.226562 C 16.546875 18.226562 16.441406 20.578125 16.613281 21.527344 C 17.042969 23.929688 19.058594 24.964844 19.65625 25.371094 C 19.65625 25.445312 18.328125 24.8125 17.449219 23.84375 C 16.972656 23.316406 16.585938 22.714844 16.585938 22.714844 C 16.878906 23.941406 19.070312 25.417969 19.332031 25.601562 C 19.332031 25.675781 18.054688 25.058594 17.195312 24.238281 C 17.398438 24.695312 18.792969 25.507812 19.332031 25.871094 C 19.332031 25.910156 18.023438 25.519531 17.394531 25.046875 C 16.953125 24.71875 16.257812 23.609375 16.957031 25.011719 C 17.648438 26.390625 18.757812 27.992188 20.085938 29.261719 C 23.097656 32.144531 22.53125 30.882812 24.300781 33.769531 C 26.175781 36.828125 27.011719 39.871094 26.816406 39.871094 C 26.726562 39.214844 26.414062 38.546875 26.1875 37.929688 C 23.933594 31.773438 20.699219 31.695312 18.246094 28.292969 C 16.011719 25.199219 15.226562 21.355469 16.503906 16.753906 C 17.058594 14.753906 18.054688 12.914062 18.183594 12.609375 C 18.183594 12.609375 16.824219 16.261719 17.464844 18.496094 C 17.988281 20.324219 16.074219 15.375 20.125 9.683594 C 20.242188 9.519531 21.421875 7.894531 21.648438 7.726562 M 26.628906 8.566406 C 26.621094 8.582031 26.621094 8.582031 26.628906 8.566406 M 32.449219 12.125 C 32.449219 12.199219 32.425781 12.195312 32.449219 12.125 M 32.46875 12.214844 C 32.445312 12.238281 32.445312 12.238281 32.46875 12.214844 M 30.65625 13.308594 C 30.65625 13.40625 30.632812 13.402344 30.65625 13.308594 M 30.636719 13.398438 C 30.625 14.058594 30.363281 14.785156 30.121094 15.390625 C 27.984375 20.734375 23.664062 20.203125 23.246094 26.285156 C 23.238281 26.40625 23.257812 26.660156 23.207031 26.660156 C 23.207031 22.808594 23.835938 22.117188 26.636719 19.691406 C 30.644531 16.222656 30.285156 14.132812 30.636719 13.398438 M 28.441406 14.738281 C 28.433594 14.753906 28.433594 14.753906 28.441406 14.738281 M 28.429688 14.78125 C 28.40625 14.804688 28.40625 14.804688 28.429688 14.78125 M 28.40625 15.921875 C 28.398438 15.9375 28.398438 15.9375 28.40625 15.921875 M 20.875 19.484375 C 20.851562 19.507812 20.851562 19.507812 20.875 19.484375 M 29.238281 20.019531 C 29.167969 20.09375 29.167969 20.09375 29.238281 20.019531 M 19.835938 21.382812 C 19.8125 21.410156 19.8125 21.410156 19.835938 21.382812 M 21.648438 21.511719 C 21.648438 21.632812 21.625 21.625 21.648438 21.511719 M 21.628906 21.617188 C 21.628906 21.691406 21.605469 21.6875 21.628906 21.617188 M 19.566406 21.894531 C 19.585938 21.894531 19.550781 21.910156 19.566406 21.894531 M 36.183594 21.886719 C 35.96875 23.585938 36.457031 26.167969 32.601562 32.152344 C 32.085938 32.949219 31.785156 33.136719 31.75 33.371094 C 31.824219 33.335938 36.273438 28.902344 36.273438 22.730469 C 36.273438 22.605469 36.304688 21.886719 36.183594 21.886719 M 19.636719 21.90625 C 19.613281 21.929688 19.613281 21.929688 19.636719 21.90625 M 41.09375 22.597656 C 41.085938 22.613281 41.085938 22.613281 41.09375 22.597656 M 19.796875 23.464844 C 19.773438 23.488281 19.773438 23.492188 19.796875 23.464844 M 19.402344 23.699219 C 19.378906 23.722656 19.378906 23.722656 19.402344 23.699219 M 31.210938 24.6875 C 30.851562 25.3125 30.0625 25.699219 29.488281 26.097656 C 27.621094 27.40625 26.371094 29.136719 26.296875 30.054688 C 26.296875 30.054688 27.109375 27.878906 29.363281 26.679688 C 29.339844 26.710938 28.285156 27.644531 27.59375 28.707031 C 26.007812 31.136719 26.453125 33.644531 26.492188 34.519531 C 26.464844 34.519531 26.25 32.953125 26.246094 32.925781 C 26.234375 32.03125 26.238281 30.648438 26.128906 31.542969 C 25.992188 32.714844 26.195312 33.582031 26.367188 34.898438 C 26.3125 34.898438 25.914062 33.074219 25.871094 32.726562 C 25.382812 28.828125 28.03125 26.792969 28.339844 26.195312 C 27.851562 26.546875 27.445312 27.023438 27.085938 27.503906 C 25.089844 30.164062 25.632812 32.613281 25.667969 33.410156 C 25.53125 33.152344 25.402344 31.902344 25.378906 31.34375 C 25.203125 27.300781 27.5 25.566406 31.210938 24.6875 M 19.367188 25.621094 C 19.34375 25.644531 19.34375 25.644531 19.367188 25.621094 M 15.492188 27.269531 C 15.539062 27.367188 15.539062 27.367188 15.492188 27.269531 M 35.898438 27.828125 C 35.898438 27.902344 35.871094 27.898438 35.898438 27.828125 M 15.941406 28.8125 C 16.035156 28.933594 16.035156 28.933594 15.941406 28.8125 M 17 30.105469 C 16.925781 30.082031 16.925781 30.082031 17 30.105469 M 17.125 30.722656 C 17.144531 30.722656 17.109375 30.738281 17.125 30.722656 M 14.398438 30.753906 C 14.683594 30.992188 14.683594 30.992188 14.398438 30.753906 M 14.792969 30.753906 C 14.933594 30.871094 14.9375 30.863281 14.773438 30.769531 L 14.792969 30.753906 M 16.121094 30.769531 C 16.222656 30.824219 16.210938 30.832031 16.101562 30.789062 L 16.121094 30.769531 M 14.933594 30.84375 C 14.910156 30.867188 14.910156 30.867188 14.933594 30.84375 M 14.648438 30.933594 C 14.671875 30.980469 14.671875 30.980469 14.648438 30.933594 M 16.65625 31.421875 C 16.679688 31.421875 16.644531 31.4375 16.65625 31.421875 M 16.710938 31.433594 C 16.789062 31.460938 16.78125 31.472656 16.695312 31.453125 L 16.710938 31.433594 M 16.800781 31.46875 C 16.777344 31.496094 16.777344 31.496094 16.800781 31.46875 M 37.996094 34.234375 C 37.910156 34.863281 37.65625 35.496094 37.425781 36.082031 C 36.296875 38.960938 35.199219 39.902344 33.078125 41.597656 C 32.796875 41.824219 31.011719 43.164062 30.890625 43.226562 C 30.890625 43.464844 32.914062 41.941406 32.988281 41.886719 C 35.902344 39.699219 36.28125 38.808594 37.0625 37.625 C 37.136719 37.625 36.480469 39.425781 35.25 40.621094 C 32.875 42.9375 28.246094 44.242188 27.191406 47.476562 C 27.089844 47.476562 27.253906 44.03125 31.660156 40.519531 C 31.847656 40.371094 32.183594 40.195312 32.289062 39.976562 C 30.398438 40.859375 28.234375 43.800781 28.234375 43.800781 C 28.472656 43.226562 29.667969 41.375 31.429688 40.242188 C 32.449219 39.582031 33.714844 39.132812 35.339844 37.855469 C 36.902344 36.625 37.640625 34.660156 37.996094 34.234375 M 29.800781 36.847656 C 29.808594 36.863281 29.808594 36.863281 29.800781 36.847656 M 32.433594 37.105469 C 32.386719 37.152344 32.386719 37.152344 32.433594 37.105469 M 40.453125 38.398438 C 40.40625 38.46875 40.40625 38.46875 40.453125 38.398438 M 40.417969 38.46875 C 40.394531 38.492188 40.394531 38.492188 40.417969 38.46875 M 41.925781 39.222656 C 41.878906 39.292969 41.878906 39.292969 41.925781 39.222656 M 12.152344 39.296875 C 12.175781 39.367188 12.175781 39.367188 12.152344 39.296875 M 26.84375 39.898438 C 26.835938 39.914062 26.835938 39.914062 26.84375 39.898438 M 15.042969 40.300781 C 15.019531 40.324219 15.019531 40.324219 15.042969 40.300781 M 23.371094 40.945312 C 23.347656 40.96875 23.347656 40.96875 23.371094 40.945312 M 14.628906 40.980469 C 14.796875 41.171875 14.796875 41.171875 14.628906 40.980469 M 23.386719 40.980469 C 23.363281 41.003906 23.363281 41.007812 23.386719 40.980469 M 18.578125 41.109375 C 18.554688 41.132812 18.554688 41.132812 18.578125 41.109375 M 12.046875 41.324219 C 12.023438 41.347656 12.023438 41.347656 12.046875 41.324219 M 24.28125 41.335938 C 24.269531 41.351562 24.269531 41.351562 24.28125 41.335938 M 38.246094 41.328125 C 38.269531 41.328125 38.230469 41.34375 38.246094 41.328125 M 28.234375 43.816406 C 28.210938 43.839844 28.210938 43.839844 28.234375 43.816406 M 24.621094 46.289062 L 24.613281 46.300781 Z M 24.621094 46.289062 " fill-opacity="1" fill-rule="nonzero"/></g><g fill="#76984b" fill-opacity="1"><g transform="translate(52.244705, 36.89662)"><g><path d="M 11.28125 0 L 0.640625 0 C 1.054688 -0.425781 1.34375 -0.929688 1.5 -1.515625 C 1.664062 -2.097656 1.75 -2.84375 1.75 -3.75 L 1.75 -18.5 C 1.75 -19.40625 1.664062 -20.148438 1.5 -20.734375 C 1.34375 -21.316406 1.054688 -21.820312 0.640625 -22.25 L 8.421875 -22.25 C 9.097656 -22.25 9.554688 -22.007812 9.796875 -21.53125 C 10.046875 -21.050781 10.171875 -20.410156 10.171875 -19.609375 L 10.171875 -19.0625 C 10.171875 -18.6875 10.191406 -18.46875 10.234375 -18.40625 C 10.273438 -18.34375 10.328125 -18.3125 10.390625 -18.3125 C 10.648438 -18.3125 10.898438 -18.457031 11.140625 -18.75 C 11.378906 -19.050781 11.660156 -19.421875 11.984375 -19.859375 C 12.316406 -20.304688 12.722656 -20.742188 13.203125 -21.171875 C 13.679688 -21.609375 14.285156 -21.972656 15.015625 -22.265625 C 15.742188 -22.566406 16.648438 -22.71875 17.734375 -22.71875 C 19.273438 -22.71875 20.429688 -22.320312 21.203125 -21.53125 C 21.984375 -20.738281 22.507812 -19.78125 22.78125 -18.65625 C 22.894531 -18.445312 23.015625 -18.335938 23.140625 -18.328125 C 23.265625 -18.316406 23.347656 -18.3125 23.390625 -18.3125 C 23.640625 -18.3125 23.882812 -18.457031 24.125 -18.75 C 24.375 -19.050781 24.660156 -19.421875 24.984375 -19.859375 C 25.316406 -20.304688 25.722656 -20.742188 26.203125 -21.171875 C 26.679688 -21.609375 27.285156 -21.972656 28.015625 -22.265625 C 28.742188 -22.566406 29.648438 -22.71875 30.734375 -22.71875 C 31.898438 -22.71875 32.835938 -22.488281 33.546875 -22.03125 C 34.253906 -21.582031 34.796875 -20.976562 35.171875 -20.21875 C 35.554688 -19.46875 35.816406 -18.660156 35.953125 -17.796875 C 36.097656 -16.929688 36.171875 -16.082031 36.171875 -15.25 L 36.203125 -9.1875 L 36.203125 -3.75 C 36.203125 -2.84375 36.28125 -2.097656 36.4375 -1.515625 C 36.59375 -0.929688 36.882812 -0.425781 37.3125 0 L 26.671875 0 C 27.085938 -0.425781 27.375 -0.929688 27.53125 -1.515625 C 27.695312 -2.097656 27.78125 -2.84375 27.78125 -3.75 L 27.78125 -14.078125 C 27.78125 -14.816406 27.648438 -15.472656 27.390625 -16.046875 C 27.140625 -16.617188 26.664062 -16.90625 25.96875 -16.90625 C 25.289062 -16.90625 24.675781 -16.628906 24.125 -16.078125 C 23.570312 -15.523438 23.253906 -14.488281 23.171875 -12.96875 L 23.203125 -9.1875 L 23.203125 -3.75 C 23.203125 -2.84375 23.28125 -2.097656 23.4375 -1.515625 C 23.59375 -0.929688 23.882812 -0.425781 24.3125 0 L 13.671875 0 C 14.085938 -0.425781 14.375 -0.929688 14.53125 -1.515625 C 14.695312 -2.097656 14.78125 -2.84375 14.78125 -3.75 L 14.78125 -14.078125 C 14.78125 -14.816406 14.648438 -15.472656 14.390625 -16.046875 C 14.140625 -16.617188 13.664062 -16.90625 12.96875 -16.90625 C 12.476562 -16.90625 12.019531 -16.769531 11.59375 -16.5 C 11.175781 -16.238281 10.832031 -15.785156 10.5625 -15.140625 C 10.300781 -14.492188 10.171875 -13.578125 10.171875 -12.390625 L 10.171875 -3.75 C 10.171875 -2.84375 10.25 -2.097656 10.40625 -1.515625 C 10.5625 -0.929688 10.851562 -0.425781 11.28125 0 Z M 11.28125 0 "/></g></g></g><g fill="#76984b" fill-opacity="1"><g transform="translate(89.714522, 36.89662)"><g><path d="M 0 -18.84375 C 0 -19.007812 0.0507812 -19.113281 0.15625 -19.15625 C 0.257812 -19.207031 0.320312 -19.242188 0.34375 -19.265625 C 0.601562 -19.390625 1.003906 -19.582031 1.546875 -19.84375 C 2.085938 -20.113281 2.703125 -20.410156 3.390625 -20.734375 C 4.078125 -21.066406 4.78125 -21.378906 5.5 -21.671875 C 6.21875 -21.972656 6.882812 -22.222656 7.5 -22.421875 C 8.113281 -22.617188 8.613281 -22.71875 9 -22.71875 C 9.457031 -22.71875 9.726562 -22.585938 9.8125 -22.328125 C 9.90625 -22.078125 9.953125 -21.796875 9.953125 -21.484375 L 9.953125 -3.75 C 9.953125 -2.84375 10.03125 -2.097656 10.1875 -1.515625 C 10.34375 -0.929688 10.632812 -0.425781 11.0625 0 L 0.40625 0 C 0.832031 -0.425781 1.125 -0.929688 1.28125 -1.515625 C 1.445312 -2.097656 1.53125 -2.84375 1.53125 -3.75 L 1.53125 -15.953125 C 1.53125 -16.078125 1.523438 -16.304688 1.515625 -16.640625 C 1.503906 -16.984375 1.425781 -17.328125 1.28125 -17.671875 C 1.144531 -18.023438 0.878906 -18.269531 0.484375 -18.40625 C 0.429688 -18.425781 0.335938 -18.457031 0.203125 -18.5 C 0.0664062 -18.539062 0 -18.65625 0 -18.84375 Z M 5.65625 -33.65625 C 7.050781 -33.65625 8.171875 -33.226562 9.015625 -32.375 C 9.867188 -31.53125 10.296875 -30.410156 10.296875 -29.015625 C 10.296875 -27.617188 9.867188 -26.492188 9.015625 -25.640625 C 8.171875 -24.796875 7.050781 -24.375 5.65625 -24.375 C 4.257812 -24.375 3.132812 -24.796875 2.28125 -25.640625 C 1.4375 -26.492188 1.015625 -27.617188 1.015625 -29.015625 C 1.015625 -30.410156 1.4375 -31.53125 2.28125 -32.375 C 3.132812 -33.226562 4.257812 -33.65625 5.65625 -33.65625 Z M 5.65625 -33.65625 "/></g></g></g><g fill="#76984b" fill-opacity="1"><g transform="translate(100.933217, 36.89662)"><g><path d="M -0.3125 -18.84375 C -0.3125 -19.007812 -0.257812 -19.113281 -0.15625 -19.15625 C -0.0507812 -19.207031 0.0078125 -19.242188 0.03125 -19.265625 C 0.28125 -19.367188 0.6875 -19.546875 1.25 -19.796875 C 1.8125 -20.054688 2.457031 -20.347656 3.1875 -20.671875 C 3.925781 -21.003906 4.664062 -21.328125 5.40625 -21.640625 C 6.144531 -21.960938 6.832031 -22.222656 7.46875 -22.421875 C 8.101562 -22.617188 8.613281 -22.71875 9 -22.71875 C 9.457031 -22.71875 9.726562 -22.585938 9.8125 -22.328125 C 9.90625 -22.078125 9.953125 -21.796875 9.953125 -21.484375 L 9.953125 -20.53125 C 10.015625 -20.382812 10.085938 -20.296875 10.171875 -20.265625 C 10.253906 -20.234375 10.347656 -20.21875 10.453125 -20.21875 C 10.617188 -20.21875 10.820312 -20.34375 11.0625 -20.59375 C 11.3125 -20.84375 11.640625 -21.128906 12.046875 -21.453125 C 12.453125 -21.785156 12.953125 -22.078125 13.546875 -22.328125 C 14.148438 -22.585938 14.898438 -22.71875 15.796875 -22.71875 C 17.359375 -22.71875 18.707031 -22.363281 19.84375 -21.65625 C 20.976562 -20.945312 21.910156 -20.007812 22.640625 -18.84375 C 23.367188 -17.675781 23.910156 -16.382812 24.265625 -14.96875 C 24.617188 -13.550781 24.796875 -12.117188 24.796875 -10.671875 C 24.796875 -8.617188 24.441406 -6.75 23.734375 -5.0625 C 23.035156 -3.382812 22.015625 -2.039062 20.671875 -1.03125 C 19.328125 -0.0195312 17.703125 0.484375 15.796875 0.484375 C 14.972656 0.484375 14.101562 0.273438 13.1875 -0.140625 C 12.28125 -0.554688 11.390625 -1.441406 10.515625 -2.796875 C 10.410156 -2.960938 10.289062 -3.082031 10.15625 -3.15625 C 10.019531 -3.238281 9.953125 -3.160156 9.953125 -2.921875 L 9.953125 6.921875 C 9.953125 7.734375 9.828125 8.367188 9.578125 8.828125 C 9.335938 9.296875 8.878906 9.53125 8.203125 9.53125 L 0.40625 9.53125 C 0.832031 9.113281 1.125 8.613281 1.28125 8.03125 C 1.445312 7.445312 1.53125 6.695312 1.53125 5.78125 L 1.53125 -15.953125 C 1.53125 -16.078125 1.519531 -16.300781 1.5 -16.625 C 1.476562 -16.957031 1.375 -17.289062 1.1875 -17.625 C 1.007812 -17.96875 0.664062 -18.226562 0.15625 -18.40625 C 0.113281 -18.425781 0.0234375 -18.457031 -0.109375 -18.5 C -0.242188 -18.539062 -0.3125 -18.65625 -0.3125 -18.84375 Z M 9.953125 -14.71875 L 9.953125 -8.515625 C 9.953125 -8.066406 9.976562 -7.5625 10.03125 -7 C 10.082031 -6.445312 10.203125 -5.898438 10.390625 -5.359375 C 10.578125 -4.816406 10.859375 -4.367188 11.234375 -4.015625 C 11.609375 -3.671875 12.113281 -3.5 12.75 -3.5 C 13.632812 -3.5 14.328125 -3.738281 14.828125 -4.21875 C 15.328125 -4.707031 15.6875 -5.347656 15.90625 -6.140625 C 16.125 -6.941406 16.257812 -7.816406 16.3125 -8.765625 C 16.375 -9.722656 16.40625 -10.65625 16.40625 -11.5625 C 16.40625 -12.4375 16.347656 -13.328125 16.234375 -14.234375 C 16.128906 -15.148438 15.925781 -16 15.625 -16.78125 C 15.332031 -17.5625 14.914062 -18.191406 14.375 -18.671875 C 13.84375 -19.148438 13.128906 -19.390625 12.234375 -19.390625 C 11.742188 -19.390625 11.34375 -19.222656 11.03125 -18.890625 C 10.726562 -18.566406 10.5 -18.15625 10.34375 -17.65625 C 10.1875 -17.15625 10.082031 -16.640625 10.03125 -16.109375 C 9.976562 -15.578125 9.953125 -15.113281 9.953125 -14.71875 Z M 9.953125 -14.71875 "/></g></g></g><g fill="#76984b" fill-opacity="1"><g transform="translate(126.516935, 36.89662)"><g><path d="M 0.15625 -27.9375 C 0.113281 -27.957031 0.0234375 -27.988281 -0.109375 -28.03125 C -0.242188 -28.070312 -0.3125 -28.1875 -0.3125 -28.375 C -0.3125 -28.550781 -0.257812 -28.660156 -0.15625 -28.703125 C -0.0507812 -28.742188 0.0078125 -28.773438 0.03125 -28.796875 C 0.28125 -28.921875 0.6875 -29.113281 1.25 -29.375 C 1.8125 -29.644531 2.453125 -29.941406 3.171875 -30.265625 C 3.898438 -30.597656 4.640625 -30.910156 5.390625 -31.203125 C 6.140625 -31.503906 6.832031 -31.753906 7.46875 -31.953125 C 8.101562 -32.160156 8.613281 -32.265625 9 -32.265625 C 9.457031 -32.265625 9.726562 -32.132812 9.8125 -31.875 C 9.90625 -31.625 9.953125 -31.335938 9.953125 -31.015625 L 9.953125 -3.75 C 9.953125 -2.84375 10.03125 -2.097656 10.1875 -1.515625 C 10.34375 -0.929688 10.632812 -0.425781 11.0625 0 L 3.28125 0 C 2.59375 0 2.128906 -0.226562 1.890625 -0.6875 C 1.648438 -1.15625 1.53125 -1.796875 1.53125 -2.609375 L 1.53125 -25.484375 C 1.53125 -25.609375 1.523438 -25.84375 1.515625 -26.1875 C 1.503906 -26.53125 1.398438 -26.875 1.203125 -27.21875 C 1.015625 -27.570312 0.664062 -27.8125 0.15625 -27.9375 Z M 0.15625 -27.9375 "/></g></g></g><g fill="#76984b" fill-opacity="1"><g transform="translate(137.894539, 36.89662)"><g><path d="M 0.796875 -4.953125 C 0.796875 -6.648438 1.132812 -8.140625 1.8125 -9.421875 C 2.488281 -10.703125 3.40625 -11.800781 4.5625 -12.71875 C 5.71875 -13.644531 7.007812 -14.40625 8.4375 -15 C 9.863281 -15.59375 11.320312 -16.050781 12.8125 -16.375 C 13.269531 -16.476562 13.570312 -16.664062 13.71875 -16.9375 C 13.875 -17.21875 13.953125 -17.492188 13.953125 -17.765625 C 13.953125 -18.234375 13.878906 -18.710938 13.734375 -19.203125 C 13.597656 -19.703125 13.332031 -20.125 12.9375 -20.46875 C 12.550781 -20.820312 11.96875 -20.988281 11.1875 -20.96875 C 10.382812 -20.945312 9.65625 -20.710938 9 -20.265625 C 8.34375 -19.828125 7.742188 -19.285156 7.203125 -18.640625 C 6.660156 -17.992188 6.15625 -17.347656 5.6875 -16.703125 C 5.21875 -16.054688 4.773438 -15.515625 4.359375 -15.078125 C 3.953125 -14.640625 3.546875 -14.421875 3.140625 -14.421875 C 2.890625 -14.421875 2.660156 -14.519531 2.453125 -14.71875 C 2.253906 -14.925781 2.15625 -15.171875 2.15625 -15.453125 L 2.15625 -17.1875 C 2.15625 -17.738281 2.160156 -18.28125 2.171875 -18.8125 C 2.179688 -19.34375 2.390625 -19.800781 2.796875 -20.1875 C 3.878906 -21.21875 5.207031 -21.894531 6.78125 -22.21875 C 8.363281 -22.550781 9.988281 -22.71875 11.65625 -22.71875 C 13.476562 -22.71875 15.066406 -22.4375 16.421875 -21.875 C 17.785156 -21.320312 18.90625 -20.582031 19.78125 -19.65625 C 20.664062 -18.738281 21.320312 -17.71875 21.75 -16.59375 C 22.1875 -15.46875 22.40625 -14.332031 22.40625 -13.1875 L 22.40625 -3.75 C 22.40625 -2.84375 22.484375 -2.097656 22.640625 -1.515625 C 22.796875 -0.929688 23.085938 -0.425781 23.515625 0 L 15.734375 0 C 14.796875 0 14.242188 -0.453125 14.078125 -1.359375 C 14.035156 -1.640625 13.945312 -1.894531 13.8125 -2.125 C 13.675781 -2.363281 13.488281 -2.484375 13.25 -2.484375 C 12.914062 -2.484375 12.582031 -2.332031 12.25 -2.03125 C 11.925781 -1.738281 11.53125 -1.394531 11.0625 -1 C 10.59375 -0.601562 9.992188 -0.257812 9.265625 0.03125 C 8.535156 0.332031 7.597656 0.484375 6.453125 0.484375 C 5.429688 0.484375 4.492188 0.238281 3.640625 -0.25 C 2.785156 -0.738281 2.097656 -1.390625 1.578125 -2.203125 C 1.054688 -3.023438 0.796875 -3.941406 0.796875 -4.953125 Z M 12.8125 -14.296875 C 12.132812 -14.296875 11.445312 -14.035156 10.75 -13.515625 C 10.0625 -13.003906 9.492188 -12.273438 9.046875 -11.328125 C 8.609375 -10.390625 8.390625 -9.257812 8.390625 -7.9375 C 8.390625 -7.195312 8.476562 -6.492188 8.65625 -5.828125 C 8.84375 -5.160156 9.148438 -4.613281 9.578125 -4.1875 C 10.015625 -3.769531 10.625 -3.5625 11.40625 -3.5625 C 12.28125 -3.5625 12.925781 -3.90625 13.34375 -4.59375 C 13.769531 -5.28125 13.984375 -6.144531 13.984375 -7.1875 C 13.984375 -8.175781 13.976562 -9.035156 13.96875 -9.765625 C 13.957031 -10.503906 13.953125 -11.359375 13.953125 -12.328125 C 13.953125 -13.046875 13.863281 -13.550781 13.6875 -13.84375 C 13.519531 -14.144531 13.226562 -14.296875 12.8125 -14.296875 Z M 12.8125 -14.296875 "/></g></g></g><g fill="#76984b" fill-opacity="1"><g transform="translate(161.571391, 36.89662)"><g><path d="M 10.96875 0 L 0.3125 0 C 0.738281 -0.425781 1.03125 -0.929688 1.1875 -1.515625 C 1.351562 -2.097656 1.4375 -2.84375 1.4375 -3.75 L 1.4375 -18.5 C 1.4375 -19.40625 1.351562 -20.148438 1.1875 -20.734375 C 1.03125 -21.316406 0.738281 -21.820312 0.3125 -22.25 L 8.109375 -22.25 C 8.785156 -22.25 9.242188 -22.007812 9.484375 -21.53125 C 9.734375 -21.050781 9.859375 -20.410156 9.859375 -19.609375 L 9.859375 -19.0625 C 9.859375 -18.6875 9.878906 -18.46875 9.921875 -18.40625 C 9.960938 -18.34375 10.015625 -18.3125 10.078125 -18.3125 C 10.328125 -18.3125 10.570312 -18.457031 10.8125 -18.75 C 11.0625 -19.050781 11.347656 -19.421875 11.671875 -19.859375 C 12.003906 -20.304688 12.410156 -20.742188 12.890625 -21.171875 C 13.367188 -21.609375 13.972656 -21.972656 14.703125 -22.265625 C 15.429688 -22.566406 16.335938 -22.71875 17.421875 -22.71875 C 18.578125 -22.71875 19.507812 -22.488281 20.21875 -22.03125 C 20.9375 -21.582031 21.484375 -20.976562 21.859375 -20.21875 C 22.242188 -19.46875 22.503906 -18.660156 22.640625 -17.796875 C 22.773438 -16.929688 22.84375 -16.082031 22.84375 -15.25 L 22.875 -9.1875 L 22.875 -3.75 C 22.875 -2.84375 22.953125 -2.097656 23.109375 -1.515625 C 23.273438 -0.929688 23.570312 -0.425781 24 0 L 13.34375 0 C 13.769531 -0.425781 14.0625 -0.929688 14.21875 -1.515625 C 14.375 -2.097656 14.453125 -2.84375 14.453125 -3.75 L 14.453125 -14.078125 C 14.453125 -14.816406 14.328125 -15.472656 14.078125 -16.046875 C 13.828125 -16.617188 13.351562 -16.90625 12.65625 -16.90625 C 12.164062 -16.90625 11.707031 -16.769531 11.28125 -16.5 C 10.851562 -16.238281 10.507812 -15.785156 10.25 -15.140625 C 9.988281 -14.492188 9.859375 -13.578125 9.859375 -12.390625 L 9.859375 -3.75 C 9.859375 -2.84375 9.9375 -2.097656 10.09375 -1.515625 C 10.25 -0.929688 10.539062 -0.425781 10.96875 0 Z M 10.96875 0 "/></g></g></g><g fill="#76984b" fill-opacity="1"><g transform="translate(185.724967, 36.89662)"><g><path d="M 0 -22.25 C 0.632812 -22.25 1.34375 -22.46875 2.125 -22.90625 C 2.914062 -23.351562 3.710938 -23.910156 4.515625 -24.578125 C 5.316406 -25.242188 6.078125 -25.90625 6.796875 -26.5625 C 7.515625 -27.21875 8.148438 -27.769531 8.703125 -28.21875 C 9.253906 -28.664062 9.660156 -28.890625 9.921875 -28.890625 C 10.316406 -28.890625 10.515625 -28.632812 10.515625 -28.125 L 10.515625 -22.25 L 13.25 -22.25 L 13.25 -20.65625 L 10.515625 -20.65625 L 10.515625 -7.8125 C 10.515625 -6.988281 10.523438 -6.160156 10.546875 -5.328125 C 10.566406 -4.503906 10.679688 -3.765625 10.890625 -3.109375 C 11.109375 -2.453125 11.492188 -1.945312 12.046875 -1.59375 C 12.171875 -1.507812 12.300781 -1.46875 12.4375 -1.46875 C 12.582031 -1.46875 12.726562 -1.441406 12.875 -1.390625 C 12.832031 -1.015625 12.625 -0.679688 12.25 -0.390625 C 11.882812 -0.109375 11.445312 0.101562 10.9375 0.25 C 10.425781 0.40625 9.914062 0.484375 9.40625 0.484375 C 7.882812 0.484375 6.660156 0.226562 5.734375 -0.28125 C 4.816406 -0.789062 4.117188 -1.472656 3.640625 -2.328125 C 3.160156 -3.191406 2.84375 -4.148438 2.6875 -5.203125 C 2.53125 -6.265625 2.453125 -7.335938 2.453125 -8.421875 L 2.453125 -18.625 C 2.453125 -18.9375 2.4375 -19.25 2.40625 -19.5625 C 2.375 -19.882812 2.253906 -20.144531 2.046875 -20.34375 C 1.847656 -20.550781 1.492188 -20.65625 0.984375 -20.65625 L 0 -20.65625 Z M 0 -22.25 "/></g></g></g><g fill="#76984b" fill-opacity="1"><g transform="translate(199.29546, 36.89662)"><g><path d="M 0.796875 -4.953125 C 0.796875 -6.648438 1.132812 -8.140625 1.8125 -9.421875 C 2.488281 -10.703125 3.40625 -11.800781 4.5625 -12.71875 C 5.71875 -13.644531 7.007812 -14.40625 8.4375 -15 C 9.863281 -15.59375 11.320312 -16.050781 12.8125 -16.375 C 13.269531 -16.476562 13.570312 -16.664062 13.71875 -16.9375 C 13.875 -17.21875 13.953125 -17.492188 13.953125 -17.765625 C 13.953125 -18.234375 13.878906 -18.710938 13.734375 -19.203125 C 13.597656 -19.703125 13.332031 -20.125 12.9375 -20.46875 C 12.550781 -20.820312 11.96875 -20.988281 11.1875 -20.96875 C 10.382812 -20.945312 9.65625 -20.710938 9 -20.265625 C 8.34375 -19.828125 7.742188 -19.285156 7.203125 -18.640625 C 6.660156 -17.992188 6.15625 -17.347656 5.6875 -16.703125 C 5.21875 -16.054688 4.773438 -15.515625 4.359375 -15.078125 C 3.953125 -14.640625 3.546875 -14.421875 3.140625 -14.421875 C 2.890625 -14.421875 2.660156 -14.519531 2.453125 -14.71875 C 2.253906 -14.925781 2.15625 -15.171875 2.15625 -15.453125 L 2.15625 -17.1875 C 2.15625 -17.738281 2.160156 -18.28125 2.171875 -18.8125 C 2.179688 -19.34375 2.390625 -19.800781 2.796875 -20.1875 C 3.878906 -21.21875 5.207031 -21.894531 6.78125 -22.21875 C 8.363281 -22.550781 9.988281 -22.71875 11.65625 -22.71875 C 13.476562 -22.71875 15.066406 -22.4375 16.421875 -21.875 C 17.785156 -21.320312 18.90625 -20.582031 19.78125 -19.65625 C 20.664062 -18.738281 21.320312 -17.71875 21.75 -16.59375 C 22.1875 -15.46875 22.40625 -14.332031 22.40625 -13.1875 L 22.40625 -3.75 C 22.40625 -2.84375 22.484375 -2.097656 22.640625 -1.515625 C 22.796875 -0.929688 23.085938 -0.425781 23.515625 0 L 15.734375 0 C 14.796875 0 14.242188 -0.453125 14.078125 -1.359375 C 14.035156 -1.640625 13.945312 -1.894531 13.8125 -2.125 C 13.675781 -2.363281 13.488281 -2.484375 13.25 -2.484375 C 12.914062 -2.484375 12.582031 -2.332031 12.25 -2.03125 C 11.925781 -1.738281 11.53125 -1.394531 11.0625 -1 C 10.59375 -0.601562 9.992188 -0.257812 9.265625 0.03125 C 8.535156 0.332031 7.597656 0.484375 6.453125 0.484375 C 5.429688 0.484375 4.492188 0.238281 3.640625 -0.25 C 2.785156 -0.738281 2.097656 -1.390625 1.578125 -2.203125 C 1.054688 -3.023438 0.796875 -3.941406 0.796875 -4.953125 Z M 12.8125 -14.296875 C 12.132812 -14.296875 11.445312 -14.035156 10.75 -13.515625 C 10.0625 -13.003906 9.492188 -12.273438 9.046875 -11.328125 C 8.609375 -10.390625 8.390625 -9.257812 8.390625 -7.9375 C 8.390625 -7.195312 8.476562 -6.492188 8.65625 -5.828125 C 8.84375 -5.160156 9.148438 -4.613281 9.578125 -4.1875 C 10.015625 -3.769531 10.625 -3.5625 11.40625 -3.5625 C 12.28125 -3.5625 12.925781 -3.90625 13.34375 -4.59375 C 13.769531 -5.28125 13.984375 -6.144531 13.984375 -7.1875 C 13.984375 -8.175781 13.976562 -9.035156 13.96875 -9.765625 C 13.957031 -10.503906 13.953125 -11.359375 13.953125 -12.328125 C 13.953125 -13.046875 13.863281 -13.550781 13.6875 -13.84375 C 13.519531 -14.144531 13.226562 -14.296875 12.8125 -14.296875 Z M 12.8125 -14.296875 "/></g></g></g></svg>