<svg xmlns="http://www.w3.org/2000/svg" xmlns:xlink="http://www.w3.org/1999/xlink" width="1080" zoomAndPan="magnify" viewBox="0 0 810 809.999993" height="1080" preserveAspectRatio="xMidYMid meet" version="1.0"><defs><g/><clipPath id="3fd50cb047"><path d="M 52.03125 52.03125 L 757.78125 52.03125 L 757.78125 757.78125 L 52.03125 757.78125 Z M 52.03125 52.03125 " clip-rule="nonzero"/></clipPath><clipPath id="c2da338516"><path d="M 262 122.328125 L 549 122.328125 L 549 504 L 262 504 Z M 262 122.328125 " clip-rule="nonzero"/></clipPath></defs><g clip-path="url(#3fd50cb047)"><path fill="#76984b" d="M 404.976562 757.921875 C 310.699219 757.921875 222.066406 721.210938 155.40625 654.546875 C 88.746094 587.882812 52.03125 499.253906 52.03125 404.976562 C 52.03125 310.699219 88.742188 222.066406 155.40625 155.40625 C 222.070312 88.742188 310.699219 52.03125 404.976562 52.03125 C 499.253906 52.03125 587.886719 88.742188 654.546875 155.40625 C 721.210938 222.070312 757.921875 310.703125 757.921875 404.976562 C 757.921875 499.253906 721.210938 587.886719 654.546875 654.546875 C 587.886719 721.210938 499.253906 757.921875 404.976562 757.921875 Z M 404.976562 53.5 C 211.171875 53.5 53.5 211.171875 53.5 404.976562 C 53.5 598.78125 211.171875 756.453125 404.976562 756.453125 C 598.78125 756.453125 756.453125 598.78125 756.453125 404.976562 C 756.453125 211.171875 598.78125 53.5 404.976562 53.5 Z M 404.976562 53.5 " fill-opacity="1" fill-rule="nonzero"/></g><g clip-path="url(#c2da338516)"><path fill="#76984b" d="M 407.714844 122.332031 C 394.691406 163.453125 334.449219 179.660156 314.199219 265.082031 C 309.167969 286.308594 307.425781 308.121094 315.832031 328.15625 C 315.96875 328.480469 319.835938 336.09375 319.523438 336.09375 C 317.132812 331.289062 307.398438 320.292969 307.398438 293.082031 C 306.503906 293.761719 300.671875 325.714844 323.277344 348.507812 C 320.59375 346.617188 310.695312 336.992188 306.097656 323.105469 C 305.8125 322.238281 305.757812 320.71875 304.945312 320.21875 C 305.054688 325.570312 308.289062 337.871094 321.253906 350.671875 C 328.109375 357.441406 331.5 358.613281 331.5 358.613281 C 327.203125 357.375 313.269531 349.050781 304.632812 333.496094 C 300.585938 326.1875 303.722656 335.214844 307.351562 340.859375 C 315.933594 354.1875 329.296875 362.652344 332.800781 363.664062 C 332.800781 364.265625 323.300781 361.539062 311.871094 353.917969 C 309.328125 352.222656 303.210938 347.640625 303.210938 347.640625 C 304.671875 351.941406 322.40625 363.253906 324.71875 364.097656 C 324.71875 366.59375 306.234375 352.640625 305.523438 352.40625 C 306.546875 355.417969 318.46875 363.554688 322.410156 365.914062 C 327.050781 368.699219 329.046875 369.4375 329.046875 369.4375 C 325.464844 368.410156 308.265625 360.789062 297.5 343.601562 C 296.820312 342.515625 296.089844 340.328125 294.984375 339.703125 C 297.242188 349.46875 309.5 360.144531 314.039062 364.097656 C 308.75 361.15625 303.273438 355.703125 299.730469 351.105469 C 296.269531 346.617188 297.425781 351.722656 310.863281 364.097656 C 274 341.148438 297.890625 273.695312 290.902344 296.835938 C 277.46875 341.429688 299.074219 374.277344 329.191406 383.089844 C 347.398438 388.414062 359.597656 385.289062 377.976562 400.601562 C 398.839844 417.984375 405.402344 439.179688 405.402344 468.164062 L 405.257812 468.164062 C 405.257812 461.90625 403.945312 455.582031 402.355469 449.546875 C 393.632812 416.367188 379.332031 406.382812 361.667969 397.546875 C 332.996094 383.199219 328.234375 392.65625 308.984375 377.96875 C 283.511719 358.53125 285.3125 320.507812 285.3125 320.507812 C 284.003906 326 285.382812 340.339844 285.5625 341.722656 C 291.8125 389.824219 336.710938 399.089844 351.277344 406.136719 C 381.890625 420.953125 391.027344 449.109375 390.25 449.109375 C 387.546875 442.839844 371.90625 423.625 357.339844 414.554688 C 354.9375 413.058594 346.191406 408.035156 343.339844 407.976562 C 344.136719 409.144531 346.960938 409.824219 348.246094 410.464844 C 368.351562 420.515625 381.109375 441.625 383.03125 446.082031 C 383.03125 446.082031 382.242188 444.394531 376.273438 437.710938 C 366.257812 426.496094 354.34375 419.441406 350.410156 418.371094 C 351.28125 419.914062 354.28125 421.113281 355.753906 422.128906 C 378.019531 437.46875 386.953125 460.371094 386.351562 460.371094 C 378.707031 442.640625 341.144531 416.832031 359.792969 433.007812 C 379.097656 449.761719 391.789062 479.824219 393.136719 488.949219 C 393.136719 488.949219 391.34375 482.089844 383.902344 471.34375 C 363.039062 441.210938 348.890625 447.132812 306.53125 405.816406 C 298.550781 398.03125 297.679688 398.023438 291.070312 386.183594 C 282.558594 370.933594 293.308594 403.738281 327.894531 433.773438 C 337.261719 441.910156 354.054688 454.019531 335.832031 441.46875 C 309.171875 423.085938 284.402344 392.597656 280.160156 360.34375 C 276.507812 332.558594 281.609375 320.953125 284.738281 305.785156 C 283.472656 306.179688 282.359375 310.78125 281.605469 313.4375 C 263.472656 377.328125 299.007812 415.976562 316.058594 440.886719 C 297.847656 422.675781 284.46875 400.5 277.46875 372.46875 C 274.875 362.164062 279.671875 397.1875 297.355469 425.730469 C 306.058594 439.773438 309.796875 442.191406 312.738281 446.371094 C 281.632812 415.265625 272.167969 379.171875 274.9375 338.839844 C 274.976562 338.238281 276.972656 318.429688 275.382812 326.425781 C 263.746094 384.816406 286.289062 417.632812 292.820312 432.804688 C 274.144531 411.222656 265.988281 365.835938 269.292969 339.703125 C 267.980469 340.703125 267.496094 369.25 269.476562 384.304688 C 274.777344 424.609375 290.527344 446.433594 291.953125 449.113281 C 267.71875 421.371094 263.394531 387.253906 264.242188 352.550781 C 264.808594 330.507812 234.367188 514.476562 403.09375 502.964844 C 434.78125 500.792969 443.515625 496.445312 458.230469 491.742188 C 491.703125 481.050781 507.171875 470.9375 523.214844 450.988281 C 552.359375 414.730469 554.027344 374.179688 538.964844 327.003906 C 530.574219 300.707031 520.992188 282.714844 525.636719 295.390625 C 524.484375 295.640625 526.09375 298.421875 525.492188 298.421875 C 525.078125 296.007812 513.792969 269.363281 510.339844 266.8125 C 509.875 269.046875 556.828125 356.679688 524.445312 419.378906 C 524.375 419.515625 520.695312 425.585938 520.585938 425.585938 C 536.441406 387.507812 539.929688 362.542969 520.777344 303.761719 C 510.132812 271.097656 492.898438 242.851562 492.296875 242.851562 C 492.570312 245.546875 493.132812 244.496094 502.644531 265.222656 C 511.375 284.238281 517.996094 303.394531 520.792969 323.824219 C 523.128906 341.023438 520.964844 319.832031 512.996094 298.710938 C 494.695312 250.15625 470.660156 213.5 486.484375 244.152344 C 514.585938 298.578125 512.671875 332.339844 512.070312 332.339844 C 511.898438 328.339844 507.164062 301.894531 498.023438 274.460938 C 494.285156 263.257812 486.921875 247.113281 493.011719 263.78125 C 503.515625 292.535156 506.34375 326.855469 505 326.855469 C 503.59375 294.101562 476.40625 224.800781 470.214844 221.632812 C 470.792969 223.648438 472.105469 225.554688 473.0625 227.40625 C 500.59375 280.746094 504.320312 366.910156 456.066406 415.191406 C 458.90625 410.632812 500.355469 363.996094 489.28125 285.144531 C 489.136719 284.097656 489.09375 282.738281 488.542969 281.824219 C 488.285156 284.167969 489.089844 286.824219 489.253906 289.183594 C 493.875 356.488281 451.277344 374.976562 434.710938 419.234375 C 429.378906 433.476562 437.144531 411.144531 452.300781 390.945312 C 458.503906 382.667969 479.78125 357.652344 483.636719 341 L 483.78125 341 C 476.746094 375.070312 437.921875 409.59375 432.683594 431.648438 C 432.351562 431.648438 432.242188 418.988281 432.257812 418.65625 C 433.957031 379.773438 463.925781 351.765625 477.078125 317.1875 C 494.742188 270.75 473.125 228.851562 472.519531 228.851562 C 472.816406 231.8125 474.734375 235.085938 475.648438 237.945312 C 497.367188 305.96875 447.402344 352.230469 434.476562 374.777344 C 423.957031 393.121094 420.5625 417.523438 420.558594 423.417969 C 419.957031 423.417969 419.863281 393.941406 432.167969 365.105469 C 447.851562 328.351562 472.769531 305.855469 463.753906 243.285156 C 458.632812 207.738281 449.660156 189.082031 447.550781 188.433594 C 448.859375 193.226562 457.6875 214.273438 455.921875 214.273438 C 455.234375 209.167969 440.296875 171.523438 438.023438 170.539062 C 438.367188 178.375 459.480469 217.660156 438.417969 261.183594 C 429.765625 279.0625 410.664062 291.429688 402.660156 299.433594 C 395.253906 306.839844 389.703125 317.003906 389.671875 321.082031 C 391.097656 320.273438 391.867188 317.050781 392.59375 315.597656 C 401.808594 297.148438 416.769531 291.382812 429.941406 278.214844 C 416.496094 297.882812 389.816406 298.222656 389.816406 353.558594 C 389.699219 353.558594 388.246094 341.40625 388.238281 341.292969 C 385.410156 299.96875 412.566406 286.355469 414.207031 281.535156 C 411.925781 282.417969 404.363281 290.46875 402.648438 292.359375 C 381.382812 315.804688 385.628906 333.640625 385.628906 346.488281 C 385.453125 346.488281 384.199219 334.824219 384.191406 334.652344 C 381.339844 269.582031 444.085938 291.015625 443.941406 200.417969 C 443.941406 199.816406 444.097656 192.1875 443.074219 192.1875 C 443.074219 192.1875 443.597656 201.816406 443.035156 206.476562 C 436.621094 259.402344 407.683594 267.949219 391.15625 286.730469 C 382.097656 297.027344 375.960938 316.699219 375.957031 329.019531 C 375.726562 329.019531 374.808594 318.859375 374.804688 318.628906 C 373.070312 247.339844 439.355469 246.523438 417.90625 160.289062 C 411.441406 134.355469 416.789062 159.058594 414.328125 184.828125 C 409.6875 233.402344 372.054688 257.964844 369.464844 289.761719 C 368.617188 289.761719 371.539062 279.828125 371.710938 279.222656 C 378.097656 256.816406 392.945312 240.992188 400.53125 225.816406 C 404.269531 218.351562 404.417969 215.660156 402.574219 219.898438 C 391.5625 245.289062 366.574219 262.085938 366.574219 309.679688 C 366.289062 309.679688 366.136719 296.398438 366.140625 296.109375 C 367.625 235.71875 394.9375 230.222656 407.375 192.90625 C 408.980469 188.085938 409.296875 185.980469 409.296875 185.980469 C 408.445312 205.898438 391.875 226.96875 391.113281 228.992188 C 392.699219 228.179688 400.472656 216.375 404.226562 207.628906 C 412.234375 188.984375 412.914062 156.714844 411.199219 142.390625 C 411.128906 141.785156 408.378906 123.433594 407.710938 122.324219 M 404.96875 138.0625 C 404.015625 160.324219 371.007812 193.320312 369.894531 204.171875 C 371.285156 203.019531 372.0625 200.695312 372.894531 199.117188 C 379.957031 185.746094 389.421875 176.9375 397.234375 163.46875 C 400.867188 157.21875 402.085938 154.230469 402.085938 154.230469 C 400.535156 165.722656 390.890625 178.355469 389.671875 180.933594 C 392.429688 179.527344 404.785156 157.773438 406.992188 141.382812 C 407.75 141.382812 407.480469 169.5 388.902344 197.386719 C 377.753906 214.101562 399.589844 188.417969 405.609375 161.304688 C 410.082031 141.183594 406 169.320312 400.3125 181.078125 C 396.847656 188.242188 393.421875 193.777344 393.421875 193.777344 C 395.640625 191.175781 405.078125 175.527344 406.703125 163.46875 C 407.464844 163.46875 405.039062 172.109375 404.828125 172.851562 C 398.941406 193.269531 380.960938 210.566406 373.359375 222.933594 C 372.042969 222.933594 383.082031 206.234375 383.464844 205.617188 C 363.527344 225.722656 361.613281 258.144531 363.28125 240.6875 C 365.652344 215.8125 385.945312 203.070312 392.847656 188.292969 C 392.832031 188.304688 385.296875 197.683594 383.421875 199.839844 C 373.019531 211.816406 361.667969 225.886719 361.667969 242.710938 C 361.066406 242.710938 353.207031 219.792969 377.882812 183.53125 C 412.664062 132.433594 371.269531 191.757812 370.183594 191.757812 C 377.753906 173.554688 393.519531 160 402.183594 143.984375 C 403.199219 142.101562 403.796875 139.832031 404.972656 138.066406 M 423.734375 162.167969 C 424.570312 167.847656 426.210938 173.269531 426.609375 179.054688 C 430.246094 232.277344 401.621094 254.777344 392.617188 267.246094 C 377.699219 287.902344 372.785156 323.347656 378.496094 303.332031 C 386.28125 276.0625 415.132812 268.058594 428.453125 243.429688 C 432.535156 235.882812 438.746094 215.65625 438.746094 205.613281 C 438.746094 205.613281 435.261719 220.539062 433 226.398438 C 428.570312 237.867188 425.46875 241.363281 423.878906 244.730469 C 423.878906 244.730469 435.28125 215.296875 435.28125 195.511719 C 435.28125 193.753906 435.269531 181.007812 433.835938 179.921875 C 433.976562 196.953125 434.878906 206.699219 427.625 226.542969 C 427.621094 226.546875 424.027344 235.203125 424.023438 235.203125 C 424.988281 231.015625 437.460938 202.292969 425.515625 166.5 C 425.128906 165.34375 424.757812 162.867188 423.734375 162.167969 M 406.992188 162.890625 C 406.800781 163.082031 406.800781 163.082031 406.992188 162.890625 M 369.320312 178.910156 C 366.835938 183.574219 363.519531 187.730469 361.144531 192.480469 C 341.101562 232.566406 357.769531 253.148438 361.957031 263.207031 C 361.777344 263.207031 355.066406 254.285156 353.007812 249.347656 C 350.828125 249.347656 359.183594 262.027344 359.503906 262.628906 C 356.863281 260.769531 351.628906 253.675781 348.390625 243.71875 C 347.789062 243.71875 348.070312 251.046875 355.523438 261.472656 C 357.476562 264.210938 361.875 268.660156 357.339844 264.855469 C 339.398438 247.710938 360.566406 268.996094 362.964844 273.3125 C 336.457031 248.15625 367.371094 277.785156 363.6875 277.785156 C 358.488281 270.933594 346.5 259.914062 355.882812 269.992188 C 358.652344 272.960938 362.097656 276.292969 363.6875 280.09375 C 327.847656 242.628906 379.847656 300.226562 354.59375 273.453125 C 356.617188 276.726562 355.523438 275.082031 359.9375 281.394531 C 357.359375 279.574219 355.210938 276.148438 353.382812 273.597656 C 331.867188 243.648438 358.890625 203.355469 349.484375 220.050781 C 326.777344 260.308594 353.835938 282.550781 355.460938 284.859375 C 349.75 281.601562 339.566406 270.074219 337.707031 255.703125 C 336.949219 255.703125 338.722656 262.460938 338.878906 263.0625 C 342.960938 278.605469 350.824219 282.210938 353.875 286.445312 C 347.554688 283.800781 341.035156 276.347656 339.730469 273.601562 C 338.65625 273.601562 342.085938 277.972656 342.769531 278.796875 C 347.679688 284.695312 354.449219 288.757812 354.449219 288.757812 C 349.085938 288.320312 344.855469 284.589844 341.027344 281.253906 C 341.613281 283.019531 343.632812 284.449219 345.070312 285.527344 C 351.390625 290.277344 360.226562 291.5 360.226562 291.5 C 352.421875 291.480469 346.820312 287.949219 345.070312 287.316406 C 346.476562 289.011719 353.03125 292.234375 358.347656 292.65625 C 358.347656 293.699219 349.296875 290.578125 347.667969 290.203125 C 348.691406 291.433594 350.796875 292.152344 352.285156 292.65625 C 352.285156 294.472656 340.761719 287.1875 340.164062 286.878906 C 344.664062 293.273438 353.53125 294.738281 360.515625 296.40625 C 360.515625 297.007812 353.011719 296.253906 347.8125 294.214844 C 345.664062 293.371094 343.628906 291.894531 341.460938 291.210938 C 344.957031 294.679688 350.214844 297.484375 354.882812 299.007812 C 354.882812 299.605469 344.113281 298.941406 333.953125 285.726562 C 334.289062 291.164062 349.253906 300.15625 349.253906 300.160156 C 343.976562 298.71875 340.492188 294.792969 336.550781 291.355469 C 337.390625 293.988281 345.914062 302.546875 354.164062 305.355469 C 354.164062 305.957031 345.902344 304.511719 335.542969 292.367188 C 336.007812 294.984375 342.496094 303.269531 350.988281 307.234375 C 350.988281 308.546875 344.273438 303.332031 342.757812 302.074219 C 330.765625 292.085938 328.902344 279.019531 328.902344 263.355469 C 328.300781 263.355469 327.441406 282.273438 328.820312 289.910156 C 332.304688 309.210938 348.492188 317.5625 353.296875 320.800781 C 353.296875 321.402344 342.613281 316.320312 335.566406 308.53125 C 331.71875 304.277344 328.613281 299.4375 328.613281 299.4375 C 330.957031 309.308594 348.609375 321.179688 350.699219 322.679688 C 350.699219 323.28125 340.414062 318.304688 333.519531 311.707031 C 335.164062 315.390625 346.351562 321.910156 350.699219 324.84375 C 350.699219 325.167969 340.183594 322.019531 335.109375 318.21875 C 331.574219 315.570312 325.972656 306.636719 331.609375 317.914062 C 337.164062 329.015625 346.085938 341.910156 356.761719 352.117188 C 380.996094 375.292969 376.433594 365.136719 390.652344 388.351562 C 405.742188 412.976562 412.457031 437.425781 410.886719 437.425781 C 410.175781 432.171875 407.652344 426.789062 405.839844 421.835938 C 387.71875 372.292969 361.707031 371.691406 341.953125 344.328125 C 323.980469 319.433594 317.667969 288.515625 327.953125 251.519531 C 332.429688 235.425781 340.4375 220.632812 341.460938 218.175781 C 341.460938 218.175781 330.535156 247.542969 335.6875 265.519531 C 339.90625 280.214844 324.480469 240.414062 357.089844 194.648438 C 358.03125 193.328125 367.511719 180.242188 369.320312 178.910156 M 409.398438 185.648438 C 409.332031 185.773438 409.332031 185.773438 409.398438 185.648438 M 456.210938 214.273438 C 456.210938 214.878906 456.023438 214.84375 456.210938 214.273438 M 456.355469 214.996094 C 456.164062 215.1875 456.164062 215.1875 456.355469 214.996094 M 441.777344 223.800781 C 441.777344 224.582031 441.589844 224.542969 441.777344 223.800781 M 441.632812 224.523438 C 441.523438 229.820312 439.421875 235.675781 437.476562 240.542969 C 420.289062 283.53125 385.542969 279.265625 382.179688 328.15625 C 382.113281 329.144531 382.28125 331.191406 381.875 331.191406 C 381.875 300.203125 386.917969 294.636719 409.445312 275.144531 C 441.683594 247.246094 438.804688 230.410156 441.632812 224.523438 M 423.976562 235.300781 C 423.910156 235.425781 423.910156 235.425781 423.976562 235.300781 M 423.878906 235.636719 C 423.6875 235.828125 423.6875 235.828125 423.878906 235.636719 M 423.6875 244.824219 C 423.621094 244.953125 423.621094 244.953125 423.6875 244.824219 M 363.113281 273.453125 C 362.921875 273.644531 362.921875 273.644531 363.113281 273.453125 M 430.375 277.78125 C 429.800781 278.359375 429.800781 278.359375 430.375 277.78125 M 354.742188 288.753906 C 354.550781 288.945312 354.550781 288.945312 354.742188 288.753906 M 369.320312 289.761719 C 369.320312 290.742188 369.132812 290.679688 369.320312 289.761719 M 369.171875 290.628906 C 369.171875 291.230469 368.984375 291.199219 369.171875 290.628906 M 352.574219 292.839844 C 352.742188 292.839844 352.453125 292.96875 352.574219 292.839844 M 486.234375 292.792969 C 484.507812 306.445312 488.425781 327.214844 457.410156 375.355469 C 453.289062 381.757812 450.859375 383.261719 450.582031 385.171875 C 451.183594 384.878906 486.953125 349.207031 486.953125 299.578125 C 486.957031 298.566406 487.195312 292.792969 486.234375 292.792969 M 353.152344 292.9375 C 352.960938 293.128906 352.960938 293.128906 353.152344 292.9375 M 525.734375 298.519531 C 525.667969 298.644531 525.667969 298.648438 525.734375 298.519531 M 354.453125 305.496094 C 354.261719 305.6875 354.261719 305.6875 354.453125 305.496094 M 351.277344 307.371094 C 351.085938 307.5625 351.085938 307.566406 351.277344 307.371094 M 446.25 315.3125 C 443.351562 320.332031 437 323.457031 432.394531 326.675781 C 417.367188 337.175781 407.304688 351.09375 406.703125 358.46875 C 406.703125 358.46875 413.265625 340.976562 431.382812 331.332031 C 431.203125 331.59375 422.722656 339.105469 417.144531 347.644531 C 404.382812 367.195312 407.984375 387.347656 408.289062 394.410156 C 408.066406 394.410156 406.324219 381.785156 406.292969 381.566406 C 406.203125 374.375 406.242188 363.269531 405.378906 370.449219 C 404.253906 379.890625 405.910156 386.84375 407.277344 397.441406 C 406.824219 397.441406 403.628906 382.785156 403.277344 379.976562 C 399.378906 348.609375 420.660156 332.246094 423.15625 327.4375 C 419.214844 330.273438 415.96875 334.113281 413.070312 337.976562 C 397.019531 359.371094 401.375 379.074219 401.648438 385.464844 C 400.554688 383.40625 399.53125 373.34375 399.332031 368.863281 C 397.914062 336.332031 416.390625 322.382812 446.25 315.3125 M 350.988281 322.816406 C 350.796875 323.007812 350.796875 323.007812 350.988281 322.816406 M 319.808594 336.097656 C 320.195312 336.863281 320.195312 336.863281 319.808594 336.097656 M 483.925781 340.570312 C 483.925781 341.175781 483.734375 341.136719 483.925781 340.570312 M 323.417969 348.507812 C 324.1875 349.46875 324.1875 349.46875 323.417969 348.507812 M 331.933594 358.902344 C 331.359375 358.710938 331.359375 358.710938 331.933594 358.902344 M 332.945312 363.855469 C 333.113281 363.855469 332.824219 363.984375 332.945312 363.855469 M 311.007812 364.097656 C 313.308594 366.015625 313.308594 366.015625 311.007812 364.097656 M 314.179688 364.097656 C 315.335938 365.0625 315.34375 364.988281 314.035156 364.242188 L 314.179688 364.097656 M 324.863281 364.242188 C 325.703125 364.660156 325.589844 364.734375 324.71875 364.386719 L 324.863281 364.242188 M 315.335938 364.820312 C 315.144531 365.011719 315.144531 365.011719 315.335938 364.820312 M 313.027344 365.539062 C 313.21875 365.925781 313.21875 365.925781 313.027344 365.539062 M 329.191406 369.488281 C 329.363281 369.488281 329.070312 369.613281 329.191406 369.488281 M 329.625 369.582031 C 330.253906 369.792969 330.1875 369.902344 329.480469 369.726562 L 329.625 369.582031 M 330.347656 369.871094 C 330.15625 370.0625 330.15625 370.0625 330.347656 369.871094 M 500.8125 392.097656 C 500.128906 397.152344 498.074219 402.25 496.21875 406.96875 C 487.128906 430.117188 478.3125 437.699219 461.261719 451.335938 C 458.996094 453.148438 444.625 463.929688 443.652344 464.414062 C 443.652344 466.332031 459.9375 454.09375 460.542969 453.640625 C 483.980469 436.066406 487.007812 428.898438 493.304688 419.378906 C 493.90625 419.378906 488.605469 433.84375 478.726562 443.480469 C 459.628906 462.113281 422.390625 472.578125 413.917969 498.621094 C 413.078125 498.621094 414.40625 470.890625 449.859375 442.648438 C 451.371094 441.445312 454.058594 440.039062 454.910156 438.289062 C 439.707031 445.390625 422.289062 469.03125 422.289062 469.03125 C 424.210938 464.421875 433.824219 449.53125 447.984375 440.410156 C 456.1875 435.121094 466.378906 431.511719 479.449219 421.226562 C 492.023438 411.328125 497.957031 395.539062 500.8125 392.097656 M 434.894531 413.125 C 434.960938 413.25 434.960938 413.25 434.894531 413.125 M 456.066406 415.195312 C 455.683594 415.578125 455.683594 415.578125 456.066406 415.195312 M 520.585938 425.585938 C 520.203125 426.160156 520.203125 426.160156 520.585938 425.585938 M 520.296875 426.164062 C 520.105469 426.355469 520.105469 426.355469 520.296875 426.164062 M 532.421875 432.226562 C 532.039062 432.800781 532.039062 432.800781 532.421875 432.226562 M 292.964844 432.804688 C 293.15625 433.378906 293.15625 433.378906 292.964844 432.804688 M 411.128906 437.664062 C 411.0625 437.789062 411.0625 437.789062 411.128906 437.664062 M 316.203125 440.886719 C 316.011719 441.078125 316.011719 441.078125 316.203125 440.886719 M 383.175781 446.082031 C 382.984375 446.273438 382.984375 446.273438 383.175781 446.082031 M 312.882812 446.371094 C 314.222656 447.902344 314.222656 447.902344 312.882812 446.371094 M 383.320312 446.371094 C 383.128906 446.5625 383.128906 446.5625 383.320312 446.371094 M 344.636719 447.378906 C 344.445312 447.574219 344.445312 447.574219 344.636719 447.378906 M 292.097656 449.113281 C 291.90625 449.304688 291.90625 449.304688 292.097656 449.113281 M 390.488281 449.210938 C 390.421875 449.335938 390.421875 449.335938 390.488281 449.210938 M 502.832031 449.160156 C 503 449.160156 502.710938 449.285156 502.832031 449.160156 M 422.289062 469.175781 C 422.097656 469.367188 422.097656 469.367188 422.289062 469.175781 M 393.230469 489.046875 L 393.183594 489.140625 Z M 393.230469 489.046875 " fill-opacity="1" fill-rule="nonzero"/></g><g fill="#76984b" fill-opacity="1"><g transform="translate(152.718071, 608.506808)"><g><path d="M 31.296875 0 L 1.765625 0 C 2.941406 -1.175781 3.75 -2.570312 4.1875 -4.1875 C 4.625 -5.800781 4.84375 -7.875 4.84375 -10.40625 L 4.84375 -51.3125 C 4.84375 -53.84375 4.625 -55.914062 4.1875 -57.53125 C 3.75 -59.144531 2.941406 -60.539062 1.765625 -61.71875 L 23.359375 -61.71875 C 25.242188 -61.71875 26.523438 -61.054688 27.203125 -59.734375 C 27.878906 -58.410156 28.21875 -56.632812 28.21875 -54.40625 L 28.21875 -52.90625 C 28.21875 -51.84375 28.273438 -51.222656 28.390625 -51.046875 C 28.503906 -50.867188 28.648438 -50.78125 28.828125 -50.78125 C 29.535156 -50.78125 30.226562 -51.191406 30.90625 -52.015625 C 31.582031 -52.835938 32.375 -53.863281 33.28125 -55.09375 C 34.195312 -56.332031 35.316406 -57.554688 36.640625 -58.765625 C 37.960938 -59.972656 39.632812 -60.988281 41.65625 -61.8125 C 43.6875 -62.632812 46.203125 -63.046875 49.203125 -63.046875 C 53.492188 -63.046875 56.710938 -61.941406 58.859375 -59.734375 C 61.003906 -57.535156 62.457031 -54.875 63.21875 -51.75 C 63.507812 -51.164062 63.832031 -50.859375 64.1875 -50.828125 C 64.539062 -50.796875 64.773438 -50.78125 64.890625 -50.78125 C 65.597656 -50.78125 66.289062 -51.191406 66.96875 -52.015625 C 67.644531 -52.835938 68.4375 -53.863281 69.34375 -55.09375 C 70.257812 -56.332031 71.378906 -57.554688 72.703125 -58.765625 C 74.023438 -59.972656 75.695312 -60.988281 77.71875 -61.8125 C 79.75 -62.632812 82.265625 -63.046875 85.265625 -63.046875 C 88.492188 -63.046875 91.09375 -62.410156 93.0625 -61.140625 C 95.03125 -59.878906 96.539062 -58.203125 97.59375 -56.109375 C 98.65625 -54.023438 99.378906 -51.78125 99.765625 -49.375 C 100.148438 -46.96875 100.34375 -44.617188 100.34375 -42.328125 L 100.421875 -25.484375 L 100.421875 -10.40625 C 100.421875 -7.875 100.640625 -5.800781 101.078125 -4.1875 C 101.523438 -2.570312 102.335938 -1.175781 103.515625 0 L 73.96875 0 C 75.144531 -1.175781 75.953125 -2.570312 76.390625 -4.1875 C 76.835938 -5.800781 77.0625 -7.875 77.0625 -10.40625 L 77.0625 -39.0625 C 77.0625 -41.113281 76.707031 -42.929688 76 -44.515625 C 75.300781 -46.109375 73.976562 -46.90625 72.03125 -46.90625 C 70.15625 -46.90625 68.453125 -46.140625 66.921875 -44.609375 C 65.390625 -43.085938 64.507812 -40.207031 64.28125 -35.96875 L 64.359375 -25.484375 L 64.359375 -10.40625 C 64.359375 -7.875 64.578125 -5.800781 65.015625 -4.1875 C 65.460938 -2.570312 66.273438 -1.175781 67.453125 0 L 37.90625 0 C 39.082031 -1.175781 39.890625 -2.570312 40.328125 -4.1875 C 40.773438 -5.800781 41 -7.875 41 -10.40625 L 41 -39.0625 C 41 -41.113281 40.644531 -42.929688 39.9375 -44.515625 C 39.238281 -46.109375 37.914062 -46.90625 35.96875 -46.90625 C 34.625 -46.90625 33.363281 -46.535156 32.1875 -45.796875 C 31.007812 -45.066406 30.050781 -43.804688 29.3125 -42.015625 C 28.582031 -40.222656 28.21875 -37.679688 28.21875 -34.390625 L 28.21875 -10.40625 C 28.21875 -7.875 28.4375 -5.800781 28.875 -4.1875 C 29.3125 -2.570312 30.117188 -1.175781 31.296875 0 Z M 31.296875 0 "/></g></g></g><g fill="#76984b" fill-opacity="1"><g transform="translate(256.673725, 608.506808)"><g><path d="M 0 -52.28125 C 0 -52.75 0.144531 -53.039062 0.4375 -53.15625 C 0.726562 -53.28125 0.90625 -53.375 0.96875 -53.4375 C 1.675781 -53.789062 2.78125 -54.332031 4.28125 -55.0625 C 5.78125 -55.800781 7.484375 -56.625 9.390625 -57.53125 C 11.296875 -58.445312 13.25 -59.316406 15.25 -60.140625 C 17.25 -60.960938 19.097656 -61.648438 20.796875 -62.203125 C 22.503906 -62.765625 23.890625 -63.046875 24.953125 -63.046875 C 26.242188 -63.046875 27.003906 -62.691406 27.234375 -61.984375 C 27.472656 -61.273438 27.59375 -60.484375 27.59375 -59.609375 L 27.59375 -10.40625 C 27.59375 -7.875 27.8125 -5.800781 28.25 -4.1875 C 28.695312 -2.570312 29.507812 -1.175781 30.6875 0 L 1.140625 0 C 2.316406 -1.175781 3.125 -2.570312 3.5625 -4.1875 C 4.007812 -5.800781 4.234375 -7.875 4.234375 -10.40625 L 4.234375 -44.265625 C 4.234375 -44.617188 4.21875 -45.265625 4.1875 -46.203125 C 4.15625 -47.140625 3.945312 -48.09375 3.5625 -49.0625 C 3.1875 -50.03125 2.441406 -50.691406 1.328125 -51.046875 C 1.203125 -51.109375 0.945312 -51.195312 0.5625 -51.3125 C 0.1875 -51.4375 0 -51.757812 0 -52.28125 Z M 15.6875 -93.375 C 19.570312 -93.375 22.6875 -92.195312 25.03125 -89.84375 C 27.382812 -87.5 28.5625 -84.382812 28.5625 -80.5 C 28.5625 -76.625 27.382812 -73.507812 25.03125 -71.15625 C 22.6875 -68.800781 19.570312 -67.625 15.6875 -67.625 C 11.8125 -67.625 8.695312 -68.800781 6.34375 -71.15625 C 4 -73.507812 2.828125 -76.625 2.828125 -80.5 C 2.828125 -84.382812 4 -87.5 6.34375 -89.84375 C 8.695312 -92.195312 11.8125 -93.375 15.6875 -93.375 Z M 15.6875 -93.375 "/></g></g></g><g fill="#76984b" fill-opacity="1"><g transform="translate(287.798684, 608.506808)"><g/></g></g><g fill="#76984b" fill-opacity="1"><g transform="translate(318.659135, 608.506808)"><g><path d="M -0.875 -52.28125 C -0.875 -52.75 -0.726562 -53.039062 -0.4375 -53.15625 C -0.144531 -53.28125 0.03125 -53.375 0.09375 -53.4375 C 0.789062 -53.726562 1.914062 -54.222656 3.46875 -54.921875 C 5.03125 -55.628906 6.828125 -56.4375 8.859375 -57.34375 C 10.890625 -58.257812 12.929688 -59.160156 14.984375 -60.046875 C 17.046875 -60.929688 18.957031 -61.648438 20.71875 -62.203125 C 22.476562 -62.765625 23.890625 -63.046875 24.953125 -63.046875 C 26.242188 -63.046875 27.003906 -62.691406 27.234375 -61.984375 C 27.472656 -61.273438 27.59375 -60.484375 27.59375 -59.609375 L 27.59375 -56.953125 C 27.769531 -56.546875 27.972656 -56.296875 28.203125 -56.203125 C 28.441406 -56.117188 28.710938 -56.078125 29.015625 -56.078125 C 29.484375 -56.078125 30.050781 -56.425781 30.71875 -57.125 C 31.394531 -57.832031 32.289062 -58.640625 33.40625 -59.546875 C 34.53125 -60.460938 35.929688 -61.273438 37.609375 -61.984375 C 39.285156 -62.691406 41.359375 -63.046875 43.828125 -63.046875 C 48.171875 -63.046875 51.914062 -62.0625 55.0625 -60.09375 C 58.207031 -58.125 60.789062 -55.519531 62.8125 -52.28125 C 64.84375 -49.050781 66.34375 -45.46875 67.3125 -41.53125 C 68.289062 -37.59375 68.78125 -33.625 68.78125 -29.625 C 68.78125 -23.925781 67.804688 -18.738281 65.859375 -14.0625 C 63.921875 -9.382812 61.082031 -5.648438 57.34375 -2.859375 C 53.613281 -0.0664062 49.109375 1.328125 43.828125 1.328125 C 41.523438 1.328125 39.109375 0.753906 36.578125 -0.390625 C 34.054688 -1.535156 31.59375 -3.992188 29.1875 -7.765625 C 28.894531 -8.234375 28.554688 -8.566406 28.171875 -8.765625 C 27.785156 -8.972656 27.59375 -8.753906 27.59375 -8.109375 L 27.59375 19.21875 C 27.59375 21.457031 27.253906 23.222656 26.578125 24.515625 C 25.898438 25.804688 24.625 26.453125 22.75 26.453125 L 1.140625 26.453125 C 2.316406 25.273438 3.125 23.878906 3.5625 22.265625 C 4.007812 20.648438 4.234375 18.578125 4.234375 16.046875 L 4.234375 -44.265625 C 4.234375 -44.617188 4.203125 -45.25 4.140625 -46.15625 C 4.085938 -47.070312 3.8125 -48 3.3125 -48.9375 C 2.8125 -49.875 1.851562 -50.578125 0.4375 -51.046875 C 0.320312 -51.109375 0.078125 -51.195312 -0.296875 -51.3125 C -0.679688 -51.4375 -0.875 -51.757812 -0.875 -52.28125 Z M 27.59375 -40.828125 L 27.59375 -23.625 C 27.59375 -22.394531 27.664062 -21 27.8125 -19.4375 C 27.957031 -17.882812 28.296875 -16.359375 28.828125 -14.859375 C 29.359375 -13.359375 30.140625 -12.125 31.171875 -11.15625 C 32.203125 -10.1875 33.597656 -9.703125 35.359375 -9.703125 C 37.828125 -9.703125 39.75 -10.375 41.125 -11.71875 C 42.507812 -13.070312 43.507812 -14.851562 44.125 -17.0625 C 44.75 -19.269531 45.132812 -21.691406 45.28125 -24.328125 C 45.425781 -26.972656 45.5 -29.5625 45.5 -32.09375 C 45.5 -34.5 45.347656 -36.96875 45.046875 -39.5 C 44.753906 -42.03125 44.195312 -44.378906 43.375 -46.546875 C 42.550781 -48.722656 41.390625 -50.472656 39.890625 -51.796875 C 38.398438 -53.117188 36.421875 -53.78125 33.953125 -53.78125 C 32.597656 -53.78125 31.492188 -53.320312 30.640625 -52.40625 C 29.785156 -51.5 29.132812 -50.351562 28.6875 -48.96875 C 28.25 -47.59375 27.957031 -46.171875 27.8125 -44.703125 C 27.664062 -43.234375 27.59375 -41.941406 27.59375 -40.828125 Z M 27.59375 -40.828125 "/></g></g></g><g fill="#76984b" fill-opacity="1"><g transform="translate(389.638175, 608.506808)"><g><path d="M 0.4375 -77.5 C 0.320312 -77.5625 0.078125 -77.648438 -0.296875 -77.765625 C -0.679688 -77.878906 -0.875 -78.203125 -0.875 -78.734375 C -0.875 -79.203125 -0.726562 -79.492188 -0.4375 -79.609375 C -0.144531 -79.734375 0.03125 -79.828125 0.09375 -79.890625 C 0.789062 -80.234375 1.914062 -80.769531 3.46875 -81.5 C 5.03125 -82.238281 6.8125 -83.0625 8.8125 -83.96875 C 10.8125 -84.882812 12.851562 -85.753906 14.9375 -86.578125 C 17.03125 -87.398438 18.957031 -88.09375 20.71875 -88.65625 C 22.476562 -89.21875 23.890625 -89.5 24.953125 -89.5 C 26.242188 -89.5 27.003906 -89.144531 27.234375 -88.4375 C 27.472656 -87.726562 27.59375 -86.9375 27.59375 -86.0625 L 27.59375 -10.40625 C 27.59375 -7.875 27.8125 -5.800781 28.25 -4.1875 C 28.695312 -2.570312 29.507812 -1.175781 30.6875 0 L 9.078125 0 C 7.203125 0 5.925781 -0.644531 5.25 -1.9375 C 4.570312 -3.226562 4.234375 -4.992188 4.234375 -7.234375 L 4.234375 -70.71875 C 4.234375 -71.070312 4.21875 -71.71875 4.1875 -72.65625 C 4.15625 -73.59375 3.875 -74.546875 3.34375 -75.515625 C 2.820312 -76.484375 1.851562 -77.144531 0.4375 -77.5 Z M 0.4375 -77.5 "/></g></g></g><g fill="#76984b" fill-opacity="1"><g transform="translate(421.204024, 608.506808)"><g><path d="M 2.203125 -13.75 C 2.203125 -18.457031 3.140625 -22.585938 5.015625 -26.140625 C 6.898438 -29.703125 9.441406 -32.757812 12.640625 -35.3125 C 15.847656 -37.863281 19.4375 -39.960938 23.40625 -41.609375 C 27.375 -43.265625 31.414062 -44.53125 35.53125 -45.40625 C 36.820312 -45.695312 37.671875 -46.222656 38.078125 -46.984375 C 38.492188 -47.753906 38.703125 -48.519531 38.703125 -49.28125 C 38.703125 -50.582031 38.507812 -51.921875 38.125 -53.296875 C 37.75 -54.679688 37.015625 -55.859375 35.921875 -56.828125 C 34.835938 -57.796875 33.207031 -58.25 31.03125 -58.1875 C 28.800781 -58.132812 26.773438 -57.488281 24.953125 -56.25 C 23.128906 -55.019531 21.46875 -53.507812 19.96875 -51.71875 C 18.46875 -49.925781 17.070312 -48.128906 15.78125 -46.328125 C 14.488281 -44.535156 13.269531 -43.035156 12.125 -41.828125 C 10.976562 -40.628906 9.847656 -40.03125 8.734375 -40.03125 C 8.023438 -40.03125 7.390625 -40.304688 6.828125 -40.859375 C 6.273438 -41.421875 6 -42.085938 6 -42.859375 L 6 -47.703125 C 6 -49.234375 6.007812 -50.734375 6.03125 -52.203125 C 6.0625 -53.671875 6.640625 -54.929688 7.765625 -55.984375 C 10.753906 -58.867188 14.4375 -60.765625 18.8125 -61.671875 C 23.195312 -62.585938 27.710938 -63.046875 32.359375 -63.046875 C 37.410156 -63.046875 41.816406 -62.265625 45.578125 -60.703125 C 49.347656 -59.148438 52.453125 -57.09375 54.890625 -54.53125 C 57.328125 -51.976562 59.144531 -49.144531 60.34375 -46.03125 C 61.550781 -42.914062 62.15625 -39.769531 62.15625 -36.59375 L 62.15625 -10.40625 C 62.15625 -7.875 62.375 -5.800781 62.8125 -4.1875 C 63.257812 -2.570312 64.070312 -1.175781 65.25 0 L 43.640625 0 C 41.054688 0 39.53125 -1.265625 39.0625 -3.796875 C 38.945312 -4.554688 38.695312 -5.257812 38.3125 -5.90625 C 37.925781 -6.550781 37.410156 -6.875 36.765625 -6.875 C 35.828125 -6.875 34.898438 -6.460938 33.984375 -5.640625 C 33.078125 -4.816406 31.976562 -3.859375 30.6875 -2.765625 C 29.394531 -1.679688 27.734375 -0.726562 25.703125 0.09375 C 23.671875 0.914062 21.070312 1.328125 17.90625 1.328125 C 15.082031 1.328125 12.476562 0.648438 10.09375 -0.703125 C 7.71875 -2.054688 5.804688 -3.863281 4.359375 -6.125 C 2.921875 -8.382812 2.203125 -10.925781 2.203125 -13.75 Z M 35.53125 -39.671875 C 33.65625 -39.671875 31.757812 -38.953125 29.84375 -37.515625 C 27.9375 -36.078125 26.363281 -34.050781 25.125 -31.4375 C 23.894531 -28.820312 23.28125 -25.691406 23.28125 -22.046875 C 23.28125 -19.984375 23.53125 -18.023438 24.03125 -16.171875 C 24.53125 -14.328125 25.378906 -12.816406 26.578125 -11.640625 C 27.785156 -10.460938 29.476562 -9.875 31.65625 -9.875 C 34.0625 -9.875 35.851562 -10.828125 37.03125 -12.734375 C 38.207031 -14.648438 38.796875 -17.046875 38.796875 -19.921875 C 38.796875 -22.691406 38.78125 -25.085938 38.75 -27.109375 C 38.71875 -29.140625 38.703125 -31.503906 38.703125 -34.203125 C 38.703125 -36.203125 38.46875 -37.613281 38 -38.4375 C 37.53125 -39.257812 36.707031 -39.671875 35.53125 -39.671875 Z M 35.53125 -39.671875 "/></g></g></g><g fill="#76984b" fill-opacity="1"><g transform="translate(486.892711, 608.506808)"><g><path d="M 30.421875 0 L 0.875 0 C 2.050781 -1.175781 2.859375 -2.570312 3.296875 -4.1875 C 3.742188 -5.800781 3.96875 -7.875 3.96875 -10.40625 L 3.96875 -51.3125 C 3.96875 -53.84375 3.742188 -55.914062 3.296875 -57.53125 C 2.859375 -59.144531 2.050781 -60.539062 0.875 -61.71875 L 22.484375 -61.71875 C 24.367188 -61.71875 25.644531 -61.054688 26.3125 -59.734375 C 26.988281 -58.410156 27.328125 -56.632812 27.328125 -54.40625 L 27.328125 -52.90625 C 27.328125 -51.84375 27.382812 -51.222656 27.5 -51.046875 C 27.625 -50.867188 27.773438 -50.78125 27.953125 -50.78125 C 28.660156 -50.78125 29.347656 -51.191406 30.015625 -52.015625 C 30.691406 -52.835938 31.484375 -53.863281 32.390625 -55.09375 C 33.304688 -56.332031 34.425781 -57.554688 35.75 -58.765625 C 37.070312 -59.972656 38.75 -60.988281 40.78125 -61.8125 C 42.8125 -62.632812 45.320312 -63.046875 48.3125 -63.046875 C 51.550781 -63.046875 54.15625 -62.410156 56.125 -61.140625 C 58.09375 -59.878906 59.601562 -58.203125 60.65625 -56.109375 C 61.71875 -54.023438 62.4375 -51.78125 62.8125 -49.375 C 63.195312 -46.96875 63.390625 -44.617188 63.390625 -42.328125 L 63.484375 -25.484375 L 63.484375 -10.40625 C 63.484375 -7.875 63.703125 -5.800781 64.140625 -4.1875 C 64.585938 -2.570312 65.394531 -1.175781 66.5625 0 L 37.03125 0 C 38.207031 -1.175781 39.015625 -2.570312 39.453125 -4.1875 C 39.898438 -5.800781 40.125 -7.875 40.125 -10.40625 L 40.125 -39.0625 C 40.125 -41.113281 39.769531 -42.929688 39.0625 -44.515625 C 38.351562 -46.109375 37.03125 -46.90625 35.09375 -46.90625 C 33.738281 -46.90625 32.472656 -46.535156 31.296875 -45.796875 C 30.117188 -45.066406 29.160156 -43.804688 28.421875 -42.015625 C 27.691406 -40.222656 27.328125 -37.679688 27.328125 -34.390625 L 27.328125 -10.40625 C 27.328125 -7.875 27.546875 -5.800781 27.984375 -4.1875 C 28.429688 -2.570312 29.242188 -1.175781 30.421875 0 Z M 30.421875 0 "/></g></g></g><g fill="#76984b" fill-opacity="1"><g transform="translate(553.904002, 608.506808)"><g><path d="M 0 -61.71875 C 1.757812 -61.71875 3.726562 -62.332031 5.90625 -63.5625 C 8.082031 -64.800781 10.285156 -66.347656 12.515625 -68.203125 C 14.753906 -70.054688 16.867188 -71.890625 18.859375 -73.703125 C 20.859375 -75.523438 22.625 -77.050781 24.15625 -78.28125 C 25.6875 -79.519531 26.804688 -80.140625 27.515625 -80.140625 C 28.628906 -80.140625 29.1875 -79.4375 29.1875 -78.03125 L 29.1875 -61.71875 L 36.765625 -61.71875 L 36.765625 -57.3125 L 29.1875 -57.3125 L 29.1875 -21.6875 C 29.1875 -19.394531 29.210938 -17.101562 29.265625 -14.8125 C 29.328125 -12.519531 29.648438 -10.460938 30.234375 -8.640625 C 30.828125 -6.816406 31.890625 -5.40625 33.421875 -4.40625 C 33.773438 -4.175781 34.140625 -4.0625 34.515625 -4.0625 C 34.898438 -4.0625 35.296875 -4 35.703125 -3.875 C 35.585938 -2.820312 35.015625 -1.894531 33.984375 -1.09375 C 32.960938 -0.300781 31.742188 0.296875 30.328125 0.703125 C 28.921875 1.117188 27.507812 1.328125 26.09375 1.328125 C 21.863281 1.328125 18.46875 0.625 15.90625 -0.78125 C 13.351562 -2.195312 11.414062 -4.09375 10.09375 -6.46875 C 8.769531 -8.851562 7.890625 -11.515625 7.453125 -14.453125 C 7.015625 -17.398438 6.796875 -20.367188 6.796875 -23.359375 L 6.796875 -51.671875 C 6.796875 -52.546875 6.75 -53.425781 6.65625 -54.3125 C 6.570312 -55.195312 6.25 -55.914062 5.6875 -56.46875 C 5.125 -57.03125 4.140625 -57.3125 2.734375 -57.3125 L 0 -57.3125 Z M 0 -61.71875 "/></g></g></g><g fill="#76984b" fill-opacity="1"><g transform="translate(591.553765, 608.506808)"><g><path d="M 2.203125 -13.75 C 2.203125 -18.457031 3.140625 -22.585938 5.015625 -26.140625 C 6.898438 -29.703125 9.441406 -32.757812 12.640625 -35.3125 C 15.847656 -37.863281 19.4375 -39.960938 23.40625 -41.609375 C 27.375 -43.265625 31.414062 -44.53125 35.53125 -45.40625 C 36.820312 -45.695312 37.671875 -46.222656 38.078125 -46.984375 C 38.492188 -47.753906 38.703125 -48.519531 38.703125 -49.28125 C 38.703125 -50.582031 38.507812 -51.921875 38.125 -53.296875 C 37.75 -54.679688 37.015625 -55.859375 35.921875 -56.828125 C 34.835938 -57.796875 33.207031 -58.25 31.03125 -58.1875 C 28.800781 -58.132812 26.773438 -57.488281 24.953125 -56.25 C 23.128906 -55.019531 21.46875 -53.507812 19.96875 -51.71875 C 18.46875 -49.925781 17.070312 -48.128906 15.78125 -46.328125 C 14.488281 -44.535156 13.269531 -43.035156 12.125 -41.828125 C 10.976562 -40.628906 9.847656 -40.03125 8.734375 -40.03125 C 8.023438 -40.03125 7.390625 -40.304688 6.828125 -40.859375 C 6.273438 -41.421875 6 -42.085938 6 -42.859375 L 6 -47.703125 C 6 -49.234375 6.007812 -50.734375 6.03125 -52.203125 C 6.0625 -53.671875 6.640625 -54.929688 7.765625 -55.984375 C 10.753906 -58.867188 14.4375 -60.765625 18.8125 -61.671875 C 23.195312 -62.585938 27.710938 -63.046875 32.359375 -63.046875 C 37.410156 -63.046875 41.816406 -62.265625 45.578125 -60.703125 C 49.347656 -59.148438 52.453125 -57.09375 54.890625 -54.53125 C 57.328125 -51.976562 59.144531 -49.144531 60.34375 -46.03125 C 61.550781 -42.914062 62.15625 -39.769531 62.15625 -36.59375 L 62.15625 -10.40625 C 62.15625 -7.875 62.375 -5.800781 62.8125 -4.1875 C 63.257812 -2.570312 64.070312 -1.175781 65.25 0 L 43.640625 0 C 41.054688 0 39.53125 -1.265625 39.0625 -3.796875 C 38.945312 -4.554688 38.695312 -5.257812 38.3125 -5.90625 C 37.925781 -6.550781 37.410156 -6.875 36.765625 -6.875 C 35.828125 -6.875 34.898438 -6.460938 33.984375 -5.640625 C 33.078125 -4.816406 31.976562 -3.859375 30.6875 -2.765625 C 29.394531 -1.679688 27.734375 -0.726562 25.703125 0.09375 C 23.671875 0.914062 21.070312 1.328125 17.90625 1.328125 C 15.082031 1.328125 12.476562 0.648438 10.09375 -0.703125 C 7.71875 -2.054688 5.804688 -3.863281 4.359375 -6.125 C 2.921875 -8.382812 2.203125 -10.925781 2.203125 -13.75 Z M 35.53125 -39.671875 C 33.65625 -39.671875 31.757812 -38.953125 29.84375 -37.515625 C 27.9375 -36.078125 26.363281 -34.050781 25.125 -31.4375 C 23.894531 -28.820312 23.28125 -25.691406 23.28125 -22.046875 C 23.28125 -19.984375 23.53125 -18.023438 24.03125 -16.171875 C 24.53125 -14.328125 25.378906 -12.816406 26.578125 -11.640625 C 27.785156 -10.460938 29.476562 -9.875 31.65625 -9.875 C 34.0625 -9.875 35.851562 -10.828125 37.03125 -12.734375 C 38.207031 -14.648438 38.796875 -17.046875 38.796875 -19.921875 C 38.796875 -22.691406 38.78125 -25.085938 38.75 -27.109375 C 38.71875 -29.140625 38.703125 -31.503906 38.703125 -34.203125 C 38.703125 -36.203125 38.46875 -37.613281 38 -38.4375 C 37.53125 -39.257812 36.707031 -39.671875 35.53125 -39.671875 Z M 35.53125 -39.671875 "/></g></g></g><g fill="#76984b" fill-opacity="1"><g transform="translate(286.290061, 678.01632)"><g><path d="M 22.171875 -20.6875 L 24.59375 0.03125 L 23.421875 0.03125 L 21.296875 -18.0625 L 12.703125 -1.75 L 12.5625 -1.75 L 4.140625 -18 L 1.71875 0.03125 L 1.15625 0.03125 L 3.96875 -20.6875 L 4.078125 -20.6875 L 12.984375 -3.453125 L 22.0625 -20.6875 Z M 22.171875 -20.6875 "/></g></g></g><g fill="#76984b" fill-opacity="1"><g transform="translate(316.791325, 678.01632)"><g><path d="M 1.125 0.03125 L 10.34375 -20.6875 L 10.53125 -20.6875 L 19.390625 0.03125 L 18.125 0.03125 L 14.640625 -8.140625 L 5.5 -8.140625 L 1.875 0.03125 Z M 5.75 -8.65625 L 14.40625 -8.65625 L 10.140625 -18.578125 Z M 5.75 -8.65625 "/></g></g></g><g fill="#76984b" fill-opacity="1"><g transform="translate(341.961905, 678.01632)"><g><path d="M 15.765625 0.03125 L 14.28125 0.03125 L 6.78125 -9.40625 C 6.65625 -9.40625 6.535156 -9.40625 6.421875 -9.40625 C 6.316406 -9.40625 6.242188 -9.40625 6.203125 -9.40625 L 2.71875 -9.40625 L 2.71875 0.03125 L 1.546875 0.03125 L 1.546875 -20.296875 L 7.6875 -20.296875 C 8.09375 -20.296875 8.65625 -20.234375 9.375 -20.109375 C 10.101562 -19.992188 10.832031 -19.765625 11.5625 -19.421875 C 12.300781 -19.078125 12.921875 -18.5625 13.421875 -17.875 C 13.929688 -17.195312 14.1875 -16.3125 14.1875 -15.21875 C 14.1875 -14.164062 13.988281 -13.289062 13.59375 -12.59375 C 13.207031 -11.90625 12.703125 -11.351562 12.078125 -10.9375 C 11.453125 -10.519531 10.796875 -10.203125 10.109375 -9.984375 C 9.421875 -9.765625 8.773438 -9.613281 8.171875 -9.53125 Z M 5.625 -9.953125 C 6.894531 -9.953125 8.09375 -10.109375 9.21875 -10.421875 C 10.351562 -10.734375 11.269531 -11.242188 11.96875 -11.953125 C 12.664062 -12.660156 13.015625 -13.617188 13.015625 -14.828125 C 13.015625 -16.210938 12.703125 -17.253906 12.078125 -17.953125 C 11.453125 -18.648438 10.632812 -19.125 9.625 -19.375 C 8.613281 -19.625 7.5625 -19.75 6.46875 -19.75 L 2.71875 -19.75 L 2.71875 -9.953125 Z M 5.625 -9.953125 "/></g></g></g><g fill="#76984b" fill-opacity="1"><g transform="translate(363.449462, 678.01632)"><g><path d="M 1.546875 0.03125 L 1.546875 -20.296875 L 2.71875 -20.296875 L 2.71875 0.03125 Z M 5.015625 -10.890625 L 14.3125 0.03125 L 12.796875 0.03125 L 3.84375 -10.46875 L 13.40625 -20.296875 L 14.15625 -20.296875 Z M 5.015625 -10.890625 "/></g></g></g><g fill="#76984b" fill-opacity="1"><g transform="translate(383.547808, 678.01632)"><g><path d="M 11.859375 -19.75 L 2.71875 -19.75 L 2.71875 -10.859375 L 10.984375 -10.859375 L 10.984375 -10.3125 L 2.71875 -10.3125 L 2.71875 -0.515625 L 11.859375 -0.515625 L 11.859375 0.03125 L 1.546875 0.03125 L 1.546875 -20.296875 L 11.859375 -20.296875 Z M 11.859375 -19.75 "/></g></g></g><g fill="#76984b" fill-opacity="1"><g transform="translate(401.384653, 678.01632)"><g><path d="M 15.890625 -20.296875 L 15.890625 -19.75 L 9.046875 -19.75 L 9.046875 0.03125 L 7.921875 0.03125 L 7.921875 -19.75 L 1.0625 -19.75 L 1.0625 -20.296875 Z M 15.890625 -20.296875 "/></g></g></g><g fill="#76984b" fill-opacity="1"><g transform="translate(422.969138, 678.01632)"><g><path d="M 7.6875 -20.296875 C 8.09375 -20.296875 8.65625 -20.234375 9.375 -20.109375 C 10.101562 -19.992188 10.832031 -19.765625 11.5625 -19.421875 C 12.300781 -19.078125 12.921875 -18.5625 13.421875 -17.875 C 13.929688 -17.195312 14.1875 -16.3125 14.1875 -15.21875 C 14.1875 -14.03125 13.945312 -13.070312 13.46875 -12.34375 C 13 -11.613281 12.394531 -11.046875 11.65625 -10.640625 C 10.925781 -10.242188 10.175781 -9.953125 9.40625 -9.765625 C 8.644531 -9.585938 7.96875 -9.484375 7.375 -9.453125 C 6.789062 -9.421875 6.398438 -9.40625 6.203125 -9.40625 L 2.71875 -9.40625 L 2.71875 0.03125 L 1.546875 0.03125 L 1.546875 -20.296875 Z M 5.625 -9.953125 C 6.894531 -9.953125 8.09375 -10.085938 9.21875 -10.359375 C 10.351562 -10.628906 11.269531 -11.117188 11.96875 -11.828125 C 12.664062 -12.535156 13.015625 -13.535156 13.015625 -14.828125 C 13.015625 -15.890625 12.832031 -16.742188 12.46875 -17.390625 C 12.101562 -18.035156 11.609375 -18.53125 10.984375 -18.875 C 10.359375 -19.21875 9.65625 -19.445312 8.875 -19.5625 C 8.101562 -19.6875 7.300781 -19.75 6.46875 -19.75 L 2.71875 -19.75 L 2.71875 -9.953125 Z M 5.625 -9.953125 "/></g></g></g><g fill="#76984b" fill-opacity="1"><g transform="translate(443.132097, 678.01632)"><g><path d="M 2.71875 -0.515625 L 11.953125 -0.515625 L 11.953125 0.03125 L 1.546875 0.03125 L 1.546875 -20.296875 L 2.71875 -20.296875 Z M 2.71875 -0.515625 "/></g></g></g><g fill="#76984b" fill-opacity="1"><g transform="translate(460.936619, 678.01632)"><g><path d="M 1.125 0.03125 L 10.34375 -20.6875 L 10.53125 -20.6875 L 19.390625 0.03125 L 18.125 0.03125 L 14.640625 -8.140625 L 5.5 -8.140625 L 1.875 0.03125 Z M 5.75 -8.65625 L 14.40625 -8.65625 L 10.140625 -18.578125 Z M 5.75 -8.65625 "/></g></g></g><g fill="#76984b" fill-opacity="1"><g transform="translate(486.107195, 678.01632)"><g><path d="M 18.359375 -1.84375 L 18.359375 -1.09375 C 18.359375 -1.09375 18.117188 -0.953125 17.640625 -0.671875 C 17.171875 -0.398438 16.472656 -0.125 15.546875 0.15625 C 14.617188 0.4375 13.472656 0.578125 12.109375 0.578125 C 11.296875 0.578125 10.410156 0.484375 9.453125 0.296875 C 8.492188 0.117188 7.535156 -0.203125 6.578125 -0.671875 C 5.617188 -1.148438 4.738281 -1.789062 3.9375 -2.59375 C 3.144531 -3.40625 2.503906 -4.421875 2.015625 -5.640625 C 1.535156 -6.859375 1.296875 -8.328125 1.296875 -10.046875 C 1.296875 -11.921875 1.597656 -13.53125 2.203125 -14.875 C 2.804688 -16.226562 3.628906 -17.328125 4.671875 -18.171875 C 5.710938 -19.023438 6.898438 -19.65625 8.234375 -20.0625 C 9.578125 -20.476562 10.96875 -20.6875 12.40625 -20.6875 C 13.632812 -20.6875 14.695312 -20.570312 15.59375 -20.34375 C 16.488281 -20.113281 17.171875 -19.890625 17.640625 -19.671875 C 18.117188 -19.460938 18.359375 -19.359375 18.359375 -19.359375 L 18.359375 -18.640625 C 18.359375 -18.640625 18.125 -18.765625 17.65625 -19.015625 C 17.195312 -19.265625 16.523438 -19.507812 15.640625 -19.75 C 14.753906 -20 13.675781 -20.125 12.40625 -20.125 C 11.78125 -20.125 11.039062 -20.039062 10.1875 -19.875 C 9.34375 -19.71875 8.46875 -19.425781 7.5625 -19 C 6.65625 -18.570312 5.8125 -17.976562 5.03125 -17.21875 C 4.257812 -16.46875 3.632812 -15.503906 3.15625 -14.328125 C 2.6875 -13.148438 2.453125 -11.722656 2.453125 -10.046875 C 2.453125 -8.347656 2.675781 -6.90625 3.125 -5.71875 C 3.582031 -4.53125 4.175781 -3.5625 4.90625 -2.8125 C 5.644531 -2.0625 6.457031 -1.472656 7.34375 -1.046875 C 8.238281 -0.628906 9.128906 -0.335938 10.015625 -0.171875 C 10.898438 -0.015625 11.695312 0.0625 12.40625 0.0625 C 13.65625 0.0625 14.722656 -0.09375 15.609375 -0.40625 C 16.492188 -0.71875 17.171875 -1.035156 17.640625 -1.359375 C 18.117188 -1.679688 18.359375 -1.84375 18.359375 -1.84375 Z M 18.359375 -1.84375 "/></g></g></g><g fill="#76984b" fill-opacity="1"><g transform="translate(510.437797, 678.01632)"><g><path d="M 11.859375 -19.75 L 2.71875 -19.75 L 2.71875 -10.859375 L 10.984375 -10.859375 L 10.984375 -10.3125 L 2.71875 -10.3125 L 2.71875 -0.515625 L 11.859375 -0.515625 L 11.859375 0.03125 L 1.546875 0.03125 L 1.546875 -20.296875 L 11.859375 -20.296875 Z M 11.859375 -19.75 "/></g></g></g></svg>